<?xml version="1.0" standalone="no"?>
<svg version="1.1" id="Layer_1_99_" xmlns="http://www.w3.org/2000/svg" xmlns:xlink="http://www.w3.org/1999/xlink" x="0px" y="0px" viewBox="0 0 595.276 595.276" enable-background="new 0 0 595.276 595.276" xml:space="preserve">
<path id="color_x5F_7" fill-rule="evenodd" clip-rule="evenodd" fill="#424242" d="M418.864,461.183h32.301
	c-3.785,19.494-9.502,38.567-16.306,57.407l-5.606,0.257C423.359,499.61,419.394,480.39,418.864,461.183L418.864,461.183z
	 M197.266,507.111v9.773c-5.205,0.464-10.529,0.284-15.872-0.61L197.266,507.111L197.266,507.111z M182.784,497.514l3.49,0.936
	c3.463,2.493,7.146,4.622,10.993,6.362v1.145l-17.383,10.037c-1.488-0.286-2.975-0.612-4.462-1.011
	c-4.818-1.291-9.343-3.126-13.552-5.393L182.784,497.514L182.784,497.514z M161.54,491.824l19.881,5.326l-20.583,11.884
	c-4.675-2.633-8.933-5.825-12.709-9.464L161.54,491.824z M172.487,483.203l24.779,6.64v13.864
	C187.63,499.265,179.041,492.361,172.487,483.203L172.487,483.203z M137.03,485.256l23.146,6.201l-12.783,7.379
	C143.329,494.786,139.847,490.213,137.03,485.256L137.03,485.256z M166.711,475.633c0.503,0.986,1.035,1.965,1.594,2.933
	c0.791,1.37,1.63,2.694,2.505,3.982c0.024,0.059,0.06,0.114,0.105,0.16c3.743,5.479,8.224,10.208,13.226,14.137l-1.223-0.328
	c-0.044-0.019-0.09-0.031-0.137-0.037l-20.982-5.622l-7.747-13.418C158.166,476.416,162.402,475.797,166.711,475.633
	L166.711,475.633L166.711,475.633z M153.047,477.692l7.389,12.801l-23.144-6.201C142.208,481.407,147.505,479.172,153.047,477.692
	L153.047,477.692z M163.401,464.671L163.401,464.671l23.327,6.248l10.29,17.824l-25.418-6.813c-0.848-1.251-1.663-2.535-2.431-3.864
	c-0.583-1.01-1.132-2.033-1.652-3.06c-0.017-0.071-0.049-0.138-0.094-0.196C165.762,471.505,164.433,468.112,163.401,464.671
	L163.401,464.671z M193.85,447.071c1.186,1.257,2.325,2.573,3.416,3.942v36.159l-9.672-16.753L193.85,447.071L193.85,447.071z
	 M160.769,447.867l14.964,4.009l10.288,17.819l-22.956-6.151C161.63,458.408,160.873,453.173,160.769,447.867L160.769,447.867z
	 M180.604,436.426c4.496,2.701,8.68,5.984,12.435,9.818l-6.152,22.952l-10.289-17.823L180.604,436.426z M163.046,429.901
	l11.979,20.75l-14.258-3.819C160.757,441.094,161.533,435.397,163.046,429.901L163.046,429.901z M163.92,429.415
	c5.512,1.437,10.833,3.603,15.794,6.473l-3.821,14.264L163.92,429.415z M170.361,374.461h-12.751
	c0.699-1.996,0.338-4.231-1.009-5.901c-3.098-3.843-6.368-7.9-8.076-10.02c-0.854-1.058-2.121-1.699-3.478-1.761
	c-4.749-0.218-16.711-0.767-16.711-0.767l-0.997-0.045v-72.136h6.434c0.223,0.256,1.633,1.841,4.638,3.537
	c3.256,1.837,8.233,3.664,15.103,3.664c5.357,0,7.682-1.917,8.506-3.908c0.605-1.463,0.444-2.631,0.307-3.292h8.034L170.361,374.461
	L170.361,374.461z M405.329,164.54c-0.334,0.036-0.621-0.195-0.657-0.528c-0.132-1.221-0.345-3.188-0.477-4.409
	c-0.036-0.335,0.197-0.622,0.53-0.658c0.552-0.059,2.303-0.249,3.189-0.345c0.06,0.004,0.12-0.003,0.178-0.02
	c5.357-0.579,13.59-1.47,18.95-2.05c0.061,0.005,0.122-0.002,0.181-0.019c0.886-0.096,2.637-0.286,3.19-0.346l0,0
	c0.334-0.036,0.623,0.197,0.659,0.531c0.132,1.221,0.344,3.186,0.475,4.407c0.037,0.334-0.195,0.621-0.528,0.657
	c-0.126,0.013-0.58,0.062-0.725,0.078c-0.021-0.001-0.041-0.001-0.061,0c-0.037,0.003-0.073,0.009-0.108,0.019
	c-4.915,0.532-18.996,2.057-23.906,2.587c-0.007-0.001-0.014-0.001-0.022-0.002c-0.05-0.001-0.1,0.006-0.148,0.02
	c-0.143,0.015-0.593,0.064-0.718,0.078L405.329,164.54L405.329,164.54z M424.803,152.131c0.327,0.029,0.64,0.155,0.9,0.364
	c0.345,0.277,0.564,0.68,0.612,1.122c0.104,0.959,0.173,1.601,0.213,1.964c-5.327,0.577-12.807,1.388-18.134,1.965
	c-0.039-0.362-0.109-1.005-0.213-1.967c-0.048-0.44,0.081-0.881,0.359-1.227c0.278-0.346,0.68-0.565,1.12-0.612
	c3.682-0.399,11.135-1.206,14.816-1.604C424.586,152.123,424.695,152.122,424.803,152.131L424.803,152.131z M404.463,54.855
	c3.02,0.076,5.369,1.127,7.145,2.381c2.843,2.01,4.158,4.545,4.158,4.545c0.083,0.162,0.249,0.265,0.43,0.27
	c4.286,0.112,7.087,1.509,8.964,3.527c1.877,2.018,2.83,4.696,3.25,7.397c0.708,4.551-0.071,8.9-0.346,10.223
	c-0.798-0.318-1.665-0.497-2.575-0.497c-1.105,0-2.147,0.268-3.078,0.725c-0.543-0.247-7.098-3.318-8.305-8.971
	c-0.049-0.23-0.254-0.395-0.487-0.395c-0.112,0-0.221,0.037-0.308,0.106c0,0-2.11,1.645-4.606,3.177
	c-1.247,0.767-2.591,1.503-3.792,1.985c-1.201,0.481-2.262,0.67-2.844,0.508c-0.593-0.164-1.073-0.706-1.448-1.55
	c-0.375-0.845-0.618-1.948-0.76-3.031c-0.286-2.168-0.184-4.247-0.184-4.247c0.001-0.009,0.001-0.017,0.001-0.026
	c0-0.271-0.22-0.494-0.49-0.499c-0.141-0.003-0.276,0.054-0.373,0.156l-16.277,17.171c-0.138,0.107-0.21,0.279-0.189,0.452
	c0.001,0.008,0.002,0.017,0.004,0.025c0,0.004,0.001,0.007,0.002,0.01c0.006,0.037,0.016,0.073,0.031,0.108
	c0.772,2.253,2.162,6.311,3.338,9.742c-0.98-0.082-3.44-0.36-5.95-1.252c-1.606-0.571-3.198-1.392-4.372-2.531
	c-1.175-1.138-1.946-2.571-1.977-4.495c-0.008-0.483,0.035-1.026,0.123-1.617c0,0,0-0.001,0-0.002
	c0.616-4.111,3.489-10.616,7.597-16.704c4.698-6.964,11.008-13.439,17.133-15.61C400.596,55.114,402.651,54.809,404.463,54.855
	C404.463,54.855,404.463,54.855,404.463,54.855z"></path>
<path id="color_x5F_6" fill-rule="evenodd" clip-rule="evenodd" fill="#73b9fa" d="M476.286,444.171h0.002
	c6.045-0.016,11.479,4.19,12.787,10.336c0.044,0.207,0.083,0.414,0.117,0.62c0.001,0.004,0.002,0.008,0.002,0.012l13.293,70.752
	c0,0.005,0.001,0.01,0.002,0.016c0.171,0.782,0.262,1.593,0.262,2.428c0,6.265-5.076,11.343-11.342,11.344h-39.13v-8.726
	c0-3.337-1.326-6.539-3.687-8.899c-1.293-1.293-2.844-2.262-4.525-2.886l32.553-1.494c0.266-0.013,0.476-0.235,0.476-0.499
	c0-0.039-0.005-0.078-0.014-0.116l-13.394-56.515c-0.001-0.003-0.002-0.006-0.004-0.01c-0.051-0.196-0.098-0.396-0.14-0.594
	c-1.501-7.051,3-13.982,10.05-15.481c0.757-0.162,1.511-0.241,2.259-0.268h0.287C476.189,444.191,476.239,444.184,476.286,444.171
	L476.286,444.171L476.286,444.171z M415.867,534.819h-16.661c0.051-0.631,1.26-15.552,2.086-25.747
	c0.475-5.866-0.339-11.763-2.368-17.285c-0.005-0.036-0.014-0.072-0.027-0.106c-2.373-6.409-3.249-13.279-2.56-20.079
	c0.557-5.501,1.239-12.218,1.793-17.678c0.561-5.532,5.21-9.734,10.771-9.734h9.424c-2.108,24.935,2.303,49.849,9.908,74.735
	c-1.15,0.186-2.2,0.788-2.939,1.705c-1.709,2.119-4.98,6.174-8.078,10.018C416.249,531.845,415.794,533.334,415.867,534.819z
	 M471.022,444.22c-6.186,2.512-9.892,9.172-8.454,15.928l-0.002-0.002c0.046,0.216,0.097,0.429,0.152,0.639l13.254,55.919
	l-36.269,1.664h-0.013c-0.025-0.001-0.049,0.001-0.073,0.004l-3.683,0.17c6.81-18.902,12.531-38.054,16.302-57.645
	c0.036-0.077,0.053-0.162,0.047-0.246c1.045-5.451,1.944-10.937,2.667-16.461l0,0h16.144L471.022,444.22L471.022,444.22z
	 M349.984,423.122l20.397,3.693l-1.089,5.883c-0.017,0.049-0.027,0.101-0.029,0.153l-2.087,11.283
	c-0.019,0.052-0.03,0.106-0.031,0.162l-2.733,14.767c-0.006,0.03-0.009,0.06-0.009,0.09c0,0.274,0.226,0.499,0.5,0.499
	c0.061,0,0.122-0.011,0.18-0.033l34.953-13.523c0.018-0.008,0.037-0.016,0.054-0.026c0.746-0.396,1.542-0.713,2.372-0.962
	c-2.91,1.895-4.954,5.034-5.328,8.714c-0.553,5.46-1.233,12.178-1.791,17.679c-0.107,1.058-0.164,2.117-0.197,3.176l-40.558,12.982
	c-0.025,0.007-0.049,0.016-0.073,0.027c-2.249,1.123-4.879,1.509-7.524,0.919c-6.115-1.364-9.963-7.426-8.599-13.541l1.894-8.49
	c0.018-0.045,0.028-0.093,0.032-0.142l4.896-21.946c0.02-0.05,0.032-0.104,0.035-0.158l2.521-11.297
	c0.016-0.044,0.027-0.091,0.031-0.138L349.984,423.122L349.984,423.122z M165.557,207.092c0.54-0.023,1.061,0.193,1.428,0.588
	c0.365,0.397,0.537,0.931,0.473,1.465c-0.404,2.856-1.629,5.462-3.25,7.975c-0.052,0.08-0.079,0.174-0.079,0.27
	c0,0.275,0.225,0.499,0.499,0.499c0.077,0,0.153-0.017,0.222-0.052c5.53-2.759,12.789-3.344,20.305-3.361c0.001,0,0.001,0,0.002,0
	c1.86-0.013,3.614,0.861,4.723,2.355c1.108,1.493,1.436,3.426,0.885,5.203c-0.959,3.064-2.391,5.826-4.229,8.341
	c-0.063,0.086-0.097,0.189-0.097,0.295c0,0.234,0.164,0.437,0.392,0.487c0,0,1.965,0.435,4.131,0.952
	c0.003,0.001,0.006,0.002,0.008,0.002c1.262,0.28,2.288,1.189,2.718,2.408c0.429,1.218,0.199,2.571-0.608,3.58c0,0,0,0.001,0,0.002
	c-4.421,5.555-10.127,8.391-11.979,9.219c0.483-2.845,1.531-9.001,1.531-9.001c0.044-0.264-0.132-0.518-0.395-0.571l-33.722-6.879
	c-0.033-0.006-0.066-0.01-0.1-0.01c-0.187,0-0.359,0.104-0.444,0.27l-6.44,12.403c-0.948-0.265-1.965-0.345-2.997-0.176
	c-1.27,0.207-2.399,0.752-3.325,1.52c-0.188-0.687-1.258-4.584-2.549-9.284c-1.589-5.791,1.713-11.781,7.456-13.531
	c0.001-0.001,0.002-0.002,0.004-0.002c0.122-0.037,0.227-0.119,0.291-0.231C145.847,212.259,154.288,207.567,165.557,207.092
	L165.557,207.092L165.557,207.092z M209.115,186.394v9.773c-5.206,0.464-10.53,0.283-15.873-0.61L209.115,186.394L209.115,186.394z
	 M194.634,176.798l3.49,0.935c3.463,2.492,7.145,4.621,10.991,6.361v1.146l-17.383,10.038c-1.487-0.286-2.975-0.612-4.462-1.01
	c-4.818-1.291-9.343-3.127-13.551-5.394L194.634,176.798L194.634,176.798z M173.391,171.106l19.878,5.326l-20.584,11.887
	c-4.676-2.634-8.936-5.825-12.712-9.465L173.391,171.106L173.391,171.106z M184.337,162.485l24.778,6.641v13.864
	C199.479,178.548,190.891,171.643,184.337,162.485z M148.878,164.538l23.147,6.201l-12.784,7.384
	C155.175,174.072,151.695,169.497,148.878,164.538z M389.719,128.088c-4.883,2.672-7.924,8.11-7.246,13.975
	c1.43,12.376,2.546,22.034,3.957,34.247l-20.916-7.939c0.087-0.206,3.11-7.346,4.65-10.987c0.026-0.042,0.045-0.087,0.057-0.135
	c1.598-3.774,2.68-6.335,4.783-11.304c0.026-0.042,0.046-0.087,0.059-0.135c1.666-3.936,2.397-5.665,3.79-8.956
	C380.791,132.277,384.883,129.004,389.719,128.088L389.719,128.088L389.719,128.088z M178.562,154.917
	c0.503,0.985,1.033,1.964,1.592,2.932c0.791,1.369,1.63,2.693,2.505,3.981c0.024,0.06,0.06,0.114,0.105,0.16
	c3.744,5.481,8.227,10.21,13.231,14.14l-1.222-0.329c-0.048-0.021-0.1-0.035-0.152-0.041l-20.971-5.618l-7.746-13.419
	C170.016,155.699,174.253,155.081,178.562,154.917L178.562,154.917L178.562,154.917z M164.895,156.977l7.391,12.798l-23.148-6.201
	C154.056,160.69,159.352,158.456,164.895,156.977z M175.25,143.952l23.327,6.25l10.29,17.823l-25.418-6.812
	c-0.848-1.251-1.663-2.535-2.431-3.864c-0.595-1.031-1.153-2.075-1.683-3.125c-0.009-0.024-0.021-0.047-0.033-0.068
	C177.626,150.829,176.288,147.415,175.25,143.952L175.25,143.952L175.25,143.952L175.25,143.952L175.25,143.952z M468.799,119.013
	c5.085,0.147,9.83,3.276,11.791,8.314l11.977,30.758l-22.209,9.912l-13.506-29.902c-0.003-0.007-0.007-0.015-0.011-0.023
	c-0.212-0.409-0.404-0.836-0.576-1.275c-2.614-6.717,0.71-14.28,7.427-16.895c0.81-0.316,1.633-0.54,2.458-0.687l0.577-0.066
	c0.041-0.004,0.082-0.013,0.121-0.027C467.5,119.041,468.153,118.994,468.799,119.013L468.799,119.013L468.799,119.013z
	 M205.699,126.354c1.187,1.257,2.326,2.572,3.416,3.942v36.159l-9.671-16.753L205.699,126.354L205.699,126.354z M172.618,127.15
	l14.963,4.008l10.289,17.824l-22.956-6.153C173.47,137.662,172.714,132.394,172.618,127.15L172.618,127.15L172.618,127.15z
	 M192.452,115.707c4.496,2.701,8.681,5.985,12.436,9.82l-6.153,22.95l-10.288-17.822L192.452,115.707z M442.774,121.916
	c-0.092,9.243-8.757,17.759-19.687,19.022c-10.965,1.267-19.97-5.169-20.501-14.377c2.116-0.245,5.751-0.664,5.964-0.689
	c0.51,6.499,6.931,10.974,14.492,10.1c7.594-0.878,13.676-6.76,13.78-13.367L442.774,121.916L442.774,121.916z M174.895,109.183
	l11.979,20.751l-14.259-3.818C172.606,120.378,173.38,114.681,174.895,109.183z M175.769,108.698
	c5.511,1.437,10.832,3.602,15.793,6.472l-3.821,14.265L175.769,108.698z"></path>
<path id="color_x5F_5" fill-rule="evenodd" clip-rule="evenodd" fill="#FFD2BB" d="M451.279,539.68h-29.266
	c-1.99,0-3.8-1.143-4.659-2.938c-0.858-1.794-0.609-3.917,0.64-5.465c3.098-3.843,6.367-7.9,8.076-10.02
	c0.669-0.83,1.663-1.331,2.727-1.386c0.081,0.015,0.164,0.01,0.243-0.014l6.083-0.279c0.075,0.014,0.152,0.01,0.226-0.01l4.36-0.201
	c3.068,0.004,6.008,1.224,8.178,3.394c2.172,2.173,3.394,5.121,3.394,8.193V539.68L451.279,539.68z M451.355,460.184h-32.512
	c-0.114-5.332,0.03-10.664,0.483-15.995h7.41c0.269-0.007,0.485-0.23,0.485-0.499c0-0.007,0-0.014,0-0.021l1.098-9.828
	c6.77-0.322,9.093-0.833,9.093-0.833c0.224-0.054,0.383-0.256,0.383-0.485c0-0.275-0.226-0.5-0.499-0.5
	c-0.04,0-0.079,0.005-0.117,0.014c0,0-2.272,0.556-10.006,0.868c-3.117,0.127-6.144-1.058-8.347-3.267
	c-2.203-2.208-3.38-5.239-3.246-8.355c0.183-4.282,0.61-14.273,0.627-14.685l27.139-12.657c0.127,0.44,0.73,2.6,2.11,5.674
	c1.475,3.284,3.625,7.057,6.479,9.257l-0.591,13.809c-0.002,0.017-0.002,0.034-0.002,0.051l-0.894,20.852
	c-0.02,0.089-0.015,0.181,0.014,0.267c0.061,0.215,0.258,0.364,0.48,0.364c0.051,0,0.103-0.008,0.152-0.024h2.848
	C453.238,449.556,452.366,454.885,451.355,460.184L451.355,460.184z M360.004,397.269c0.337,0.008,0.676,0.048,1.01,0.123
	c3.386,0.755,7.643,1.704,10.702,2.387c1.974,0.44,3.238,2.353,2.87,4.341l-0.858,4.635c-0.02,0.054-0.031,0.112-0.031,0.17
	l-0.576,3.111c-0.005,0.03-0.008,0.06-0.008,0.09c0,0.274,0.226,0.499,0.499,0.499c0.084,0,0.166-0.021,0.239-0.061l2.114-1.155
	c1.519-0.828,3.411-0.272,4.239,1.246c0.829,1.519,0.273,3.411-1.246,4.239l-7.286,3.978c-0.132,0.072-0.224,0.199-0.252,0.347
	l-0.856,4.611l-20.362-3.687l2.906-13.025c0.023-0.055,0.035-0.114,0.037-0.174l1.705-7.639c0.3-1.337,1.118-2.5,2.273-3.235
	C357.99,397.521,358.992,397.246,360.004,397.269L360.004,397.269L360.004,397.269z M151.803,377.59h-26.845v-8.613
	c0-3.074,1.221-6.02,3.394-8.193c2.171-2.172,5.12-3.394,8.191-3.395l0,0h0.006c3.612,0.166,6.051,0.278,8.453,0.389
	c1.072,0.049,2.07,0.554,2.745,1.39c1.708,2.12,4.98,6.174,8.078,10.018c1.248,1.548,1.496,3.674,0.638,5.467
	c-0.006,0.014-0.015,0.026-0.022,0.039c-0.009,0.014-0.018,0.029-0.025,0.043C155.541,376.481,153.762,377.589,151.803,377.59
	L151.803,377.59z M514.382,362.584c1.651,0,2.976,1.328,2.976,2.979s-1.325,2.976-2.976,2.976c-1.651,0-2.979-1.325-2.979-2.976
	S512.731,362.584,514.382,362.584z M486.846,362.584c1.65,0,2.978,1.328,2.978,2.979s-1.328,2.976-2.978,2.976
	c-1.651,0-2.979-1.325-2.979-2.976S485.195,362.584,486.846,362.584z M500.614,362.584c1.651,0,2.978,1.328,2.978,2.979
	s-1.327,2.976-2.978,2.976c-1.651,0-2.979-1.325-2.979-2.976S498.963,362.584,500.614,362.584z M227.829,282.517
	c0.243,0.016,0.487,0.056,0.731,0.121c1.888,0.506,4.289,1.151,6.601,1.77c0.035,0.013,0.071,0.023,0.108,0.029
	c1.359,0.365,2.655,0.71,3.883,1.04c1.323,0.355,2.45,1.22,3.133,2.405c0.685,1.187,0.871,2.597,0.517,3.919l-3.761,14.04
	c-0.023,0.05-0.038,0.104-0.043,0.16l-1.379,5.148l-19.925-5.45l1.204-3.917c0.045-0.144,0.022-0.3-0.062-0.424l-4.617-6.897
	c-0.964-1.437-0.579-3.372,0.858-4.335c1.437-0.962,3.37-0.58,4.333,0.857l1.34,2.002c0.092,0.139,0.249,0.223,0.415,0.223
	c0.219,0,0.413-0.144,0.477-0.354l2.364-7.694C224.527,283.468,226.128,282.406,227.829,282.517L227.829,282.517L227.829,282.517z
	 M148.684,231.925l32.88,6.705c-0.034,0.2-1.073,6.302-1.595,9.377c-0.016,0.048-0.025,0.098-0.026,0.149
	c-0.014,0.084-0.028,0.168-0.043,0.254c-0.018,0.054-0.028,0.111-0.027,0.168c-0.847,4.979-1.403,8.245-2.487,14.618
	c-0.524,3.076-2.312,5.791-4.93,7.49c-2.617,1.696-5.825,2.218-8.846,1.441c-0.338-0.087-0.248-0.064-0.575-0.149
	c-0.051-0.022-0.105-0.036-0.161-0.041c-6.833-1.758-12.072-3.105-12.072-3.105c-0.041-0.01-0.083-0.016-0.125-0.016
	c-0.275,0-0.5,0.226-0.5,0.499c0,0.228,0.155,0.427,0.376,0.484c0,0,5.212,1.339,11.741,3.019l-1.053,10.464
	c-0.002,0.019-0.003,0.038-0.002,0.056c0,0.008,0.001,0.015,0.002,0.022c0,0.011,0.001,0.022,0.002,0.033c0,0.001,0,0.001,0,0.002
	s0,0.003,0,0.004c0.004,0.028,0.01,0.055,0.019,0.082c0.001,0.003,0.001,0.007,0.002,0.01c0.008,0.028,0.494,1.655-0.166,3.25
	c-0.665,1.609-2.454,3.291-7.583,3.291c-6.693,0-11.487-1.772-14.611-3.535c-2.691-1.519-4.051-2.937-4.395-3.32l4.417-25.961
	c0.606,0.065,1.229,0.058,1.859-0.044c0.242-0.04,0.42-0.25,0.42-0.494c0-0.274-0.226-0.499-0.5-0.499
	c-0.027,0-0.053,0.002-0.08,0.006c-0.677,0.111-1.344,0.097-1.984-0.013c-0.02-0.006-0.04-0.009-0.061-0.012
	c-2.425-0.443-4.422-2.356-4.841-4.932c-0.139-0.851-0.087-1.687,0.117-2.471c0.012-0.032,0.021-0.064,0.027-0.098
	c0.607-2.184,2.426-3.928,4.812-4.317c1.015-0.166,2.005-0.067,2.911,0.246c0.019,0.008,0.038,0.014,0.058,0.019
	c0.046,0.014,0.093,0.021,0.141,0.021c0.233,0,0.436-0.164,0.487-0.392L148.684,231.925L148.684,231.925z M370.518,214.101
	c-5.394,0-10.43-2.693-13.426-7.178c-2.994-4.487-3.55-10.17-1.482-15.15v-0.002l9.513-22.479l21.437,8.136
	c0.07,0.604,0.138,1.183,0.203,1.752l-6.913,13.765l-3.919-1.772c-0.076-0.036-0.16-0.052-0.244-0.047
	c-0.262,0.017-0.467,0.237-0.467,0.498c0,0.198,0.118,0.379,0.3,0.457l4.352,1.967c0.015,0.007,0.03,0.014,0.045,0.019l9.241,4.177
	c0.039,0.025,0.081,0.044,0.125,0.057l0.479,0.216c0.025,0.015,7.217,4.22,10.339,6.046c0.84,0.49,1.52,1.215,1.957,2.083
	c0.842,1.673,2.261,4.499,3.498,6.959c0.435,0.867,0.391,1.898-0.119,2.725c-0.509,0.827-1.407,1.328-2.38,1.329h-16.726
	l-4.623-3.459c-0.087-0.065-0.192-0.1-0.301-0.1L370.518,214.101L370.518,214.101z M80.172,199.855c1.65,0,2.978,1.327,2.978,2.978
	c0,1.651-1.328,2.976-2.978,2.976c-1.651,0-2.979-1.325-2.979-2.976C77.193,201.182,78.521,199.855,80.172,199.855z
	 M107.707,199.855c1.651,0,2.976,1.327,2.976,2.978c0,1.651-1.325,2.976-2.976,2.976s-2.978-1.325-2.978-2.976
	C104.729,201.182,106.056,199.855,107.707,199.855z M93.939,199.855c1.651,0,2.978,1.327,2.978,2.978
	c0,1.651-1.327,2.976-2.978,2.976s-2.979-1.325-2.979-2.976C90.959,201.182,92.288,199.855,93.939,199.855z M503.967,187.369v-0.093
	c0,0.062,0.012,0.124,0.035,0.181c0.782,2.001,1.005,4.245,0.519,6.502c-1.16,5.387-5.965,9.043-11.273,8.95
	c-0.016-0.001-0.032-0.002-0.047-0.002h-0.004c-0.711-0.015-1.431-0.093-2.151-0.248l-14.797-3.185
	c-0.051-0.02-0.104-0.031-0.158-0.034l-44.261-9.525c-0.084-0.046-0.181-0.067-0.277-0.06l-2.147-0.462
	c-0.04-0.008-0.081-0.012-0.121-0.01c0,0-3.013,0.091-5.956,0.18c-2.865,0.088-5.296-2.057-5.564-4.911
	c-0.303-3.221-0.679-7.229-0.963-10.251c-0.099-1.049,0.227-2.094,0.903-2.9c0.677-0.808,1.649-1.311,2.7-1.397
	c4.181-0.343,8.843-0.722,10.201-0.833c0.001,0,0.003,0,0.004,0c0.183-0.015,1.369-0.113,1.377-0.113l37.357,6.629
	c0.007,0.001,0.013,0.002,0.02,0.004l3.975,0.706c0.003,0,0.007,0.001,0.01,0.002l10.217,1.812c0.029,0.005,0.058,0.008,0.087,0.008
	c0.275,0,0.5-0.226,0.5-0.5c0-0.242-0.175-0.45-0.413-0.492l-9.968-1.768l-3.002-6.652l22.16-9.888L503.967,187.369L503.967,187.369
	z M398.732,72.177c-0.015,0.747-0.077,1.556,0.141,3.207c0.15,1.141,0.398,2.316,0.836,3.305c0.439,0.989,1.099,1.835,2.093,2.11
	c1.005,0.28,2.195-0.03,3.482-0.546c1.287-0.515,2.669-1.275,3.945-2.059c2.246-1.38,3.702-2.523,4.133-2.855
	c1.727,5.924,8.348,8.875,8.718,9.036c0.001,0.001,0.001,0.002,0.002,0.002c0.074,0.058,0.162,0.094,0.256,0.104
	c0.144,0.024,0.292-0.016,0.403-0.109c0.824-0.427,1.755-0.673,2.749-0.673c2.833,0,5.197,1.961,5.829,4.597
	c0.005,0.024,0.011,0.048,0.019,0.071c0.098,0.428,0.153,0.873,0.153,1.331c0,2.61-1.663,4.82-3.985,5.648
	c-0.023,0.007-0.045,0.015-0.067,0.025c-0.611,0.21-1.265,0.328-1.949,0.328c-0.002,0-0.005,0-0.007,0
	c-0.274,0-0.499,0.226-0.499,0.499c0,0.275,0.226,0.499,0.499,0.499c0.002,0,0.005,0,0.007,0c0.637,0,1.25-0.093,1.838-0.254
	l8.507,25.788c0.127,6.14-5.617,11.904-12.907,12.745c-7.316,0.846-13.262-3.512-13.428-9.673c0.002-0.077-0.013-0.153-0.045-0.223
	l-0.438-1.554c-0.006-0.052-0.02-0.102-0.041-0.149l-2.191-7.78c6.171-2.707,11.099-4.867,11.099-4.867
	c0.181-0.08,0.299-0.26,0.299-0.457c0-0.274-0.226-0.499-0.499-0.499c-0.07,0-0.138,0.014-0.202,0.042c0,0-4.956,2.173-11.431,5.014
	c-0.045,0.012-0.089,0.031-0.129,0.056c-0.315,0.138-0.228,0.1-0.551,0.242c-2.859,1.252-6.108,1.252-8.964-0.002
	c-2.857-1.254-5.059-3.646-6.069-6.597c-2.419-7.058-5.285-15.428-6.918-20.194L398.732,72.177L398.732,72.177z"></path>
<path id="color_x5F_4" fill-rule="evenodd" clip-rule="evenodd" fill="#d0d0d0" d="M436.066,376.169
	c0.792,0.01,1.587,0.059,2.382,0.148c0,0,0.001,0,0.002,0c5.837,0.651,11.163,3.613,14.767,8.209c0,0,0.001,0,0.002,0
	c0.531,0.677,0.874,1.116,0.874,1.116c0.083,0.107,0.207,0.175,0.342,0.19c0,0,0.083,0.01,0.242,0.027
	c8.52,0.951,14.651,8.543,13.711,16.963c-0.228,2.045-0.42,3.771-0.665,5.966c-0.016,0.056-0.023,0.114-0.019,0.172
	c-1.149,10.296-2.453,21.981-3.119,27.956c-0.113,1.008-0.622,1.93-1.414,2.564c-0.793,0.633-1.803,0.925-2.812,0.813
	c-3.791-0.423-8.694-0.97-8.727-0.974l0.706-16.526c0.001-0.01,0.002-0.02,0.002-0.03l0.002-0.021c0-0.006,0-0.012,0-0.018
	l0.603-14.038c0.007-0.167-0.07-0.327-0.206-0.424c-2.691-1.967-4.889-5.755-6.37-9.054c-1.482-3.298-2.263-6.083-2.263-6.083
	c-0.06-0.215-0.259-0.365-0.482-0.365c-0.072,0-0.143,0.016-0.209,0.047l-27.903,13.013c-0.169,0.079-0.281,0.246-0.289,0.431
	c0,0-0.455,10.618-0.642,14.988c-0.146,3.395,1.14,6.698,3.539,9.104c2.401,2.407,5.699,3.698,9.095,3.561
	c0.037-0.002,0.056-0.004,0.093-0.006l-0.298,2.674l-19.31-2.155c0.04-0.36,1.572-14.096,2.829-25.35
	c0.016-0.056,0.023-0.115,0.019-0.174c0.573-5.136,0.694-6.221,1.287-11.54c0.701-6.287,3.899-12.034,8.89-15.981
	C425.089,377.92,430.518,376.096,436.066,376.169L436.066,376.169L436.066,376.169z M123.959,377.59H82.443
	c-0.012,0-0.023,0-0.035,0c-6.265,0-11.342-5.077-11.342-11.341c0-1.207,0.189-2.368,0.537-3.457
	c0.002-0.007,0.004-0.013,0.005-0.02l19.071-68.939c0.002-0.006,0.004-0.012,0.006-0.018c0.07-0.295,0.15-0.588,0.242-0.882
	c1.756-5.587,6.923-9.159,12.487-9.143l0,0c0.002,0,0.004,0,0.006,0c0.064,0.027,0.133,0.041,0.203,0.041h0.566
	c1.033,0.064,2.072,0.238,3.103,0.561c6.877,2.161,10.7,9.488,8.539,16.365c-0.001,0.001-0.001,0.001-0.002,0.002
	c-0.032,0.105-0.066,0.209-0.102,0.312c-0.001,0.004-0.002,0.007-0.004,0.01l-12.563,38.293c-0.009,0.024-0.017,0.048-0.023,0.073
	l-4.98,15.181l-6.103-0.28l-0.047,0.999l11.523,0.529c0.047,0.009,0.095,0.011,0.143,0.006l24.618,1.13c0,0,2.833,0.129,3.884,0.177
	c-1.684,0.624-3.236,1.594-4.529,2.887c-2.361,2.361-3.687,5.563-3.687,8.901L123.959,377.59L123.959,377.59z M188.952,374.461
	H171.36v-90.63h6.768c5.985,0,10.825,4.842,10.825,10.826v48.042c-0.001,0.017-0.001,0.034,0,0.051V374.461z M184.776,284.885
	c4.236,1.561,7.766,4.773,9.665,9.049c2.09,4.705,3.036,6.833,5.44,12.243c0.014,0.047,0.034,0.093,0.061,0.134
	c2.201,4.956,3.468,7.808,4.988,11.229c0.012,0.102,0.055,0.198,0.123,0.275c1.391,3.131,4.624,10.408,4.652,10.471l-2.727,8.87
	c-0.018,0.053-0.028,0.108-0.028,0.163c0,0.274,0.226,0.499,0.499,0.499c0.225,0,0.422-0.151,0.482-0.368l2.774-9.02
	c0.004-0.01,0.007-0.02,0.01-0.029l1.41-4.592l1.877-6.106c0.023-0.047,0.039-0.097,0.047-0.149l3.349-10.901l19.961,5.46
	l-1.383,5.164c-0.024,0.052-0.04,0.108-0.045,0.166l-12.69,47.356c-1.622,6.052-7.839,9.641-13.891,8.019
	c-3.025-0.81-5.431-2.772-6.885-5.287c-0.003-0.004-0.006-0.009-0.01-0.013l-0.002-0.004c-0.001-0.002-0.002-0.004-0.004-0.006
	c-0.002-0.004-0.004-0.007-0.006-0.01c-0.135-0.197-0.392-0.271-0.61-0.176l0.41-0.205c-0.129-0.241-0.251-0.484-0.36-0.736
	c-0.004-0.008-0.008-0.017-0.012-0.025l-11.922-23.739v-47.963C189.951,290.598,187.898,287.015,184.776,284.885L184.776,284.885
	L184.776,284.885L184.776,284.885L184.776,284.885z M202.245,367.12c0.045,0.084,0.09,0.167,0.136,0.25l-0.131-0.252L202.245,367.12
	z M377.582,346.752l15.872,9.164c-5.342,0.894-10.667,1.075-15.872,0.611V346.752z M108.643,283.831h17.697v72.089l-22.219-1.018
	v-15.253l12.548-38.248l0.004-0.01c0.038-0.11,0.075-0.223,0.109-0.336l0.002-0.004
	C118.991,294.021,115.361,286.545,108.643,283.831h-0.001v-0.001C108.642,283.83,108.643,283.831,108.643,283.831z M392.062,337.156
	l20.917,12.075c-4.209,2.267-8.733,4.103-13.553,5.393c-1.486,0.398-2.973,0.725-4.462,1.011l-17.383-10.037v-1.145
	c3.848-1.741,7.533-3.871,10.997-6.365L392.062,337.156z M413.306,331.464l13.413,7.747c-3.774,3.641-8.033,6.83-12.709,9.464
	l-20.585-11.885L413.306,331.464L413.306,331.464z M402.361,322.845c-4.038,5.658-8.881,10.47-14.284,14.374
	c-0.001,0-0.001,0.001-0.002,0.002c-0.014,0.009-0.028,0.02-0.041,0.031c-3.296,2.377-6.8,4.414-10.452,6.098v-13.865
	L402.361,322.845L402.361,322.845z M437.814,324.898c-2.817,4.957-6.296,9.532-10.36,13.582l-12.783-7.381L437.814,324.898
	L437.814,324.898z M408.135,315.275c4.31,0.165,8.548,0.781,12.661,1.807l-7.749,13.419l-20.982,5.622
	c-0.045,0.006-0.089,0.018-0.131,0.035l-1.229,0.33c5-3.928,9.481-8.654,13.224-14.133c0.046-0.046,0.083-0.102,0.107-0.162
	c0.876-1.289,1.716-2.615,2.507-3.985C407.102,317.238,407.631,316.259,408.135,315.275L408.135,315.275L408.135,315.275z
	 M421.802,317.335c5.54,1.479,10.839,3.712,15.754,6.597l-23.144,6.201L421.802,317.335L421.802,317.335z M411.447,304.31
	c-1.036,3.455-2.37,6.865-4.042,10.185c-0.023,0.036-0.041,0.074-0.054,0.115c-0.527,1.042-1.082,2.074-1.672,3.098
	c-0.768,1.329-1.583,2.614-2.431,3.866l-25.418,6.812l10.292-17.826L411.447,304.31z M380.998,286.713l6.258,23.349l-9.674,16.754
	v-36.159L380.998,286.713z M414.078,287.505c-0.095,5.246-0.851,10.512-2.296,15.682l-22.954,6.152l10.288-17.82L414.078,287.505
	L414.078,287.505z M394.244,276.066l4.007,14.953l-10.29,17.82l-6.151-22.953C385.564,282.051,389.748,278.768,394.244,276.066
	L394.244,276.066z M411.802,269.543c1.514,5.496,2.288,11.193,2.278,16.93l-14.258,3.819L411.802,269.543z M410.928,269.058
	l-11.971,20.736l-3.822-14.266C400.095,272.658,405.417,270.494,410.928,269.058z M477.201,214.101h-70.425
	c-0.067-0.324-0.174-0.641-0.327-0.944c-1.237-2.46-2.657-5.286-3.499-6.959c-0.523-1.043-1.338-1.909-2.345-2.497
	c-3.127-1.829-10.356-6.056-10.356-6.056c-0.015-0.008-0.03-0.016-0.045-0.023l-0.32-0.145c-0.013-0.107-1.426-12.338-2.105-18.212
	c0-0.04-0.004-0.08-0.014-0.119c-0.079-0.684-0.159-1.376-0.244-2.11c-0.001-0.019-0.004-0.038-0.008-0.057
	c-1.41-12.206-2.585-22.373-4.047-35.031c-0.831-7.187,4.314-13.675,11.501-14.506c3.29-0.38,4.041-0.467,6.627-0.766
	c0.601,9.789,10.217,16.569,21.609,15.252c11.425-1.32,20.556-10.229,20.572-20.128l17.959-2.075
	c-6.131,3.322-8.992,10.771-6.398,17.434c0.184,0.472,0.393,0.931,0.62,1.371l13.696,30.33l2.929,6.486l-3.044-0.54l-37.447-6.644
	c-0.042-0.008-0.086-0.01-0.129-0.006c0,0-0.837,0.068-0.918,0.074l-0.258-5.44c0.063-0.007,0.282-0.031,0.341-0.037
	c0.871-0.094,1.509-0.888,1.415-1.758v-0.002c-0.133-1.221-0.345-3.185-0.476-4.405c-0.094-0.871-0.889-1.51-1.76-1.416
	c-0.482,0.052-2.042,0.221-2.782,0.301c-0.039-0.364-0.109-1.005-0.213-1.965c0,0-0.001,0-0.002,0
	c-0.076-0.704-0.427-1.349-0.979-1.793c-0.551-0.443-1.257-0.649-1.961-0.573c-3.681,0.399-11.134,1.205-14.816,1.603
	c-0.703,0.077-1.347,0.427-1.791,0.98c-0.443,0.551-0.65,1.256-0.573,1.961c0.104,0.961,0.174,1.604,0.213,1.966
	c-0.741,0.081-2.301,0.249-2.785,0.301c-0.87,0.094-1.509,0.887-1.416,1.758c0,0.001,0,0.001,0,0.002
	c0.133,1.221,0.347,3.186,0.478,4.407c0.094,0.871,0.889,1.509,1.76,1.414c0.058-0.006,0.275-0.03,0.338-0.037
	c0.115,0.679,4.286,25.219,5.69,33.488c0.295,1.732,1.896,2.942,3.642,2.753c3.75-0.406,10.564-1.143,14.315-1.549
	c1.747-0.189,3.052-1.714,2.969-3.468c-0.113-2.392-0.241-5.086-0.271-5.72l43.491,9.362L477.201,214.101L477.201,214.101z"></path>
<path id="color_x5F_3" fill-rule="evenodd" clip-rule="evenodd" fill="#ffffff" d="M316.973,510.885h-76.085
	c-1.385,0-2.712-0.55-3.691-1.53c-0.98-0.979-1.53-2.305-1.53-3.691v-0.002c0-1.383,0.55-2.713,1.53-3.691
	c0.961-0.961,2.256-1.509,3.691-1.529h76.085c1.384,0,2.713,0.55,3.691,1.529c0.979,0.978,1.529,2.307,1.529,3.691v0.002
	c0,1.385-0.55,2.712-1.529,3.691C319.685,510.333,318.358,510.885,316.973,510.885z M240.887,466.901h98.306l-1.774,7.949
	c-0.186,0.834-0.283,1.668-0.297,2.493h-96.236c-1.385,0-2.712-0.55-3.691-1.53c-0.98-0.979-1.53-2.305-1.53-3.691v-0.002
	c0-1.383,0.55-2.713,1.53-3.69C238.175,467.451,239.502,466.901,240.887,466.901L240.887,466.901L240.887,466.901z M240.887,433.36
	h105.789l-2.329,10.442h-103.46c-1.385,0-2.712-0.55-3.692-1.53c-0.979-0.979-1.529-2.305-1.529-3.691v-0.002
	c0-1.385,0.55-2.713,1.529-3.691C238.175,433.909,239.502,433.36,240.887,433.36L240.887,433.36L240.887,433.36z M403.619,443.802
	h-35.366l1.934-10.442h36.625c-0.007,0.058-0.162,1.443-0.162,1.443c-0.002,0.018-0.003,0.037-0.003,0.056
	c0,0.253,0.192,0.467,0.443,0.496l19.806,2.21l-0.628,5.625h-7.321c-0.033-0.006-0.066-0.008-0.099-0.008
	c-0.024,0.001-0.047,0.004-0.071,0.008h-9.876c-0.983,0-1.935,0.132-2.851,0.36c-0.018-0.002-0.036-0.003-0.055-0.002
	c-0.65,0.011-1.307,0.067-1.968,0.172C403.89,443.741,403.756,443.776,403.619,443.802L403.619,443.802z M333.959,350.527h-76.084
	c-1.385,0-2.712-0.55-3.692-1.529c-0.979-0.98-1.527-2.307-1.527-3.692v-0.002c0-1.384,0.548-2.711,1.527-3.691
	c0.98-0.979,2.306-1.529,3.692-1.529h76.084c1.385,0,2.712,0.55,3.692,1.529c0.979,0.98,1.529,2.306,1.529,3.691v0.002
	c0,1.384-0.55,2.712-1.529,3.692C336.671,349.976,335.344,350.527,333.959,350.527z M333.959,316.985h-96.87l1.359-5.08
	c0.002-0.004,0.003-0.008,0.004-0.012l1.434-5.35h94.073c1.385,0,2.712,0.55,3.692,1.529c0.979,0.98,1.529,2.306,1.529,3.691v0.002
	c0,1.384-0.55,2.712-1.529,3.692C336.671,316.435,335.344,316.986,333.959,316.985L333.959,316.985z M213.181,316.985h-7.404
	l-4.638-10.442h15.25L213.181,316.985z M170.79,282.832h-8.502l0.982-9.762c0.052,0.014,0.037,0.01,0.09,0.024
	c2.113,0.543,4.31,0.495,6.367-0.092l0,0h164.231c1.385,0,2.712,0.55,3.692,1.529c0.979,0.979,1.529,2.306,1.529,3.691v0.002
	c0,1.385-0.55,2.712-1.529,3.692c-0.98,0.979-2.306,1.529-3.692,1.529h-98.538c-2.313-0.619-4.715-1.263-6.603-1.77
	c-0.615-0.165-1.237-0.201-1.834-0.123c-1.275,0.167-2.434,0.855-3.203,1.893h-40.269c-1.486-0.395-3.031-0.612-4.614-0.612
	c-0.06-0.001-0.119,0.009-0.175,0.029c-0.199-0.01-0.395-0.029-0.595-0.029h-7.192c-0.027-0.005-0.055-0.007-0.082-0.006
	C170.832,282.826,170.811,282.828,170.79,282.832L170.79,282.832z M252.736,179.726h76.087c1.385,0,2.712,0.55,3.691,1.529
	c0.979,0.979,1.527,2.306,1.527,3.692c0,1.384-0.548,2.712-1.527,3.691c-0.979,0.979-2.305,1.529-3.691,1.529h-76.087
	c-1.384,0-2.711-0.55-3.689-1.529c-0.001,0-0.002,0-0.002,0c-0.98-0.98-1.53-2.306-1.53-3.691c0-1.385,0.551-2.713,1.53-3.692
	c0,0,0.001-0.001,0.002-0.002C250.025,180.275,251.351,179.726,252.736,179.726L252.736,179.726L252.736,179.726z M369.401,156.626
	H252.736c-1.384,0-2.711-0.55-3.689-1.529c-0.001,0-0.002,0-0.002,0c-0.98-0.98-1.53-2.306-1.53-3.691
	c0-1.385,0.551-2.713,1.53-3.692c0,0,0.001,0,0.002,0c0.96-0.96,2.255-1.508,3.689-1.529h121.084L369.401,156.626L369.401,156.626z
	 M407.854,123.084H252.736c-1.384,0-2.711-0.55-3.689-1.529c-0.001,0-0.002,0-0.002,0c-0.98-0.979-1.53-2.306-1.53-3.691
	c0-1.385,0.55-2.712,1.53-3.692c0,0,0.001,0,0.002,0c0.978-0.979,2.304-1.529,3.689-1.529l0,0h138.796
	c1.197,1.449,2.714,2.627,4.471,3.398c3.112,1.367,6.655,1.366,9.768,0.002c0.054-0.023,0.038-0.017,0.092-0.041L407.854,123.084z
	 M433.724,112.644h16.357c1.385,0,2.712,0.55,3.691,1.529c0.98,0.98,1.53,2.306,1.53,3.692c0,0.561-0.109,1.108-0.282,1.63
	l-11.716,1.354c-0.017-0.001-0.034-0.001-0.051,0c-0.04,0.002-0.079,0.008-0.117,0.019l-6.455,0.746
	C436.682,121.614,433.724,112.644,433.724,112.644z"></path>
<path id="color_x5F_2" fill-rule="evenodd" clip-rule="evenodd" fill="#FBC02D" d="M398.206,534.819H204.084
	c-3.217,0-5.819-2.603-5.819-5.821v-11.611c0.001-0.017,0.001-0.034,0-0.051v-11.005c0.01-0.058,0.01-0.117,0-0.175v-16.68
	c0.001-0.016,0.001-0.033,0-0.05v-38.555c0.001-0.017,0.001-0.034,0-0.051v-35.574c0-3.217,2.602-5.821,5.819-5.821l0,0h147.931
	l-2.902,13.009l-2.214,9.926H240.887c-1.65,0-3.231,0.655-4.398,1.822c-1.166,1.166-1.822,2.748-1.822,4.397v0.002
	c0,1.649,0.656,3.231,1.822,4.397c1.167,1.167,2.748,1.822,4.398,1.823h103.235l-4.707,21.101h-98.528
	c-1.65,0-3.231,0.656-4.398,1.822c-1.166,1.166-1.822,2.749-1.822,4.397v0.002c0,1.65,0.656,3.231,1.822,4.398
	c1.167,1.166,2.748,1.822,4.398,1.822h96.27c0.351,5.327,4.152,10.02,9.618,11.24c2.853,0.636,5.702,0.224,8.137-0.978
	l40.218-12.873c-0.045,5.522,0.893,11.019,2.81,16.223c0.001,0.003,0.001,0.007,0.002,0.01c0.005,0.021,0.012,0.042,0.019,0.062
	c0,0.001,0,0.002,0,0.002c2.007,5.416,2.804,11.204,2.337,16.962C399.469,519.213,398.25,534.265,398.206,534.819L398.206,534.819z
	 M316.973,499.444h-76.085c-1.65,0-3.231,0.656-4.398,1.822c-1.166,1.166-1.822,2.749-1.822,4.397v0.002
	c0,1.649,0.656,3.231,1.822,4.398c1.167,1.166,2.748,1.822,4.398,1.822h76.085c1.649,0,3.231-0.656,4.397-1.822
	c1.166-1.167,1.822-2.749,1.822-4.398v-0.002c0-1.648-0.655-3.231-1.822-4.397C320.204,500.099,318.622,499.444,316.973,499.444
	L316.973,499.444z M368.068,444.801h32.363c-0.255,0.115-0.508,0.233-0.755,0.363l-34.119,13.201L368.068,444.801L368.068,444.801z
	 M468.655,409.426h6.38c3.218,0,5.82,2.604,5.82,5.821v28.687c-1.472-0.505-3.038-0.774-4.643-0.762
	c-0.111,0.001-0.224,0.016-0.336,0.019h-21.277c-0.025-0.004-0.05-0.007-0.076-0.008c-0.033,0-0.066,0.002-0.099,0.008h-2.961
	l0.125-2.871c0.108,0.012,4.897,0.546,8.659,0.966c1.27,0.142,2.547-0.228,3.547-1.026c0.998-0.798,1.641-1.962,1.783-3.233v-0.002
	C466.235,431.127,467.518,419.614,468.655,409.426L468.655,409.426L468.655,409.426z M406.923,432.361h-36.552l1.081-5.839
	c0.002-0.007,0.003-0.013,0.004-0.02l0.902-4.867l7.077-3.862c1.993-1.088,2.732-3.602,1.644-5.594
	c-1.087-1.994-3.6-2.732-5.592-1.645l-1.195,0.651l0.326-1.759h34.865L406.923,432.361L406.923,432.361z M490.115,382.334
	c-0.098,0-0.194,0.029-0.275,0.084l-9.271,6.122l0.478-7.977c0.011-0.189-0.086-0.368-0.25-0.462
	c-5.029-2.895-8.408-8.316-8.408-14.534v-0.004c0-9.268,7.501-16.769,16.769-16.769l0,0h22.91c9.267,0,16.769,7.501,16.769,16.769
	v0.004c0,9.267-7.501,16.768-16.769,16.769H490.115z M180.804,249.068h189.958c3.219,0,5.821,2.602,5.821,5.819v35.555
	c-0.001,0.017-0.001,0.034,0,0.051v38.176c-0.001,0.017-0.001,0.034,0,0.051v0.236c-0.033,0.102-0.033,0.211,0,0.313v14.843
	c-0.001,0.016-0.001,0.033,0,0.049v1.646c-0.007,0.05-0.007,0.1,0,0.149v11.002c-0.002,0.025-0.002,0.05,0,0.075v11.609
	c0,3.217-2.602,5.82-5.821,5.821H189.951v-29.615l11.032,21.962c0.178,0.405,0.377,0.803,0.596,1.188l0.008,0.018
	c0.035,0.067,0.084,0.125,0.145,0.17c1.589,2.652,4.143,4.738,7.36,5.6c6.574,1.762,13.355-2.152,15.117-8.725l12.614-47.074h97.138
	c1.649,0,3.23-0.656,4.397-1.822c1.167-1.167,1.822-2.749,1.822-4.398v-0.002c0-1.649-0.656-3.23-1.822-4.397
	c-1.167-1.167-2.748-1.822-4.397-1.822h-93.806l3.615-13.486c0.422-1.578,0.201-3.261-0.616-4.676
	c-0.817-1.415-2.164-2.447-3.742-2.87c-0.082-0.022-0.177-0.048-0.261-0.07h94.811c1.649,0,3.23-0.656,4.397-1.822
	c1.166-1.167,1.822-2.748,1.822-4.398v-0.002c0-1.649-0.656-3.23-1.822-4.397c-1.167-1.167-2.748-1.822-4.397-1.822H172.166
	c0.282-0.153,0.564-0.307,0.835-0.482c2.852-1.85,4.798-4.807,5.368-8.158c0.001,0,0.001,0,0.002,0
	C179.432,257.13,179.936,254.167,180.804,249.068L180.804,249.068L180.804,249.068L180.804,249.068L180.804,249.068z
	 M486.846,361.585c-2.191,0-3.978,1.787-3.978,3.978c0,2.19,1.787,3.975,3.978,3.975c2.19,0,3.977-1.785,3.977-3.975
	C490.823,363.372,489.036,361.585,486.846,361.585z M500.614,361.585c-2.191,0-3.978,1.787-3.978,3.978
	c0,2.19,1.787,3.975,3.978,3.975c2.19,0,3.977-1.785,3.977-3.975C504.591,363.372,502.804,361.585,500.614,361.585z
	 M514.382,361.585c-2.19,0-3.978,1.787-3.978,3.978c0,2.19,1.788,3.975,3.978,3.975s3.975-1.785,3.975-3.975
	C518.357,363.372,516.573,361.585,514.382,361.585z M103.123,342.694v12.161l-3.93-0.18L103.123,342.694z M333.959,339.086h-76.084
	c-1.65,0-3.231,0.656-4.398,1.822c-1.166,1.167-1.82,2.748-1.82,4.397v0.002c0,1.649,0.654,3.231,1.82,4.398
	c1.167,1.166,2.748,1.822,4.398,1.822h76.084c1.65,0,3.231-0.656,4.398-1.822c1.166-1.167,1.822-2.749,1.822-4.398v-0.002
	c0-1.649-0.656-3.23-1.822-4.397C337.19,339.742,335.609,339.086,333.959,339.086z M206.222,317.984h6.65l-2.72,8.846
	C209.986,326.455,207.298,320.405,206.222,317.984z M223.218,284.443c-0.057,0.139-0.121,0.275-0.166,0.421l-2.055,6.693
	l-0.757-1.132c-1.263-1.887-3.833-2.394-5.72-1.132c-1.887,1.263-2.395,3.835-1.131,5.722l4.485,6.699l-1.177,3.829h-16.004
	c-2.28-5.131-3.287-7.398-5.339-12.016c-1.827-4.112-5.082-7.296-9.024-9.085H223.218L223.218,284.443z M126.77,282.832h-22.602
	c-0.712-0.04-1.423-0.043-2.122,0.025c-3.002,0.29-5.828,1.549-8.054,3.545v-31.515c0-3.217,2.602-5.819,5.821-5.819l0,0h32.956
	c-0.131,0.749-0.147,1.53-0.018,2.321c0.461,2.83,2.573,4.988,5.19,5.655l-4.388,25.788h-6.639
	c-0.027-0.005-0.054-0.007-0.082-0.006C126.812,282.826,126.791,282.828,126.77,282.832z M82.484,186.061h22.91
	c9.267,0,16.771,7.503,16.771,16.771v0.002c0,6.219-3.382,11.64-8.41,14.535c-0.164,0.094-0.261,0.274-0.25,0.462l0.477,7.976
	l-9.27-6.122c-0.082-0.054-0.178-0.082-0.275-0.082H82.484c-9.268,0-16.769-7.503-16.769-16.771v-0.002
	C65.715,193.564,73.216,186.061,82.484,186.061L82.484,186.061L82.484,186.061z M364.777,214.101H215.932
	c-3.217,0-5.819-2.601-5.819-5.819v-11.613c0.001-0.017,0.001-0.034,0-0.051v-11.004c0.011-0.058,0.011-0.118,0-0.176V168.76
	c0.001-0.017,0.001-0.034,0-0.051v-38.512c0.008-0.049,0.008-0.099,0-0.148v-35.52c0-3.217,2.602-5.821,5.819-5.821h156.555
	c-0.04,0.41-0.065,0.81-0.059,1.179c0.035,2.188,0.954,3.911,2.278,5.195c1.324,1.283,3.04,2.15,4.732,2.753
	c3.253,1.157,6.391,1.328,6.637,1.34c1.188,3.465,2.157,6.296,3.316,9.679c0.343,0.999,0.822,1.929,1.397,2.792H252.736
	c-1.649,0-3.232,0.656-4.397,1.822c-1.167,1.167-1.822,2.748-1.822,4.398c0,1.649,0.655,3.231,1.822,4.397
	c1.165,1.167,2.748,1.822,4.397,1.822h155.399l0.227,0.804c-0.259,0.03-3.979,0.461-6.326,0.733
	c-0.017,0.001-0.034,0.003-0.051,0.006c-0.767,0.089-1.162,0.135-2.056,0.239c-0.012,0-0.023,0-0.035,0.002
	c0,0-4.649,0.538-9.233,1.069c-5.648,0.652-10.51,4.293-12.727,9.529l-3.692,8.721H252.736c-1.648,0.001-3.23,0.655-4.395,1.821
	c-1.167,1.165-1.824,2.749-1.824,4.399c0,1.649,0.655,3.231,1.822,4.397c1.165,1.167,2.748,1.822,4.397,1.822h116.244l-4.572,10.806
	c-0.005,0.01-0.01,0.02-0.014,0.031l-9.703,22.923c0,0.001,0,0.002,0,0.002c-2.196,5.289-1.607,11.326,1.572,16.09
	C358.339,210.588,361.346,212.88,364.777,214.101L364.777,214.101z M486.885,214.101h-8.679l-1.56-13.519l14.19,3.055
	c0.626,0.135,1.249,0.203,1.871,0.24v4.405C492.706,211.499,490.102,214.101,486.885,214.101L486.885,214.101z M93.939,198.856
	c-2.19,0-3.978,1.787-3.978,3.977c0,2.19,1.788,3.975,3.978,3.975s3.977-1.785,3.977-3.975
	C97.916,200.643,96.129,198.856,93.939,198.856z M80.172,198.856c-2.191,0-3.978,1.787-3.978,3.977c0,2.19,1.787,3.975,3.978,3.975
	c2.19,0,3.977-1.785,3.977-3.975C84.15,200.643,82.363,198.856,80.172,198.856z M107.707,198.856c-2.19,0-3.977,1.787-3.977,3.977
	c0,2.19,1.787,3.975,3.977,3.975s3.975-1.785,3.975-3.975C111.682,200.643,109.897,198.856,107.707,198.856z M429.792,162.898
	l0.253,5.414c-1.685,0.138-5.737,0.47-9.722,0.796c-1.316,0.108-2.534,0.738-3.383,1.75c-0.848,1.012-1.256,2.322-1.133,3.637
	c0.284,3.021,0.66,7.03,0.963,10.252c0.318,3.368,3.208,5.919,6.59,5.815c2.909-0.088,5.824-0.178,5.89-0.18l1.861,0.4
	c0.019,0.404,0.165,3.483,0.283,5.986c0,0,0,0.001,0,0.002c0.059,1.236-0.847,2.293-2.077,2.426
	c-3.75,0.406-10.564,1.144-14.315,1.549c-1.23,0.134-2.343-0.706-2.552-1.928c-1.401-8.254-5.546-32.662-5.676-33.427
	C411.852,164.839,424.712,163.447,429.792,162.898L429.792,162.898L429.792,162.898z M386.972,180.989
	c0.56,4.841,1.816,15.701,1.852,16.01l-8.062-3.642L386.972,180.989L386.972,180.989z M252.736,178.728
	c-1.647,0-3.23,0.655-4.395,1.82c-1.167,1.166-1.824,2.75-1.824,4.4c0,1.649,0.655,3.231,1.822,4.397
	c1.166,1.167,2.749,1.822,4.397,1.822h76.087c1.649,0,3.231-0.655,4.397-1.822c1.167-1.167,1.82-2.748,1.82-4.397
	c0-1.649-0.654-3.232-1.82-4.398c-1.166-1.166-2.748-1.822-4.397-1.822H252.736z M432.41,88.708h54.475
	c3.217,0.001,5.821,2.604,5.821,5.821v61.163l-11.185-28.727c-2.108-5.416-7.223-8.785-12.696-8.946
	c-0.937-0.028-1.885,0.043-2.829,0.209l-9.887,1.142c0.122-0.488,0.192-0.993,0.192-1.504c0-1.65-0.656-3.231-1.823-4.398
	c-1.166-1.166-2.747-1.822-4.397-1.822h-16.39c-0.097,0-0.191,0.027-0.272,0.078l-5.148-15.606c2.478-1.079,4.218-3.548,4.218-6.418
	C432.49,89.362,432.456,89.033,432.41,88.708C432.41,88.708,432.41,88.708,432.41,88.708z"></path>
<path id="color_x5F_1" fill="#6a6a6a" d="M403.99,53.369c-0.511,0.002-1.037,0.028-1.577,0.082
	c-1.44,0.144-2.986,0.48-4.634,1.065c-6.696,2.374-13.069,9.067-17.873,16.185c-3.961,5.871-6.859,11.947-7.713,16.502h-156.26
	c-4.028,0-7.317,3.291-7.317,7.319v32.817c-0.749-0.866-1.525-1.699-2.313-2.518c-0.079-0.131-0.188-0.242-0.317-0.324
	c-3.957-4.053-8.385-7.51-13.144-10.333c-0.106-0.101-0.232-0.178-0.371-0.225c-5.441-3.179-11.304-5.536-17.387-7.012
	c-0.132-0.055-0.275-0.081-0.417-0.076c-0.491,0.019-0.899,0.398-0.954,0.885c-1.757,5.991-2.645,12.23-2.616,18.515
	c-0.035,0.151-0.034,0.308,0.002,0.458c0.065,5.558,0.86,11.146,2.403,16.624c0.013,0.124,0.05,0.245,0.107,0.356
	c0.955,3.314,2.191,6.584,3.71,9.782c-4.168,0.238-8.266,0.88-12.248,1.899c-0.132,0.006-0.26,0.038-0.379,0.094
	c-6.105,1.601-11.926,4.085-17.278,7.348c-0.364,0.159-0.6,0.519-0.6,0.916c0,0.22,0.073,0.433,0.206,0.607
	c3.017,5.525,6.837,10.607,11.35,15.059c0.033,0.039,0.068,0.077,0.107,0.111c4.005,3.932,8.563,7.356,13.577,10.166
	c0.093,0.075,0.2,0.134,0.314,0.172c4.49,2.482,9.339,4.477,14.514,5.864c1.52,0.408,3.042,0.741,4.564,1.034
	c0.107,0.041,0.221,0.063,0.336,0.066c5.658,1.058,11.309,1.332,16.833,0.896v10.573c0,4.028,3.289,7.317,7.317,7.317h165.143
	l4.491,3.359c0.173,0.129,0.384,0.199,0.599,0.199h16.891c1.489,0,2.874-0.773,3.656-2.041c0.291-0.471,0.483-0.987,0.575-1.517
	h79.597c4.028,0,7.319-3.289,7.319-7.317v-3.906c5.604-0.342,10.545-4.355,11.783-10.103c0.527-2.453,0.278-4.89-0.527-7.088
	c-0.001-0.002-11.255-29.024-11.255-29.024V94.522c0-4.028-3.291-7.319-7.319-7.319h-54.331c-0.557-1.572-1.623-2.907-3.002-3.802
	c0.32-1.559,1.07-5.969,0.34-10.663c-0.449-2.891-1.479-5.872-3.633-8.187c-2.061-2.217-5.184-3.715-9.48-3.946
	c-0.36-0.632-1.596-2.685-4.303-4.597C410.407,54.545,407.563,53.355,403.99,53.369L403.99,53.369z M404.451,55.342
	c2.916,0.07,5.159,1.086,6.871,2.295c2.74,1.936,4.001,4.366,4.001,4.366c0.167,0.324,0.497,0.53,0.861,0.54
	c4.181,0.11,6.828,1.449,8.613,3.368c1.784,1.918,2.711,4.496,3.121,7.133c0.593,3.82,0.088,7.642-0.237,9.476
	c-0.693-0.213-1.429-0.328-2.19-0.328c-1.091,0-2.126,0.248-3.064,0.669c-0.984-0.473-6.744-3.424-7.83-8.519
	c-0.098-0.459-0.507-0.791-0.977-0.791c-0.224,0-0.439,0.075-0.615,0.212c0,0-2.092,1.632-4.558,3.146
	c-1.233,0.758-2.559,1.481-3.716,1.945c-1.158,0.464-2.155,0.597-2.526,0.494c-0.392-0.109-0.781-0.502-1.124-1.274
	c-0.344-0.772-0.583-1.837-0.722-2.892c-0.278-2.112-0.182-4.159-0.182-4.159c0.001-0.017,0.001-0.033,0.001-0.049
	c0-0.54-0.437-0.988-0.978-0.999c-0.282-0.006-0.552,0.108-0.745,0.312l-16.217,17.104c-0.32,0.245-0.462,0.658-0.361,1.048
	c0,0.001,0,0.002,0,0.002c0.007,0.029,0.016,0.057,0.025,0.084c0.001,0.002,0.003,0.006,0.004,0.008c0,0.002,0,0.004,0,0.006
	c0.713,2.081,2.017,5.885,3.088,9.012c-1.2-0.14-3.087-0.438-5.052-1.137c-1.563-0.556-3.091-1.351-4.191-2.417
	c-1.1-1.066-1.797-2.353-1.826-4.144c-0.007-0.428,0.034-0.917,0.113-1.451c0.006-0.03,0.01-0.06,0.012-0.09
	c0.611-3.94,3.438-10.455,7.513-16.493c4.663-6.913,10.948-13.315,16.883-15.419c2.265-0.803,4.257-1.101,6.007-1.059
	L404.451,55.342L404.451,55.342z M398.288,73.366c0.015,0.812-0.052,1.003,0.089,2.076c0.154,1.168,0.405,2.381,0.876,3.443
	c0.471,1.061,1.22,2.055,2.415,2.387c1.217,0.339,2.474-0.028,3.804-0.561s2.728-1.304,4.018-2.097
	c1.969-1.209,2.906-1.962,3.616-2.497c2.02,5.605,7.961,8.347,8.657,8.653c0.32,0.252,0.763,0.284,1.116,0.08
	c0.777-0.42,1.663-0.659,2.612-0.659c2.569,0,4.711,1.749,5.322,4.122c0.01,0.089,0.032,0.175,0.065,0.258
	c0.074,0.363,0.115,0.737,0.115,1.122c0,2.359-1.473,4.358-3.551,5.143c-0.092,0.019-0.181,0.051-0.264,0.095
	c-0.531,0.171-1.098,0.264-1.687,0.264c-0.005,0-0.009,0-0.014,0c-0.548,0-0.999,0.45-0.999,0.999c0,0.548,0.45,0.999,0.999,0.999
	c0.005,0,0.009,0,0.014,0c0.517,0,1.024-0.052,1.512-0.152c0,0,8.325,25.267,8.33,25.291c0.056,5.792-5.438,11.333-12.462,12.145
	c-7.041,0.814-12.636-3.294-12.861-9.081c0.012-0.149-2.626-9.519-2.626-9.519c5.809-2.548,10.698-4.693,10.698-4.693
	c0.384-0.149,0.637-0.52,0.637-0.931c0-0.548-0.451-0.999-0.999-0.999c-0.153,0-0.304,0.034-0.44,0.102
	c0,0-11.842,5.193-12.112,5.312c-2.73,1.197-5.833,1.197-8.562-0.002s-4.832-3.484-5.798-6.303
	c-2.384-6.959-5.175-15.109-6.82-19.909L398.288,73.366L398.288,73.366z M215.932,89.201h156.015
	c-0.011,0.233-0.023,0.465-0.019,0.686c0.037,2.322,1.032,4.191,2.431,5.546c1.398,1.356,3.176,2.246,4.912,2.864
	c2.832,1.007,5.509,1.275,6.439,1.344c1.154,3.368,2.087,6.094,3.209,9.368c0.255,0.746,0.588,1.454,0.971,2.13H252.736
	c-1.781,0-3.491,0.708-4.75,1.968c-1.259,1.259-1.968,2.968-1.968,4.75s0.708,3.491,1.968,4.75c1.259,1.26,2.969,1.969,4.75,1.969
	h153.924c-0.996,0.115-13.981,1.617-16.056,1.857c-5.826,0.673-10.843,4.429-13.129,9.83c-1.308,3.093-1.977,4.673-3.562,8.418
	H252.736c-1.78,0-3.489,0.707-4.748,1.967c-1.259,1.258-1.97,2.969-1.97,4.751c0,1.783,0.708,3.491,1.968,4.75
	c1.259,1.26,2.969,1.969,4.75,1.969h115.489c-1.334,3.152-4.292,10.142-4.292,10.142l-9.703,22.923c0,0.002-0.001,0.004-0.002,0.006
	c-2.259,5.442-1.652,11.657,1.619,16.559c0.001,0,0.002,0,0.002,0c1.674,2.507,3.934,4.497,6.529,5.848H215.932
	c-2.946,0-5.32-2.372-5.32-5.32V94.522C210.613,91.575,212.986,89.2,215.932,89.201L215.932,89.201z M432.963,89.201h53.921
	c2.946,0,5.322,2.374,5.322,5.322v58.501l-10.221-26.247c-2.181-5.605-7.483-9.096-13.15-9.264
	c-0.967-0.029-1.944,0.043-2.918,0.214l-9.19,1.062c0.043-0.308,0.073-0.617,0.073-0.931c0-1.781-0.709-3.49-1.969-4.75
	c-1.259-1.259-2.968-1.968-4.75-1.968h-16.326l-4.873-14.771c2.431-1.243,4.107-3.768,4.107-6.676
	C432.989,89.526,432.974,89.363,432.963,89.201L432.963,89.201z M117.318,96.628c-0.547,0.009-0.991,0.465-0.983,1.013v7.69
	c0,0.005,0,0.01,0,0.014c0,0.548,0.45,1,0.999,1c0.547,0,0.999-0.451,0.999-1c0-0.004,0-0.009,0-0.014v-7.69
	c0-0.004,0-0.009,0-0.014c0-0.547-0.451-0.999-0.999-0.999C117.328,96.628,117.323,96.628,117.318,96.628z M414.086,98.079
	c-0.007-0.001-0.015-0.001-0.022-0.001c-0.548,0-0.999,0.451-0.999,0.999c0,0.092,0.013,0.184,0.038,0.272
	c0.428,1.601-0.51,3.226-2.111,3.656c-1.602,0.429-3.228-0.508-3.658-2.11c-0.109-0.445-0.511-0.76-0.97-0.76
	c-0.548,0-0.999,0.45-0.999,0.999c0,0.094,0.013,0.188,0.04,0.279c0.709,2.646,3.457,4.232,6.104,3.523
	c2.646-0.709,4.232-3.457,3.523-6.103C414.922,98.397,414.534,98.088,414.086,98.079z M104.143,102.093
	c-0.548,0-0.999,0.451-0.999,0.999c0,0.27,0.109,0.528,0.302,0.716l5.439,5.436c0.188,0.197,0.448,0.308,0.72,0.308
	c0.548,0,0.999-0.451,0.999-0.999c0-0.273-0.111-0.532-0.307-0.721l-5.439-5.436C104.671,102.202,104.413,102.093,104.143,102.093z
	 M130.495,102.093c-0.259,0.008-0.505,0.116-0.686,0.303l-5.438,5.436c-0.197,0.189-0.308,0.448-0.308,0.721
	c0,0.547,0.451,0.999,0.999,0.999c0.272,0,0.532-0.111,0.721-0.308l5.438-5.436c0.194-0.188,0.303-0.446,0.303-0.716
	c0-0.548-0.45-0.999-0.999-0.999C130.515,102.093,130.505,102.093,130.495,102.093z M176.832,109.535
	c4.92,1.385,9.673,3.36,14.141,5.901l-3.402,12.698L176.832,109.535z M175.084,110.503l10.757,18.631l-12.708-3.406
	C173.158,120.577,173.821,115.465,175.084,110.503z M252.736,113.136h138.562c1.223,1.425,2.748,2.586,4.504,3.357
	c3.095,1.359,6.595,1.403,9.727,0.168l1.666,5.917H252.736c-1.251,0-2.451-0.498-3.336-1.383c0,0-0.001,0-0.002,0
	c-0.886-0.886-1.383-2.085-1.383-3.338c0-1.252,0.497-2.451,1.383-3.337c0.001-0.001,0.002-0.002,0.002-0.002
	C250.285,113.632,251.484,113.136,252.736,113.136C252.736,113.136,252.736,113.136,252.736,113.136z M434.415,113.136h15.667
	c1.252,0,2.452,0.497,3.338,1.383c0.886,0.885,1.383,2.084,1.383,3.337c0,0.402-0.068,0.791-0.166,1.173l-17.608,2.035
	L434.415,113.136L434.415,113.136z M98.695,115.282c-0.005,0-0.01,0-0.015,0c-0.547,0-0.999,0.451-0.999,0.999
	c0,0.548,0.451,0.999,0.999,0.999c0.005,0,0.01,0,0.015,0h7.69c0.004,0,0.009,0,0.014,0c0.548,0,0.999-0.45,0.999-0.999
	c0-0.547-0.45-0.999-0.999-0.999c-0.005,0-0.01,0-0.014,0H98.695z M128.284,115.282c-0.005,0-0.01,0-0.015,0
	c-0.547,0-0.999,0.451-0.999,0.999c0,0.548,0.451,0.999,0.999,0.999c0.005,0,0.01,0,0.015,0h7.69c0.004,0,0.009,0,0.014,0
	c0.548,0,0.999-0.45,0.999-0.999c0-0.547-0.45-0.999-0.999-0.999c-0.005,0-0.01,0-0.014,0H128.284z M192.758,116.493
	c4.168,2.558,8.057,5.622,11.572,9.175l-5.764,21.511l-9.582-16.597L192.758,116.493L192.758,116.493z M468.788,119.504
	c4.89,0.14,9.45,3.148,11.337,7.998l11.804,30.314l-21.321,9.514l-13.299-29.449c-0.007-0.016-0.015-0.031-0.023-0.047
	c-0.204-0.393-0.39-0.801-0.554-1.225c-2.516-6.465,0.677-13.734,7.142-16.252c0.771-0.3,1.554-0.513,2.338-0.655l0.574-0.066
	c0.063-0.007,0.125-0.019,0.185-0.038C467.578,119.528,468.186,119.487,468.788,119.504
	C468.788,119.504,468.788,119.504,468.788,119.504z M459.664,120.459c-5.056,3.826-7.203,10.682-4.793,16.873
	c0.191,0.489,0.404,0.965,0.64,1.42l16.226,35.929l-2.113-0.375c-0.013-0.002-0.026-0.004-0.039-0.006l-37.408-6.639
	c-0.084-0.014-0.17-0.018-0.256-0.011c0,0-0.388,0.032-0.404,0.033l-0.213-4.47c1.072-0.185,1.849-1.188,1.731-2.282v-0.002
	c-0.132-1.221-0.345-3.185-0.476-4.405c-0.123-1.14-1.169-1.982-2.308-1.859c0,0-0.001,0-0.002,0
	c-0.396,0.043-1.712,0.185-2.286,0.248c-0.051-0.478-0.08-0.75-0.158-1.467c-0.09-0.835-0.509-1.602-1.165-2.128
	c-0.654-0.526-1.49-0.773-2.325-0.683c-3.681,0.399-11.134,1.206-14.816,1.604c-0.834,0.091-1.602,0.509-2.128,1.165
	c-0.525,0.653-0.77,1.491-0.68,2.325c0.077,0.718,0.108,0.991,0.16,1.469c-0.575,0.062-1.892,0.205-2.288,0.248
	c-1.139,0.124-1.981,1.172-1.858,2.309c0.133,1.221,0.345,3.187,0.476,4.407c0.118,1.095,1.093,1.906,2.179,1.858
	c0.222,1.305,4.227,24.881,5.612,33.04c0.339,1.987,2.186,3.384,4.19,3.166c3.75-0.406,10.564-1.143,14.315-1.549
	c2.004-0.217,3.508-1.977,3.412-3.989c-0.1-2.121-0.191-4.027-0.24-5.072l42.508,9.149l1.481,12.828h-69.484
	c-0.07-0.229-0.152-0.452-0.261-0.669c-1.237-2.46-2.656-5.283-3.498-6.957v-0.002c-0.566-1.128-1.449-2.067-2.538-2.704
	l-0.002-0.002c-3.129-1.83-10.354-6.054-10.354-6.054c-0.031-0.018-0.062-0.034-0.094-0.048l-0.061-0.028
	c-0.025-0.22-4.929-42.639-6.386-55.247c-0.8-6.919,4.143-13.154,11.063-13.954c1.081-0.125,5.674-0.656,6.108-0.706
	c0.926,9.811,10.714,16.512,22.127,15.193c11.482-1.327,20.735-10.157,21.013-20.18L459.664,120.459L459.664,120.459z
	 M442.259,122.47c-0.433,8.721-8.75,16.752-19.229,17.963c-10.551,1.219-19.128-4.788-19.913-13.439
	c1.674-0.194,4.63-0.535,4.98-0.575c0.826,6.517,7.415,10.917,15.001,10.04c7.653-0.884,13.849-6.692,14.208-13.417L442.259,122.47z
	 M109.572,123.016c-0.26,0.008-0.505,0.117-0.686,0.303l-5.439,5.436c-0.196,0.189-0.307,0.449-0.307,0.721
	c0,0.547,0.45,0.999,0.999,0.999c0.272,0,0.532-0.111,0.72-0.308l5.439-5.436c0.193-0.188,0.303-0.446,0.303-0.716
	c0-0.548-0.451-0.999-0.999-0.999C109.592,123.016,109.582,123.016,109.572,123.016z M125.067,123.016
	c-0.548,0-0.999,0.451-0.999,0.999c0,0.27,0.109,0.528,0.303,0.716l5.438,5.436c0.188,0.197,0.448,0.308,0.72,0.308
	c0.548,0,0.999-0.451,0.999-0.999c0-0.272-0.111-0.532-0.307-0.721l-5.438-5.436C125.594,123.126,125.337,123.016,125.067,123.016z
	 M117.318,126.219c-0.547,0.009-0.991,0.465-0.983,1.013v7.69c0,0.005,0,0.01,0,0.014c0,0.548,0.45,0.999,0.999,0.999
	c0.547,0,0.999-0.45,0.999-0.999c0-0.004,0-0.009,0-0.014v-7.69c0-0.005,0-0.009,0-0.014c0-0.547-0.451-0.999-0.999-0.999
	C117.328,126.219,117.323,126.219,117.318,126.219z M205.943,127.359c0.92,1.003,1.814,2.038,2.673,3.111v34.117l-8.637-14.962
	L205.943,127.359z M173.152,127.802l14.101,3.777l9.583,16.601l-21.525-5.769C173.992,137.593,173.291,132.689,173.152,127.802z
	 M386.858,129.48c-3.473,3.055-5.451,7.702-4.88,12.635c1.396,12.081,2.454,21.236,3.864,33.43l-19.666-7.462
	c0.164-0.386,11.758-27.778,13.138-31.04C380.775,133.589,383.508,130.913,386.858,129.48L386.858,129.48z M175.991,144.662
	l22.26,5.964l9.582,16.599l-24.073-6.451c-0.803-1.194-1.579-2.416-2.309-3.681c-0.554-0.96-1.078-1.928-1.574-2.903
	c-0.033-0.16-0.105-0.309-0.209-0.434C178.183,150.784,176.963,147.744,175.991,144.662L175.991,144.662z M252.736,146.678h120.331
	c-1.778,4.201-2.594,6.13-3.995,9.442H252.736c-1.251,0-2.451-0.498-3.336-1.383c0,0-0.001,0-0.002,0
	c-0.886-0.886-1.383-2.085-1.383-3.338c0-1.252,0.498-2.453,1.383-3.337c0.001-0.001,0.002-0.002,0.002-0.002
	C250.285,147.173,251.484,146.678,252.736,146.678L252.736,146.678L252.736,146.678z M424.531,152.623
	c0.308-0.033,0.618,0.059,0.86,0.254c0.242,0.195,0.396,0.476,0.429,0.786c0.077,0.717,0.107,0.989,0.158,1.467
	c-5.253,0.568-11.888,1.286-17.141,1.855c-0.052-0.477-0.083-0.749-0.16-1.467c0,0,0-0.001,0-0.002
	c-0.034-0.31,0.056-0.615,0.252-0.858c0.195-0.242,0.478-0.398,0.786-0.431C413.396,153.828,420.85,153.022,424.531,152.623
	L424.531,152.623z M178.271,155.423c0.463,0.895,0.941,1.786,1.45,2.669c0.779,1.35,1.608,2.654,2.469,3.926
	c0.049,0.117,0.119,0.224,0.207,0.315c3.304,4.823,7.177,9.066,11.471,12.701l-19.89-5.33l-7.306-12.654
	C170.449,156.146,174.329,155.594,178.271,155.423z M430.464,156.653c0.066-0.007,0.103,0.023,0.11,0.088
	c0.132,1.221,0.344,3.186,0.475,4.407c0,0.001,0,0.001,0,0.002c0.007,0.065-0.02,0.098-0.086,0.106c0,0,0,0.001,0,0.002
	c-0.11,0.012-0.512,0.054-0.637,0.068c-0.042-0.003-0.084-0.003-0.125,0c-0.071,0.005-0.141,0.017-0.209,0.037
	c-4.949,0.535-18.821,2.036-23.758,2.569c-0.01-0.001-0.02-0.001-0.03-0.002c-0.094-0.001-0.188,0.011-0.279,0.036
	c-0.128,0.013-0.537,0.058-0.649,0.07c-0.001,0-0.002,0-0.002,0c-0.065,0.007-0.099-0.021-0.106-0.086
	c-0.132-1.221-0.345-3.187-0.477-4.409c-0.006-0.065,0.021-0.101,0.086-0.108c0.542-0.058,2.266-0.246,3.13-0.339
	c0.101,0.004,0.202-0.006,0.299-0.032c5.342-0.577,13.421-1.451,18.786-2.033c0.129,0.011,0.259-0.004,0.383-0.043
	C428.224,156.895,429.929,156.711,430.464,156.653L430.464,156.653z M164.663,157.566l6.584,11.406l-20.776-5.567
	C154.936,160.9,159.7,158.931,164.663,157.566z M492.655,159.679c0,0,10.836,27.837,10.882,27.953
	c0.747,1.912,0.96,4.054,0.495,6.214c-1.101,5.114-5.624,8.596-10.653,8.563c-0.063-0.012-0.126-0.017-0.19-0.016
	c-0.024,0-0.048,0.002-0.072,0.004c-0.65-0.02-1.307-0.09-1.967-0.232l-61.64-13.268c-0.079-0.017-0.161-0.024-0.242-0.021
	c0,0-3.013,0.091-5.956,0.18c-2.606,0.08-4.806-1.862-5.05-4.458c-0.303-3.222-0.68-7.23-0.964-10.252
	c-0.086-0.916,0.198-1.828,0.788-2.532c0.591-0.706,1.44-1.145,2.358-1.22c4.179-0.342,8.851-0.724,10.199-0.835
	c0.001,0,0.003,0,0.004,0c0.172-0.014,1.288-0.106,1.305-0.107l41.299,7.327l10.225,1.814c0.057,0.01,0.116,0.016,0.174,0.016
	c0.548,0,1-0.451,1-1c0-0.482-0.35-0.9-0.825-0.985l-9.705-1.72l-2.69-5.956L492.655,159.679L492.655,159.679z M185.561,163.325
	l23.054,6.175v12.698C199.721,177.963,191.752,171.601,185.561,163.325z M429.318,163.444l0.209,4.403
	c-1.944,0.159-5.456,0.446-9.245,0.757c-1.449,0.119-2.79,0.813-3.723,1.928c-0.934,1.113-1.384,2.556-1.248,4.002
	c0.284,3.022,0.662,7.03,0.965,10.252c0.342,3.627,3.461,6.379,7.101,6.267c2.88-0.087,5.71-0.174,5.831-0.177l1.423,0.306
	c0.035,0.726,0.155,3.261,0.266,5.603c0.046,0.977-0.66,1.803-1.633,1.908c-3.749,0.407-10.566,1.144-14.317,1.549
	c-0.972,0.105-1.838-0.549-2.004-1.514v-0.002c-1.379-8.127-5.337-31.419-5.59-32.905
	C412.577,165.255,424.093,164.009,429.318,163.444L429.318,163.444L429.318,163.444z M149.951,165.334l20.784,5.57l-11.395,6.578
	C155.715,173.822,152.566,169.738,149.951,165.334L149.951,165.334z M365.398,169.922l20.703,7.857
	c0.052,0.444,0.102,0.877,0.151,1.301l-6.631,13.203l-3.484-1.574c-0.121-0.057-0.253-0.089-0.387-0.094
	c-0.014-0.001-0.028-0.001-0.042-0.001c-0.548,0-0.999,0.451-0.999,0.999c0,0.399,0.238,0.76,0.604,0.918l4.333,1.957
	c0.01,0.005,0.022,0.011,0.033,0.016l9.855,4.452c0.056,0.033,7.201,4.21,10.315,6.032c0.757,0.441,1.369,1.094,1.762,1.877
	c0.841,1.672,2.261,4.498,3.498,6.958c0.358,0.713,0.322,1.56-0.098,2.24c-0.419,0.679-1.155,1.09-1.955,1.09h-16.56l-4.491-3.359
	c-0.173-0.129-0.384-0.199-0.599-0.199h-10.889c-5.228,0-10.107-2.609-13.01-6.957c-2.902-4.349-3.44-9.856-1.435-14.683
	l-0.004,0.006L365.398,169.922L365.398,169.922z M173.461,171.633l18.514,4.961l-19.297,11.142
	c-4.343-2.474-8.306-5.445-11.861-8.803L173.461,171.633z M194.705,177.325l3.193,0.857c3.381,2.427,6.973,4.507,10.717,6.222v0.54
	l-16.971,9.797c-1.415-0.277-2.831-0.587-4.245-0.966c-4.48-1.201-8.701-2.873-12.651-4.928L194.705,177.325z M252.736,178.221
	c-1.78,0-3.489,0.707-4.748,1.967c-1.259,1.258-1.97,2.969-1.97,4.751s0.708,3.491,1.968,4.75c1.259,1.26,2.969,1.969,4.75,1.969
	h76.087c1.781,0,3.49-0.709,4.75-1.969c1.259-1.259,1.966-2.968,1.966-4.75c0-1.781-0.706-3.491-1.966-4.749
	c-1.26-1.26-2.969-1.969-4.75-1.969H252.736L252.736,178.221z M252.736,180.219h76.087c1.252,0,2.452,0.497,3.338,1.383
	c0.885,0.884,1.38,2.084,1.38,3.337c0,1.253-0.495,2.452-1.38,3.338c-0.886,0.886-2.085,1.383-3.338,1.383h-76.087
	c-1.251,0-2.451-0.498-3.336-1.383c0,0-0.001,0-0.002,0c-0.886-0.886-1.383-2.085-1.383-3.338s0.498-2.453,1.383-3.337
	c0.001-0.001,0.002-0.002,0.002-0.002C250.285,180.714,251.484,180.219,252.736,180.219L252.736,180.219L252.736,180.219z
	 M386.669,182.7c0.436,3.773,1.498,12.952,1.558,13.474l-6.785-3.066L386.669,182.7z M82.484,184.556
	c-10.077,0-18.267,8.191-18.267,18.269v0.002c0,10.077,8.19,18.269,18.267,18.269h21.656l9.853,6.505
	c0.163,0.108,0.355,0.165,0.549,0.165c0.548,0,1-0.45,1-0.999c0-0.02-0.001-0.039-0.002-0.059l-0.507-8.453
	c5.158-3.229,8.631-8.906,8.631-15.428v-0.002c0-10.078-8.192-18.269-18.269-18.269L82.484,184.556L82.484,184.556z M82.484,186.553
	h22.91c8.997,0,16.271,7.273,16.271,16.271v0.002c0,6.038-3.282,11.293-8.16,14.102c-0.328,0.189-0.521,0.548-0.497,0.927
	l0.419,6.978l-8.44-5.571c-0.163-0.108-0.355-0.165-0.549-0.164H82.484c-8.997,0-16.269-7.274-16.269-16.271v-0.002
	C66.214,193.826,73.487,186.553,82.484,186.553z M208.615,187.251v8.447c-4.56,0.373-9.212,0.241-13.883-0.431L208.615,187.251z
	 M80.172,198.349c-2.461,0-4.478,2.017-4.478,4.478c0,2.46,2.017,4.475,4.478,4.475c2.46,0,4.477-2.015,4.477-4.475
	C84.649,200.365,82.632,198.349,80.172,198.349z M93.939,198.349c-2.461,0-4.478,2.017-4.478,4.478c0,2.46,2.017,4.475,4.478,4.475
	c2.46,0,4.477-2.015,4.477-4.475C98.415,200.365,96.399,198.349,93.939,198.349z M107.707,198.349c-2.461,0-4.477,2.017-4.477,4.478
	c0,2.46,2.016,4.475,4.477,4.475c2.46,0,4.475-2.015,4.475-4.475C112.182,200.365,110.167,198.349,107.707,198.349z M80.172,200.346
	c1.38,0,2.479,1.099,2.479,2.48c0,1.38-1.099,2.477-2.479,2.477c-1.381,0-2.48-1.097-2.48-2.477
	C77.692,201.445,78.791,200.346,80.172,200.346z M93.939,200.346c1.38,0,2.479,1.099,2.479,2.48c0,1.38-1.099,2.477-2.479,2.477
	c-1.381,0-2.48-1.097-2.48-2.477C91.459,201.445,92.557,200.346,93.939,200.346z M107.707,200.346c1.381,0,2.477,1.099,2.477,2.48
	c0,1.38-1.096,2.477-2.477,2.477s-2.479-1.097-2.479-2.477C105.228,201.445,106.326,200.346,107.707,200.346z M477.221,201.21
	l13.509,2.907c0.493,0.106,0.986,0.175,1.477,0.222v3.935c0,2.946-2.375,5.32-5.322,5.32h-8.233L477.221,201.21L477.221,201.21z
	 M165.492,205.588c-11.559,0.487-20.558,5.452-26.231,15.259c-6.213,2.159-9.8,8.735-8.045,15.134
	c1.329,4.842,2.499,9.106,2.626,9.566c-0.489,0.605-0.883,1.285-1.167,2.016H99.813c-4.029,0-7.319,3.289-7.319,7.317v32.322
	c-1.32,1.486-2.362,3.26-2.994,5.275c-0.104,0.328-19.325,69.851-19.325,69.851c-0.001,0.002-0.001,0.005-0.002,0.008
	c-0.393,1.232-0.605,2.546-0.605,3.905c0,7.075,5.764,12.84,12.84,12.84h69.396c2.308,0,4.428-1.204,5.636-3.129h213.323
	c4.029,0,7.319-3.291,7.319-7.319V358.06c5.53,0.436,11.186,0.16,16.853-0.9c0.107-0.003,0.212-0.024,0.313-0.06
	c1.523-0.293,3.047-0.626,4.568-1.034c5.18-1.388,10.032-3.387,14.525-5.872c0.111-0.037,0.215-0.093,0.306-0.166
	c4.948-2.772,9.444-6.147,13.41-10.014c0.18-0.093,0.327-0.239,0.421-0.417c4.448-4.417,8.222-9.445,11.205-14.909
	c0.13-0.174,0.2-0.384,0.2-0.6c0-0.397-0.236-0.757-0.6-0.916c-5.349-3.262-11.166-5.744-17.268-7.345
	c-0.125-0.061-0.262-0.096-0.402-0.101c-3.977-1.017-8.072-1.658-12.235-1.895c1.512-3.181,2.742-6.434,3.695-9.73
	c0.091-0.148,0.142-0.318,0.147-0.491c1.545-5.51,2.335-11.132,2.385-16.722c0.003-0.047,0.002-0.094-0.002-0.141
	c0.043-6.332-0.848-12.62-2.618-18.653c-0.057-0.499-0.482-0.882-0.985-0.885c-0.137-0.002-0.274,0.026-0.4,0.08
	c-6.082,1.476-11.943,3.835-17.384,7.014c-0.133,0.046-0.256,0.12-0.359,0.217c-4.764,2.826-9.197,6.288-13.158,10.346
	c-0.117,0.078-0.217,0.18-0.293,0.299c-0.792,0.822-1.573,1.658-2.325,2.528V254.88c0-4.028-3.29-7.317-7.319-7.317H183.919
	c2.796-1.542,6.96-4.3,10.33-8.535l0.002-0.002c1.129-1.411,1.449-3.308,0.849-5.012c-0.6-1.705-2.04-2.981-3.804-3.373h-0.002
	c-1.456-0.348-2.04-0.473-2.778-0.639c1.531-2.314,2.822-4.787,3.68-7.531c0,0,0.001-0.001,0.002-0.002
	c0.692-2.231,0.276-4.66-1.116-6.536c0-0.001,0-0.002,0-0.002c-1.392-1.876-3.596-2.974-5.931-2.959h-0.004
	c-6.543,0.015-12.927,0.524-18.374,2.53c1.011-1.934,1.859-3.941,2.17-6.159c0.001-0.007,0.002-0.013,0.002-0.02
	c0.119-0.973-0.199-1.95-0.862-2.669C167.419,205.938,166.47,205.547,165.492,205.588L165.492,205.588L165.492,205.588z
	 M165.576,207.584c0.394-0.016,0.774,0.141,1.042,0.429c0.266,0.289,0.391,0.675,0.346,1.063c-0.391,2.757-1.577,5.292-3.174,7.767
	c-0.104,0.161-0.159,0.349-0.159,0.54c0,0.548,0.451,0.999,0.999,0.999c0.154,0,0.306-0.035,0.444-0.104
	c5.399-2.694,12.591-3.291,20.083-3.308c0.002,0,0.004,0,0.006,0c1.701-0.012,3.303,0.787,4.317,2.153
	c1.014,1.366,1.315,3.131,0.812,4.756c-0.943,3.01-2.349,5.721-4.157,8.195c-0.125,0.171-0.193,0.378-0.193,0.589
	c0,0.466,0.328,0.874,0.783,0.975c0,0,1.961,0.434,4.122,0.95c0.006,0.002,0.011,0.003,0.016,0.004
	c1.094,0.243,1.983,1.029,2.354,2.085c0.373,1.057,0.174,2.227-0.526,3.102c-0.001,0-0.001,0.001-0.002,0.002
	c-3.697,4.645-8.461,7.425-10.932,8.661c0.399-2.342,1.367-8.047,1.367-8.047c0.089-0.527-0.261-1.038-0.784-1.145l-33.725-6.877
	c-0.065-0.014-0.132-0.021-0.199-0.022c-0.373,0-0.716,0.208-0.888,0.538l-6.252,12.044c-0.903-0.2-1.858-0.237-2.823-0.08
	c-1.095,0.178-2.09,0.593-2.957,1.177c-0.319-1.165-1.162-4.238-2.354-8.58c-1.519-5.537,1.632-11.25,7.124-12.922
	c0.245-0.074,0.452-0.24,0.579-0.462c5.36-9.437,13.592-14.015,24.732-14.484L165.576,207.584L165.576,207.584z M148.954,232.481
	l32.039,6.533c-0.063,0.369-1.023,6.012-1.498,8.805c-0.039,0.109-0.059,0.224-0.059,0.34c-0.004,0.024-0.008,0.05-0.011,0.074
	c-0.037,0.104-0.056,0.213-0.057,0.323c-0.826,4.851-1.396,8.205-2.475,14.548c-0.501,2.938-2.206,5.531-4.707,7.153
	c-2.501,1.621-5.564,2.122-8.451,1.379c-0.29-0.075-12.81-3.297-12.81-3.297c-0.082-0.021-0.165-0.031-0.249-0.031
	c-0.548,0-1,0.45-1,0.999c0,0.454,0.311,0.855,0.751,0.968c0,0,5.173,1.329,11.325,2.912c0,0-1.01,10.069-1.01,10.072
	c-0.005,0.064,0.476,1.872-0.108,3.283c-0.586,1.418-2.105,2.983-7.119,2.983c-6.605,0-11.308-1.745-14.366-3.471
	c-2.256-1.272-3.569-2.492-4.109-3.049l4.298-25.26c0.501,0.022,1.012-0.006,1.526-0.089c0.499-0.061,0.879-0.489,0.879-0.992
	c0-0.548-0.45-0.999-0.999-0.999c-0.067,0-0.135,0.006-0.201,0.02c-0.582,0.095-1.158,0.093-1.711,0.01
	c-0.09-0.031-0.184-0.049-0.279-0.053c-2.173-0.442-3.945-2.176-4.325-4.503c-0.121-0.741-0.089-1.472,0.074-2.159
	c0.043-0.092,0.071-0.191,0.084-0.293c0.223-0.751,0.601-1.444,1.109-2.031c0.131-0.086,0.241-0.201,0.32-0.338
	c0.781-0.762,1.796-1.302,2.959-1.492c0.932-0.152,1.841-0.061,2.673,0.227c0.004,0.001,0.008,0.003,0.011,0.004
	c0.027,0.009,0.055,0.018,0.082,0.025c0.001,0,0.002,0,0.002,0c0.004,0.001,0.008,0.003,0.012,0.004
	c0.028,0.007,0.056,0.012,0.084,0.016c0.472,0.076,0.936-0.198,1.099-0.648L148.954,232.481L148.954,232.481z M99.813,249.56h32.39
	c-0.058,0.621-0.048,1.257,0.057,1.902c0.467,2.867,2.522,5.087,5.117,5.925l-4.245,24.938h-28.992
	c-0.719-0.037-1.435-0.039-2.14,0.03c-2.746,0.266-5.348,1.316-7.508,2.98V254.88C94.491,251.933,96.864,249.56,99.813,249.56
	L99.813,249.56L99.813,249.56z M181.223,249.56h189.54c2.948,0,5.322,2.372,5.322,5.32v113.752c0,2.947-2.373,5.322-5.322,5.322
	H216.563c3.85-1.368,6.992-4.539,8.127-8.772l12.516-46.704h96.753c1.782,0,3.493-0.709,4.752-1.969
	c1.26-1.26,1.967-2.969,1.967-4.75v-0.002c0-1.782-0.707-3.491-1.967-4.75c-1.259-1.259-2.97-1.969-4.752-1.969h-93.154
	l3.445-12.855c0.456-1.705,0.218-3.525-0.665-5.054v-0.002c-0.512-0.888-1.223-1.63-2.059-2.191h92.433
	c1.782,0,3.493-0.708,4.752-1.968c1.259-1.259,1.967-2.968,1.967-4.75v-0.002c0-1.782-0.707-3.491-1.967-4.75
	c-1.259-1.259-2.97-1.969-4.752-1.969H173.875c2.634-1.938,4.436-4.814,4.988-8.056c1.03-6.052,1.498-8.809,2.36-13.88
	L181.223,249.56L181.223,249.56z M152.432,256.682c-0.51,0.008-0.937,0.405-0.981,0.914c-0.274,2.726,1.734,5.182,4.46,5.455
	c2.726,0.276,5.182-1.734,5.456-4.459c0.003-0.035,0.005-0.07,0.005-0.105c0-0.548-0.45-0.999-0.999-0.999
	c-0.512,0-0.946,0.395-0.995,0.904c-0.166,1.65-1.617,2.838-3.267,2.671c-1.649-0.166-2.839-1.619-2.673-3.269
	c0.004-0.038,0.007-0.076,0.007-0.114c0-0.547-0.451-0.999-1-0.999C152.442,256.682,152.437,256.682,152.432,256.682z
	 M409.865,269.895l-10.737,18.598l-3.404-12.7C400.191,273.253,404.944,271.28,409.865,269.895z M411.612,270.863
	c1.263,4.961,1.926,10.074,1.952,15.224l-12.708,3.406L411.612,270.863L411.612,270.863z M467.751,272.821
	c-0.546,0.008-0.99,0.464-0.983,1.012v7.691c0,0.004,0,0.009,0,0.014c0,0.547,0.45,0.999,0.999,0.999s0.999-0.451,0.999-0.999
	c0-0.005,0-0.01,0-0.014v-7.691c0-0.004,0-0.009,0-0.013c0-0.548-0.45-0.999-0.999-0.999
	C467.762,272.821,467.757,272.821,467.751,272.821z M169.803,273.493h164.155c1.253,0,2.452,0.497,3.338,1.383
	c0.886,0.886,1.383,2.085,1.383,3.338v0.002c0,1.252-0.497,2.452-1.383,3.338c-0.886,0.886-2.084,1.383-3.338,1.383h-98.473
	c-2.29-0.614-4.668-1.251-6.537-1.752c-0.679-0.182-1.367-0.222-2.028-0.135c-1.322,0.173-2.53,0.857-3.378,1.887h-39.969
	c-1.506-0.395-3.073-0.613-4.676-0.613c-0.081,0-16.054,0-16.054,0l0.87-8.659c2.033,0.44,4.12,0.381,6.091-0.171V273.493
	L169.803,273.493z M393.939,276.851l3.774,14.09l-9.581,16.595l-5.765-21.513C385.882,282.471,389.772,279.408,393.939,276.851
	L393.939,276.851z M454.576,278.285c-0.547,0.002-0.997,0.452-0.997,0.999c0,0.27,0.109,0.528,0.303,0.716l5.434,5.437
	c0.188,0.187,0.442,0.293,0.707,0.293c0.548,0,1-0.451,1-1c0-0.265-0.106-0.518-0.293-0.706l-5.436-5.436
	C455.106,278.393,454.847,278.285,454.576,278.285L454.576,278.285z M480.927,278.285c-0.26,0.008-0.506,0.117-0.687,0.303
	l-5.436,5.436c-0.187,0.188-0.293,0.441-0.293,0.706c0,0.548,0.451,1,1,1c0.265,0,0.519-0.106,0.707-0.293l5.434-5.437
	c0.194-0.188,0.303-0.446,0.303-0.716c0-0.548-0.45-0.999-0.999-0.999C480.946,278.285,480.937,278.285,480.927,278.285
	L480.927,278.285z M227.795,283.01c0.212,0.014,0.424,0.048,0.636,0.105c1.876,0.503,4.263,1.143,6.56,1.758
	c0.062,0.023,0.127,0.04,0.192,0.051c1.343,0.36,2.624,0.704,3.839,1.03c1.195,0.321,2.214,1.101,2.833,2.171
	c0.618,1.072,0.786,2.346,0.465,3.541l-5.054,18.862l-18.944-5.182l1.054-3.426c0.088-0.287,0.042-0.598-0.125-0.848l-4.617-6.898
	c-0.813-1.214-0.493-2.831,0.719-3.643c1.214-0.812,2.831-0.49,3.643,0.722l1.34,2.002c0.185,0.277,0.496,0.442,0.83,0.442
	c0.437,0,0.826-0.288,0.955-0.706l2.364-7.694C224.937,283.827,226.32,282.911,227.795,283.01L227.795,283.01L227.795,283.01z
	 M103.339,284.285c0.092,0.026,0.837,0.037,0.837,0.037c0.986,0.064,1.98,0.231,2.965,0.54c6.618,2.08,10.29,9.119,8.21,15.737
	c0,0.002-0.001,0.004-0.002,0.006c-0.03,0.099-17.551,53.5-17.551,53.5s-3.085-0.143-4.725-0.218
	c-0.264-0.012-0.522,0.081-0.718,0.26c-0.195,0.178-0.312,0.426-0.324,0.691c0,0,0,0.001-0.001,0.001
	c-0.012,0.265,0.082,0.523,0.261,0.719c0.178,0.196,0.427,0.313,0.692,0.325c5.987,0.275,36.89,1.693,37.131,1.704
	c-1.023,0.577-1.978,1.283-2.823,2.128c-2.454,2.454-3.833,5.783-3.833,9.254v8.113H82.408c-5.996,0-10.843-4.847-10.843-10.842
	c0-1.155,0.181-2.263,0.513-3.305c0.004-0.012,0.008-0.024,0.012-0.037c0,0,19.226-69.541,19.315-69.823
	C93.087,287.722,98.014,284.299,103.339,284.285L103.339,284.285L103.339,284.285z M110.773,284.322h15.068v71.069l-21.22-0.974
	V339.72c0,0,12.602-38.407,12.638-38.521l0.002-0.006C119.32,294.629,116.457,287.683,110.773,284.322L110.773,284.322z
	 M127.838,284.322h5.733c0.416,0.457,1.769,1.877,4.596,3.473c3.322,1.875,8.388,3.727,15.346,3.727
	c5.472,0,8.062-2.033,8.966-4.215c0.46-1.113,0.506-2.183,0.44-2.985h6.941v89.632h-11.593c0.468-1.979,0.028-4.095-1.279-5.716
	c-3.098-3.843-6.369-7.898-8.076-10.017c-0.944-1.17-2.344-1.879-3.843-1.948c-4.745-0.217-17.231-0.792-17.231-0.792
	L127.838,284.322L127.838,284.322z M171.859,284.322h6.268c5.714,0,10.325,4.613,10.325,10.327v79.305h-16.594V284.322z
	 M188.349,284.935h34.157l-1.679,5.463l-0.172-0.258c-1.413-2.11-4.303-2.683-6.414-1.269c-2.111,1.413-2.683,4.303-1.267,6.414
	l4.352,6.502l-0.999,3.25h-15.309c-2.151-4.841-3.207-7.216-5.209-11.721h0.002C194.222,289.742,191.579,286.855,188.349,284.935
	L188.349,284.935L188.349,284.935z M187.657,286.845c2.732,1.711,4.964,4.213,6.328,7.284c2.079,4.679,8.977,20.2,10.489,23.601
	c0.027,0.104,0.07,0.202,0.129,0.292c1.365,3.073,4.515,10.164,4.57,10.287l-2.673,8.692c-0.029,0.096-0.044,0.195-0.044,0.294
	c0,0.548,0.45,1,0.999,1c0.437,0,0.827-0.288,0.955-0.706l9.325-30.334l19.014,5.203l-13.989,52.206
	c-1.552,5.79-7.489,9.218-13.281,7.667c-2.894-0.775-5.192-2.65-6.581-5.055c-0.001-0.001-0.002-0.003-0.002-0.004
	c-0.263-0.448-12.446-24.779-12.446-24.779V294.65C190.45,291.69,189.402,288.972,187.657,286.845L187.657,286.845z
	 M380.754,287.717l5.966,22.268l-8.638,14.962v-34.118C378.941,289.755,379.834,288.72,380.754,287.717L380.754,287.717z
	 M413.544,288.159c-0.138,4.888-0.841,9.792-2.161,14.611l-21.523,5.766l9.584-16.599L413.544,288.159L413.544,288.159z
	 M449.128,291.475c-0.005,0-0.009,0-0.014,0c-0.548,0-0.999,0.451-0.999,0.999c0,0.548,0.45,0.999,0.999,0.999
	c0.005,0,0.009,0,0.014,0h7.688c0.005,0,0.01,0,0.014,0c0.548,0,0.999-0.45,0.999-0.999c0-0.547-0.45-0.999-0.999-0.999
	c-0.004,0-0.009,0-0.014,0H449.128z M478.719,291.475c-0.005,0-0.01,0-0.014,0c-0.548,0-0.999,0.451-0.999,0.999
	c0,0.548,0.45,0.999,0.999,0.999c0.004,0,0.009,0,0.014,0h7.688c0.005,0,0.01,0,0.014,0c0.548,0,0.999-0.45,0.999-0.999
	c0-0.547-0.45-0.999-0.999-0.999c-0.004,0-0.009,0-0.014,0H478.719z M475.5,299.207c0,0-0.001,0-0.002,0
	c-0.547,0-0.999,0.45-0.999,0.999c0,0.271,0.11,0.529,0.305,0.717l5.436,5.437c0.189,0.196,0.449,0.307,0.721,0.307
	c0.547,0,0.999-0.45,0.999-0.999c0-0.272-0.111-0.532-0.308-0.72l-5.434-5.437C476.03,299.317,475.77,299.207,475.5,299.207
	L475.5,299.207z M460.004,299.209c-0.26,0.007-0.506,0.116-0.687,0.302l-5.434,5.437c-0.197,0.188-0.308,0.448-0.308,0.72
	c0,0.548,0.451,0.999,1,0.999c0.272,0,0.531-0.111,0.72-0.307l5.436-5.437c0.194-0.188,0.303-0.446,0.303-0.716
	c0-0.547-0.45-0.999-0.999-0.999C460.025,299.208,460.014,299.208,460.004,299.209z M467.751,302.41
	c-0.541,0.008-0.983,0.456-0.983,0.999c0,0.005,0,0.01,0,0.015v7.691c0,0.004,0,0.009,0,0.014c0,0.547,0.45,0.999,0.999,0.999
	s0.999-0.451,0.999-0.999c0-0.005,0-0.01,0-0.014v-7.691c0-0.005,0-0.01,0-0.015c0-0.548-0.45-0.999-0.999-0.999
	C467.762,302.41,467.757,302.41,467.751,302.41z M410.706,305.02c-0.984,3.122-2.222,6.201-3.733,9.21
	c-0.038,0.061-0.07,0.125-0.094,0.193c-0.515,1.017-1.056,2.028-1.633,3.027c-0.73,1.265-1.506,2.487-2.309,3.682l-24.073,6.453
	l9.584-16.601L410.706,305.02z M201.905,307.036h13.809l-2.903,9.443h-6.708C204.899,313.769,203.592,310.831,201.905,307.036z
	 M240.271,307.036h93.688c1.253,0,2.452,0.497,3.338,1.382c0.886,0.886,1.383,2.085,1.383,3.338v0.002
	c0,1.251-0.497,2.452-1.383,3.338s-2.084,1.383-3.338,1.383H237.74L240.271,307.036L240.271,307.036z M408.423,315.782
	c3.943,0.172,7.824,0.722,11.601,1.625l-7.303,12.655l-19.892,5.33c4.302-3.642,8.183-7.892,11.492-12.729
	c0.07-0.078,0.127-0.166,0.17-0.262c0.866-1.279,1.7-2.593,2.485-3.952C407.484,317.568,407.961,316.677,408.423,315.782
	L408.423,315.782z M422.034,317.924c4.964,1.364,9.729,3.335,14.194,5.841l-20.782,5.567L422.034,317.924z M206.99,318.477h5.207
	l-1.48,4.816c0,0.001,0,0.001,0,0.002c-0.008,0.022-0.015,0.044-0.022,0.066l-0.628,2.041
	C209.812,324.828,207.757,320.202,206.99,318.477L206.99,318.477z M401.135,323.683c-6.189,8.276-14.159,14.636-23.054,18.873
	v-12.696L401.135,323.683z M436.743,325.694c-2.616,4.403-5.765,8.486-9.39,12.145l-11.39-6.578L436.743,325.694z M413.235,331.993
	l12.642,7.299c-3.554,3.358-7.517,6.328-11.857,8.802l-19.3-11.14L413.235,331.993z M391.992,337.685l19.958,11.521
	c-3.949,2.056-8.173,3.729-12.655,4.93c-1.412,0.379-2.827,0.689-4.241,0.966l-16.973-9.799v-0.54
	c3.743-1.716,7.333-3.794,10.714-6.221L391.992,337.685L391.992,337.685z M257.874,338.579c-1.782,0-3.491,0.708-4.75,1.968
	c-1.259,1.259-1.967,2.968-1.967,4.75v0.002c0,1.781,0.706,3.491,1.967,4.75c1.259,1.259,2.968,1.969,4.75,1.969h76.084
	c1.782,0,3.493-0.709,4.752-1.969c1.26-1.259,1.967-2.969,1.967-4.75v-0.002c0-1.782-0.707-3.491-1.967-4.75
	c-1.259-1.259-2.97-1.968-4.752-1.968H257.874z M257.874,340.577h76.084c1.253,0,2.452,0.497,3.338,1.382
	c0.886,0.886,1.383,2.085,1.383,3.338v0.002c0,1.251-0.497,2.452-1.383,3.338c-0.886,0.886-2.084,1.383-3.338,1.383h-76.084
	c-1.253,0-2.452-0.497-3.338-1.383c-0.886-0.886-1.381-2.086-1.381-3.338v-0.002c0-1.252,0.495-2.452,1.381-3.338
	C255.422,341.074,256.621,340.577,257.874,340.577L257.874,340.577z M102.623,345.81v8.515l-2.753-0.127L102.623,345.81
	L102.623,345.81z M190.45,346.942l10.085,20.083c0.183,0.413,0.784,1.463,0.888,1.543c1.496,2.418,3.757,4.377,6.59,5.385H190.45
	L190.45,346.942L190.45,346.942z M489.159,347.287c-10.077,0-18.267,8.19-18.267,18.267v0.004c0,6.524,3.47,12.2,8.631,15.429
	l-0.507,8.453c-0.001,0.019-0.002,0.039-0.002,0.059c0,0.548,0.45,0.999,0.999,0.999c0.196,0,0.387-0.057,0.55-0.165l9.851-6.508
	h21.656c10.077,0,18.267-8.189,18.267-18.267v-0.004c0-10.077-8.19-18.267-18.267-18.267H489.159L489.159,347.287z M378.081,347.609
	l13.887,8.017c-4.673,0.672-9.325,0.802-13.887,0.429V347.609z M489.159,349.284h22.91c8.997,0,16.269,7.272,16.269,16.269v0.004
	c0,8.998-7.272,16.269-16.269,16.269h-21.954c-0.196,0.001-0.387,0.058-0.55,0.166l-8.437,5.572l0.419-6.98
	c0.022-0.378-0.172-0.736-0.499-0.924c-4.879-2.81-8.158-8.064-8.158-14.103v-0.004C472.89,356.556,480.161,349.284,489.159,349.284
	L489.159,349.284z M136.543,357.882h0.006c3.605,0.166,6.034,0.278,8.43,0.388c0.929,0.043,1.795,0.481,2.379,1.206
	c1.709,2.12,4.979,6.174,8.076,10.018c1.12,1.388,1.347,3.287,0.593,4.9c-0.041,0.059-0.075,0.123-0.102,0.189
	c-0.803,1.533-2.382,2.501-4.121,2.501h-26.347v-8.113c0-2.941,1.168-5.76,3.248-7.839
	C130.783,359.051,133.605,357.883,136.543,357.882L136.543,357.882L136.543,357.882z M486.846,361.079
	c-2.461,0-4.478,2.017-4.478,4.477c0,2.461,2.017,4.476,4.478,4.476c2.46,0,4.477-2.015,4.477-4.476
	C491.322,363.095,489.306,361.079,486.846,361.079z M500.614,361.079c-2.461,0-4.478,2.017-4.478,4.477
	c0,2.461,2.017,4.476,4.478,4.476c2.46,0,4.477-2.015,4.477-4.476C505.091,363.095,503.074,361.079,500.614,361.079z
	 M514.382,361.079c-2.461,0-4.477,2.017-4.477,4.477c0,2.461,2.016,4.476,4.477,4.476c2.46,0,4.475-2.015,4.475-4.476
	C518.857,363.095,516.842,361.079,514.382,361.079z M486.846,363.076c1.38,0,2.479,1.099,2.479,2.479
	c0,1.381-1.099,2.478-2.479,2.478c-1.381,0-2.48-1.097-2.48-2.478C484.366,364.175,485.465,363.076,486.846,363.076z
	 M500.614,363.076c1.38,0,2.479,1.099,2.479,2.479c0,1.381-1.099,2.478-2.479,2.478c-1.381,0-2.48-1.097-2.48-2.478
	C498.134,364.175,499.233,363.076,500.614,363.076z M514.382,363.076c1.381,0,2.477,1.099,2.477,2.479
	c0,1.381-1.096,2.478-2.477,2.478c-1.381,0-2.479-1.097-2.479-2.478C511.903,364.175,513.001,363.076,514.382,363.076z
	 M436.085,374.663c-0.841-0.011-1.681,0.02-2.514,0.09c-5,0.422-9.8,2.293-13.776,5.437c-5.303,4.192-8.703,10.302-9.45,16.988
	c-0.552,4.951-0.652,5.853-1.198,10.741h-33.743l0.654-3.535c0.512-2.766-1.272-5.462-4.017-6.075
	c-3.059-0.683-7.315-1.632-10.702-2.387c-0.862-0.193-1.744-0.211-2.598-0.061s-1.678,0.464-2.423,0.939
	c-1.49,0.947-2.545,2.448-2.93,4.172l-1.548,6.947H204.084c-4.028,0-7.317,3.291-7.317,7.319v32.812
	c-0.749-0.866-1.525-1.7-2.313-2.518c-0.079-0.127-0.184-0.234-0.309-0.315c-3.96-4.055-8.389-7.513-13.15-10.336
	c-0.106-0.102-0.234-0.179-0.373-0.225c-5.441-3.178-11.305-5.537-17.387-7.013c-0.133-0.055-0.275-0.081-0.417-0.076
	c-0.487,0.019-0.893,0.393-0.952,0.876c-1.76,5.997-2.651,12.242-2.62,18.534c-0.032,0.144-0.031,0.293,0.002,0.436
	c0.064,5.533,0.851,11.096,2.379,16.549c0.005,0.177,0.056,0.349,0.149,0.499c0.953,3.295,2.183,6.546,3.695,9.726
	c-4.163,0.237-8.257,0.878-12.235,1.894c-0.138,0.006-0.274,0.04-0.398,0.1c-6.103,1.601-11.923,4.085-17.272,7.346
	c-0.364,0.159-0.599,0.519-0.599,0.916c0,0.213,0.068,0.42,0.193,0.59c3.019,5.532,6.845,10.621,11.363,15.078
	c0.033,0.039,0.068,0.076,0.106,0.109c4.003,3.93,8.558,7.354,13.569,10.162c0.096,0.078,0.206,0.138,0.324,0.176
	c4.49,2.482,9.338,4.478,14.511,5.864c1.473,0.395,2.948,0.718,4.423,1.005c0.169,0.088,0.36,0.126,0.55,0.109
	c5.635,1.047,11.26,1.315,16.761,0.88v10.573c0,4.029,3.289,7.319,7.317,7.319h211.528c0.103,0.365,0.226,0.725,0.393,1.073
	c1.106,2.313,3.446,3.788,6.009,3.788h69.396c7.076-0.001,12.839-5.766,12.839-12.841c0-0.943-0.1-1.864-0.294-2.751l-13.283-70.697
	l-0.004-0.025c-0.037-0.222-0.079-0.444-0.127-0.667v-0.002c-0.995-4.671-4.146-8.339-8.188-10.194v-28.754
	c0-4.028-3.288-7.319-7.317-7.319h-5.711c0.201-1.803,0.363-3.246,0.551-4.939c1.024-9.17-5.63-17.443-14.845-18.577
	c-0.129-0.165-0.249-0.319-0.634-0.809c-3.852-4.915-9.546-8.077-15.782-8.772c0,0-0.001,0-0.002,0
	C437.77,374.727,436.927,374.675,436.085,374.663L436.085,374.663L436.085,374.663z M436.058,376.661
	c0.776,0.011,1.555,0.058,2.333,0.145c0.002,0,0.004,0,0.006,0c5.704,0.637,10.908,3.532,14.427,8.021
	c0.531,0.677,0.874,1.116,0.874,1.116c0.167,0.214,0.413,0.351,0.683,0.379c0,0,0.081,0.008,0.238,0.026c0.001,0,0.002,0,0.002,0
	c8.255,0.921,14.179,8.261,13.269,16.411c-0.225,2.018-3.139,28.134-3.803,34.094c-0.098,0.876-0.539,1.679-1.229,2.23
	c-0.689,0.55-1.567,0.805-2.444,0.708c-3.59-0.401-7.755-0.866-8.263-0.923l1.29-30.166c0.015-0.334-0.139-0.652-0.408-0.849
	c-2.552-1.865-4.744-5.594-6.209-8.856c-1.464-3.263-2.237-6.013-2.237-6.013c-0.12-0.43-0.516-0.73-0.964-0.729
	c-0.145,0-0.288,0.032-0.419,0.094L415.3,405.361c-0.338,0.157-0.559,0.49-0.575,0.862c0,0-0.457,10.62-0.644,14.99
	c-0.151,3.534,1.186,6.971,3.684,9.474c2.384,2.39,5.621,3.707,8.983,3.7l-0.182,1.625l-18.314-2.045
	c0.078-0.695,3.49-31.28,4.079-36.567c0.687-6.154,3.815-11.781,8.702-15.645C425.309,378.377,430.624,376.59,436.058,376.661
	L436.058,376.661L436.058,376.661z M443.069,394.614c0.23,0.769,0.668,2.384,1.933,5.199c1.454,3.238,3.555,6.944,6.424,9.257
	l-1.473,34.399c-0.061,0.282,0.002,0.576,0.174,0.808c0.011,0.015,0.023,0.03,0.035,0.045c0.008,0.01,0.015,0.019,0.023,0.029
	c0.233,0.271,0.592,0.398,0.943,0.332h2.241c-0.671,5.028-1.486,10.025-2.427,14.996h-31.61c-0.092-5.001,0.049-9.999,0.458-14.996
	h6.925c0.006,0,0.012,0,0.018,0c0.012,0,0.024-0.001,0.035-0.002c0.016,0,0.032-0.001,0.047-0.002
	c0.006-0.001,0.012-0.001,0.018-0.002c0.004-0.001,0.008-0.001,0.011-0.002c0.518-0.061,0.906-0.517,0.882-1.038l1.042-9.329
	c6.434-0.325,8.761-0.821,8.761-0.821c0.458-0.099,0.788-0.507,0.788-0.977c0-0.547-0.45-0.999-0.999-0.999
	c-0.088,0-0.175,0.012-0.26,0.034c0,0-2.155,0.497-9.176,0.812c-0.006,0-0.012,0-0.018,0c-0.037,0.001-0.074,0.003-0.111,0.008
	c-0.231,0.01-0.36,0.023-0.601,0.033c-2.977,0.121-5.87-1.011-7.974-3.121c-2.104-2.109-3.228-5.003-3.1-7.98
	c0.18-4.193,0.582-13.582,0.616-14.382L443.069,394.614L443.069,394.614z M359.992,397.76c0.305,0.007,0.611,0.044,0.913,0.112
	c3.386,0.755,7.643,1.704,10.702,2.387c1.716,0.384,2.808,2.033,2.487,3.761l-1.465,7.916c-0.011,0.06-0.016,0.121-0.016,0.182
	c0,0.547,0.45,0.999,0.999,0.999c0.166,0,0.331-0.042,0.476-0.122l2.114-1.155c1.281-0.699,2.864-0.234,3.563,1.048
	c0.699,1.281,0.236,2.864-1.046,3.562l-7.288,3.976c-0.264,0.144-0.448,0.4-0.503,0.694l-0.763,4.124l-19.362-3.506l4.535-20.33
	c0.27-1.209,1.008-2.259,2.051-2.922C358.172,397.988,359.078,397.74,359.992,397.76L359.992,397.76L359.992,397.76z
	 M204.084,409.917h147.309l-4.894,21.936H240.887c-1.782,0-3.491,0.709-4.75,1.969c-1.26,1.259-1.969,2.968-1.969,4.75v0.002
	c0,1.781,0.709,3.49,1.969,4.75c1.259,1.259,2.968,1.968,4.75,1.968H343.5l-4.485,20.103h-98.129c-1.782,0-3.491,0.709-4.75,1.969
	c-1.26,1.259-1.969,2.969-1.969,4.75v0.002c0,1.782,0.709,3.491,1.969,4.75c1.259,1.259,2.968,1.968,4.75,1.968h95.812
	c0.553,5.345,4.446,9.997,9.969,11.229c2.946,0.657,5.891,0.236,8.414-0.995l39.538-12.657c0.036,5.34,0.991,10.646,2.842,15.682
	c0.009,0.034,0.019,0.067,0.032,0.099c0,0.001,0,0.002,0,0.002c1.981,5.349,2.768,11.065,2.307,16.75
	c-0.814,10.045-1.973,24.321-2.057,25.367H204.084c-2.947,0-5.32-2.373-5.32-5.322V415.24
	C198.764,412.293,201.136,409.917,204.084,409.917L204.084,409.917L204.084,409.917z M375.034,409.917h0.617
	c-0.135,0.058-0.274,0.099-0.405,0.17l-0.271,0.149L375.034,409.917L375.034,409.917z M379.266,409.917h29.659
	c-1.084,9.717-2.254,20.199-2.448,21.936h-35.506l1.834-9.902l6.871-3.747c2.23-1.216,3.06-4.043,1.844-6.273
	C381.003,410.986,380.191,410.311,379.266,409.917L379.266,409.917z M469.101,409.917h5.934c2.947,0,5.321,2.375,5.321,5.322v28.017
	c-1.33-0.389-2.724-0.601-4.15-0.591c-0.112,0.001-0.227,0.017-0.34,0.02h-23.881l0.078-1.816c0.631,0.07,4.597,0.51,8.129,0.905
	c1.402,0.156,2.811-0.251,3.913-1.132s1.81-2.164,1.967-3.568C466.719,431.27,467.98,419.968,469.101,409.917L469.101,409.917z
	 M440.892,419.654c-0.547,0.011-0.989,0.469-0.98,1.017c0.007,1.658-1.315,2.989-2.972,2.996c-1.659,0.008-2.991-1.312-2.998-2.971
	c0-0.003,0-0.006,0-0.009c0-0.548-0.451-0.999-0.999-0.999c-0.548,0-0.999,0.45-0.999,0.999c0,0.006,0,0.012,0,0.017
	c0.011,2.741,2.265,4.974,5.006,4.961c2.738-0.012,4.972-2.263,4.96-5.002c0-0.003,0-0.006,0-0.009c0-0.548-0.45-1-0.999-1
	c-0.006,0-0.013,0-0.019,0.001L440.892,419.654L440.892,419.654z M350.367,423.69l19.433,3.52l-5.88,31.754
	c-0.011,0.06-0.016,0.121-0.016,0.182c0,0.548,0.45,0.999,0.999,0.999c0.123,0,0.245-0.023,0.36-0.067l34.529-13.359
	c-1.726,1.894-2.875,4.33-3.151,7.046c-0.553,5.46-1.236,12.178-1.793,17.679c-0.096,0.953-0.158,1.906-0.195,2.86l-40.217,12.873
	c-0.048,0.015-0.095,0.034-0.14,0.056c-2.151,1.074-4.662,1.442-7.192,0.878c-4.955-1.105-8.336-5.426-8.467-10.276
	c0-0.019-0.001-0.037-0.002-0.056c-0.019-0.86,0.052-1.734,0.248-2.611L350.367,423.69L350.367,423.69z M112.118,425.607
	c-0.547,0.009-0.991,0.465-0.983,1.013v7.69c0,0.005,0,0.01,0,0.014c0,0.548,0.45,0.999,0.999,0.999c0.547,0,0.999-0.45,0.999-0.999
	c0-0.004,0-0.009,0-0.014v-7.69c0-0.005,0-0.009,0-0.014c0-0.547-0.451-0.999-0.999-0.999
	C112.128,425.607,112.123,425.607,112.118,425.607z M164.983,430.251c4.92,1.385,9.673,3.359,14.141,5.901l-3.404,12.7
	L164.983,430.251z M98.943,431.07c-0.548,0-0.999,0.451-0.999,0.999c0,0.27,0.109,0.528,0.302,0.716l5.437,5.438
	c0.188,0.197,0.448,0.308,0.72,0.308c0.548,0,0.999-0.451,0.999-1c0-0.272-0.111-0.531-0.307-0.72l-5.437-5.438
	C99.47,431.179,99.212,431.07,98.943,431.07L98.943,431.07z M125.293,431.07c-0.259,0.008-0.505,0.116-0.686,0.303l-5.436,5.438
	c-0.197,0.189-0.308,0.448-0.308,0.72c0,0.548,0.451,1,0.999,1c0.272,0,0.532-0.111,0.721-0.308l5.436-5.438
	c0.194-0.188,0.303-0.446,0.303-0.716c0-0.548-0.45-0.999-0.999-0.999C125.313,431.07,125.303,431.07,125.293,431.07z
	 M163.235,431.219l10.756,18.63l-12.707-3.404C161.31,441.295,161.972,436.182,163.235,431.219z M240.887,433.851h105.167
	l-2.107,9.443h-103.06c-1.253,0-2.452-0.497-3.338-1.382c-0.886-0.886-1.383-2.085-1.383-3.338v-0.002
	c0-1.253,0.498-2.452,1.383-3.336c0-0.001,0-0.001,0-0.002C238.435,434.349,239.635,433.851,240.887,433.851L240.887,433.851
	L240.887,433.851z M370.602,433.851h35.652c-0.002,0.023-0.099,0.888-0.099,0.888c-0.005,0.037-0.007,0.074-0.007,0.111
	c0,0.506,0.385,0.937,0.888,0.993l19.309,2.154l-0.522,4.687h-16.92c-0.997,0-1.962,0.132-2.893,0.357c-0.006,0-0.013,0-0.019,0
	c-0.674,0.012-1.355,0.07-2.039,0.178c-0.129,0.02-0.254,0.053-0.381,0.076h-34.718L370.602,433.851z M180.909,437.209
	c4.167,2.557,8.057,5.62,11.572,9.172l-5.764,21.517l-9.584-16.603L180.909,437.209L180.909,437.209z M93.492,444.261
	c-0.005,0-0.01,0-0.015,0c-0.547,0-0.999,0.45-0.999,0.999s0.451,0.999,0.999,0.999c0.005,0,0.01,0,0.015,0h7.69
	c0.005,0,0.009,0,0.014,0c0.548,0,0.999-0.45,0.999-0.999s-0.45-0.999-0.999-0.999c-0.005,0-0.009,0-0.014,0H93.492z
	 M123.083,444.261c-0.005,0-0.01,0-0.015,0c-0.547,0-0.999,0.45-0.999,0.999s0.451,0.999,0.999,0.999c0.005,0,0.01,0,0.015,0h7.69
	c0.005,0,0.009,0,0.014,0c0.548,0,0.999-0.45,0.999-0.999s-0.45-0.999-0.999-0.999c-0.005,0-0.009,0-0.014,0H123.083z
	 M476.339,444.664c1.583,0.002,3.118,0.31,4.543,0.869c0.068,0.036,0.14,0.065,0.215,0.085c3.692,1.527,6.595,4.779,7.491,8.986
	c0,0,0,0.001,0,0.002c0.042,0.197,0.079,0.395,0.111,0.594c0.001,0.008,0.003,0.016,0.004,0.024l13.293,70.752
	c0.002,0.009,0.004,0.019,0.006,0.029c0.163,0.747,0.25,1.524,0.25,2.323c0,5.995-4.847,10.844-10.843,10.844h-38.63v-8.226
	c0-3.47-1.38-6.799-3.833-9.253c-0.845-0.844-1.798-1.552-2.82-2.129l30.518-1.399c0.529-0.025,0.952-0.467,0.952-0.998
	c0-0.078-0.009-0.155-0.027-0.231l-13.394-56.515c-0.002-0.007-0.004-0.015-0.006-0.022c-0.05-0.188-0.095-0.38-0.135-0.571
	c-1.444-6.786,2.878-13.447,9.664-14.89c0.725-0.155,1.447-0.23,2.163-0.256h0.279C476.207,444.683,476.274,444.677,476.339,444.664
	L476.339,444.664L476.339,444.664z M408.902,444.682h8.887c-1.994,24.667,2.347,49.291,9.812,73.863
	c-1.053,0.289-2.001,0.899-2.698,1.764c-1.709,2.119-4.978,6.175-8.076,10.019c-0.93,1.153-1.414,2.558-1.457,3.983h-15.621
	c0.098-1.218,1.233-15.227,2.042-25.207c0.479-5.906-0.344-11.84-2.374-17.405c-0.01-0.068-0.027-0.134-0.05-0.199
	c-2.346-6.338-3.212-13.131-2.531-19.855c0.557-5.501,1.238-12.219,1.791-17.679C399.163,448.684,403.592,444.682,408.902,444.682
	L408.902,444.682L408.902,444.682z M455.386,444.682h13.56c-5.246,3.089-8.202,9.289-6.867,15.561
	c0.047,0.224,0.099,0.445,0.156,0.661l13.113,55.32l-35.658,1.637c-0.033-0.001-0.067,0.001-0.1,0.004l-2.939,0.134
	c6.696-18.664,12.332-37.58,16.062-56.935c0.054-0.129,0.081-0.269,0.078-0.41C453.803,455.364,454.675,450.042,455.386,444.682
	L455.386,444.682L455.386,444.682z M368.484,445.292h29.46l-31.733,12.276L368.484,445.292z M194.096,448.076
	c0.919,1.003,1.812,2.038,2.671,3.11v34.118l-8.637-14.963L194.096,448.076L194.096,448.076z M161.304,448.519l14.1,3.776
	l9.584,16.601l-21.527-5.768C162.142,458.311,161.443,453.406,161.304,448.519z M104.369,451.993
	c-0.259,0.008-0.505,0.117-0.686,0.303l-5.437,5.438c-0.196,0.189-0.307,0.449-0.307,0.721c0,0.547,0.45,0.999,0.999,0.999
	c0.272,0,0.532-0.111,0.72-0.308l5.437-5.438c0.193-0.188,0.303-0.446,0.303-0.716c0-0.548-0.451-0.999-0.999-0.999
	C104.389,451.993,104.379,451.993,104.369,451.993L104.369,451.993z M119.864,451.993c-0.547,0.002-0.997,0.452-0.997,0.999
	c0,0.27,0.109,0.528,0.303,0.716l5.436,5.438c0.188,0.197,0.448,0.308,0.72,0.308c0.548,0,0.999-0.451,0.999-0.999
	c0-0.272-0.111-0.532-0.307-0.721l-5.436-5.438C120.394,452.102,120.134,451.993,119.864,451.993L119.864,451.993z M112.118,455.198
	c-0.547,0.009-0.991,0.465-0.983,1.013v7.688c0,0.005,0,0.01,0,0.014c0,0.548,0.45,1,0.999,1c0.547,0,0.999-0.451,0.999-1
	c0-0.004,0-0.009,0-0.014v-7.688c0-0.005,0-0.009,0-0.014c0-0.547-0.451-0.999-0.999-0.999
	C112.128,455.198,112.123,455.198,112.118,455.198z M419.375,461.675h31.185c-3.758,19.147-9.383,37.893-16.061,56.421l-4.88,0.225
	C423.85,499.41,419.956,480.528,419.375,461.675z M164.14,465.378l22.26,5.963l9.584,16.602l-24.075-6.453
	c-0.803-1.194-1.577-2.415-2.307-3.68c-0.56-0.971-1.09-1.951-1.592-2.937c-0.033-0.132-0.092-0.256-0.174-0.364
	C166.344,471.525,165.116,468.473,164.14,465.378z M240.887,467.392h97.684l-1.639,7.341c-0.157,0.703-0.238,1.405-0.275,2.102
	h-95.771c-1.253,0-2.452-0.497-3.338-1.382c-0.886-0.886-1.383-2.085-1.383-3.338v-0.002c0-1.251,0.498-2.452,1.383-3.336
	c0-0.001,0-0.001,0-0.002C238.435,467.89,239.635,467.392,240.887,467.392L240.887,467.392L240.887,467.392z M166.423,476.14
	c0.463,0.896,0.94,1.787,1.449,2.669c0.78,1.35,1.609,2.655,2.47,3.927c0.048,0.117,0.119,0.223,0.207,0.314
	c3.305,4.824,7.178,9.067,11.472,12.702l-19.892-5.33l-7.305-12.655C158.6,476.864,162.48,476.312,166.423,476.14L166.423,476.14z
	 M152.814,478.284l6.586,11.406l-20.778-5.568C143.086,481.617,147.85,479.648,152.814,478.284z M173.713,484.042l23.054,6.176
	v12.696C187.871,498.677,179.902,492.318,173.713,484.042z M138.102,486.052l20.781,5.567l-11.392,6.578
	C143.866,494.536,140.717,490.454,138.102,486.052z M161.612,492.351l18.512,4.96l-19.297,11.143
	c-4.342-2.475-8.305-5.445-11.859-8.804L161.612,492.351z M182.854,498.043l3.201,0.858c3.38,2.426,6.97,4.504,10.712,6.219v0.542
	l-16.971,9.796c-1.415-0.276-2.831-0.586-4.245-0.965c-4.481-1.201-8.703-2.875-12.653-4.93L182.854,498.043z M240.887,498.936
	c-1.782,0-3.491,0.709-4.75,1.969c-1.26,1.259-1.969,2.969-1.969,4.75v0.002c0,1.782,0.709,3.491,1.969,4.75
	c1.259,1.259,2.968,1.968,4.75,1.968h76.085c1.781,0,3.491-0.708,4.749-1.968c1.26-1.259,1.969-2.968,1.969-4.75v-0.002
	c0-1.781-0.708-3.491-1.969-4.75c-1.258-1.259-2.968-1.969-4.749-1.969H240.887z M240.887,500.934h76.085
	c1.251,0,2.453,0.498,3.337,1.383c0.001,0.001,0.002,0.001,0.002,0.002c0.886,0.884,1.381,2.084,1.381,3.336v0.002
	c0,1.252-0.497,2.452-1.383,3.338c-0.884,0.885-2.084,1.383-3.337,1.383h-76.085c-1.252,0-2.452-0.497-3.338-1.383
	c-0.886-0.886-1.383-2.085-1.383-3.338v-0.002c0-1.251,0.498-2.452,1.383-3.336c0-0.001,0-0.001,0-0.002
	C238.435,501.431,239.635,500.934,240.887,500.934L240.887,500.934z M196.767,507.966v8.449c-4.562,0.374-9.214,0.242-13.887-0.431
	L196.767,507.966L196.767,507.966z M439.707,519.859c2.936,0.004,5.748,1.171,7.824,3.248c2.079,2.078,3.248,4.899,3.248,7.839
	v8.226h-28.767c-1.798,0-3.432-1.03-4.208-2.653c-0.776-1.621-0.551-3.54,0.577-4.939c3.098-3.843,6.367-7.897,8.076-10.017
	c0,0,0.001,0,0.002,0c0.583-0.724,1.448-1.164,2.378-1.206l0.056-0.002c0.022-0.001,0.043-0.002,0.065-0.004l6.24-0.288
	c0.028,0,0.057-0.001,0.086-0.004L439.707,519.859L439.707,519.859z"></path>
</svg>