<?xml version="1.0" standalone="no"?>
<svg version="1.1" id="Layer_1_99_" xmlns="http://www.w3.org/2000/svg" xmlns:xlink="http://www.w3.org/1999/xlink" x="0px" y="0px" viewBox="0 0 595.276 595.276" enable-background="new 0 0 595.276 595.276" xml:space="preserve">
<path id="color_x5F_7" fill-rule="evenodd" clip-rule="evenodd" fill="#ffffff" d="M67.252,414.055
	c4.259,0.073,8.194,1.664,11.29,4.258c-2.984,3.523-7.271,5.94-12.231,6.364c-4.96,0.423-9.593-1.233-13.132-4.197
	c2.984-3.522,7.269-5.94,12.229-6.363C66.029,414.064,66.644,414.044,67.252,414.055z M519.417,413.388
	c4.257,0.099,8.183,1.716,11.263,4.329c-3.006,3.504-7.307,5.896-12.27,6.289c-4.962,0.394-9.585-1.291-13.105-4.277
	c3.005-3.503,7.306-5.896,12.268-6.288C518.194,413.391,518.809,413.374,519.417,413.388L519.417,413.388z M491.19,397.234
	c4.469,1.158,8.509,3.966,11.045,8.25c2.537,4.283,3.058,9.176,1.926,13.651c-4.469-1.159-8.508-3.968-11.045-8.252
	C490.579,406.6,490.057,401.707,491.19,397.234z M91.954,395.289c1.271,4.438,0.899,9.346-1.504,13.705
	c-2.403,4.361-6.353,7.292-10.784,8.588c-1.27-4.438-0.901-9.344,1.502-13.704C83.571,399.519,87.524,396.585,91.954,395.289z
	 M53.517,398.114c0.608-0.021,1.223-0.01,1.843,0.033c4.678,0.322,8.771,2.435,11.776,5.579c0.181,0.196,0.369,0.394,0.547,0.589
	c-3.489,3.017-8.09,4.747-13.052,4.405c-4.966-0.342-9.291-2.691-12.333-6.163C45.352,399.914,49.26,398.258,53.517,398.114
	L53.517,398.114z M527.3,394.895c0.608-0.01,1.223,0.009,1.844,0.063c4.96,0.423,9.247,2.842,12.231,6.363
	c-3.539,2.964-8.171,4.621-13.133,4.198c-4.959-0.424-9.247-2.844-12.231-6.365C519.108,396.56,523.042,394.968,527.3,394.895z
	 M69.7,378.175c3.095,3.425,4.923,7.992,4.685,12.964c-0.237,4.973-2.492,9.348-5.899,12.462c-3.096-3.425-4.925-7.992-4.687-12.964
	C64.035,385.693,66.265,381.341,69.7,378.175z M502.6,376.131c4.43,1.296,8.381,4.228,10.784,8.588
	c2.402,4.36,2.774,9.266,1.503,13.703c-4.43-1.294-8.381-4.227-10.783-8.587C501.701,385.475,501.33,380.568,502.6,376.131
	L502.6,376.131z M541.039,378.953c4.257,0.144,8.165,1.801,11.218,4.446c-3.041,3.473-7.368,5.819-12.334,6.161
	c-4.962,0.343-9.565-1.385-13.053-4.403c0.134-0.147,0.273-0.294,0.409-0.44c3.015-3.227,7.166-5.402,11.917-5.73
	C539.816,378.944,540.431,378.933,541.039,378.953L541.039,378.953L541.039,378.953z M524.854,359.016
	c3.406,3.114,5.662,7.487,5.899,12.46c0.237,4.972-1.59,9.54-4.685,12.964c-3.407-3.113-5.663-7.487-5.901-12.459
	C519.929,367.011,521.759,362.441,524.854,359.016L524.854,359.016z M343.627,317.327h-31.961c-4.658,0-8.426-3.767-8.426-8.425
	v-0.004c0-4.658,3.767-8.424,8.426-8.424h31.961c4.657,0,8.423,3.765,8.423,8.424v0.004
	C352.05,313.56,348.284,317.327,343.627,317.327z M453.467,241.025c1.893,0.006,3.704,0.429,5.34,1.189
	c-0.045-0.001-0.09-0.008-0.135-0.008c-2.401-0.007-4.692,1.398-5.692,3.741c-0.758,1.775-1.59,3.723-2.29,5.362
	c-1.002,2.344,0.037,5.073,2.343,6.159l3.609,1.699l-0.686,0.33c-1.599,0.77-2.278,2.707-1.51,4.306
	c0.769,1.6,2.706,2.277,4.305,1.508l5.413-2.601l2.355,1.109c0.011,0.006,0.023,0.012,0.035,0.017l2.1,0.989
	c-0.523,2.284-1.493,4.487-2.943,6.457c-1.952,2.653-3.365,4.571-3.533,4.799l-10.665-2.878c0.193-0.308,0.358-0.639,0.488-0.993
	c1.025-2.786-0.41-5.892-3.196-6.918c-0.336-0.124-0.675-0.201-1.016-0.256l-3.211-7.393c-0.073-0.168-0.232-0.283-0.413-0.299
	l-11.324-1.032c-0.017-0.002-0.034-0.002-0.051-0.002c-0.268,0.003-0.487,0.221-0.493,0.487c0,0-0.094,4.187-0.131,5.806
	c-0.78-1.332-2.837-4.844-4.974-8.494c-0.672-1.147-0.842-2.519-0.47-3.794c0.373-1.277,1.252-2.344,2.435-2.951
	c0-0.001,0.001-0.001,0.002-0.002c11.413-5.964,17.716-6.377,24.307-6.338l0,0L453.467,241.025L453.467,241.025z"></path>
<path id="color_x5F_6" fill-rule="evenodd" clip-rule="evenodd" fill="#1ACEBD" d="M482.465,371.19h-63.559v-0.653
	c0.193-0.142,1.585-1.157,3.066-2.236c0.727-0.53,1.139-1.394,1.091-2.294c-0.047-0.9-0.547-1.715-1.326-2.165
	c-0.614-0.354-1.232-0.711-1.754-1.012c-0.396-0.229-0.757-0.508-1.077-0.829v-38.848l10.623-10.624
	c4.169-4.168,4.169-10.952,0-15.12c-0.891-0.892-1.907-1.582-3.07-2.13h16.094c0.053,0.009,0.108,0.009,0.162,0h19.583
	c0.054,0.009,0.108,0.009,0.162,0h9.691c0.054,0.009,0.109,0.009,0.162,0h1.703c0.057,0.01,0.114,0.01,0.17,0h8.279L482.465,371.19
	L482.465,371.19z M273.954,317.327h-31.961c-4.659,0-8.426-3.767-8.426-8.425v-0.004c0-4.658,3.766-8.424,8.426-8.424h31.961
	c4.658,0,8.423,3.765,8.423,8.424v0.004C282.377,313.56,278.612,317.327,273.954,317.327z"></path>
<path id="color_x5F_5" fill-rule="evenodd" clip-rule="evenodd" fill="#FFD2BB" d="M415.547,358.488l1.666,2.92
	c0.212,0.372,0.47,0.708,0.751,1.026c0.037,0.072,0.09,0.133,0.155,0.18c0.402,0.42,0.858,0.787,1.365,1.081
	c0.52,0.301,1.139,0.657,1.754,1.013c0.487,0.281,0.8,0.789,0.829,1.351c0.03,0.563-0.226,1.102-0.681,1.434
	c-1.581,1.153-3.273,2.385-3.273,2.385c-0.129,0.094-0.205,0.245-0.205,0.405v1.326c-0.009,0.053-0.009,0.108,0,0.162v8.618
	c0,0.93-0.604,1.746-1.492,2.021c-0.891,0.274-1.85-0.062-2.372-0.831c-2.802-4.115-9.701-14.667-10.17-15.383L415.547,358.488
	L415.547,358.488z M402.228,365.553H135.027c-1.368,0-2.682-0.541-3.65-1.51c0,0,0-0.001,0-0.002
	c-0.969-0.968-1.512-2.279-1.512-3.65V173.605c0-1.368,0.542-2.68,1.512-3.65c0.968-0.968,2.281-1.511,3.65-1.511h315.561
	c1.37,0,2.684,0.543,3.653,1.511c0.968,0.97,1.511,2.281,1.511,3.65v66.623c-0.744-0.127-1.505-0.199-2.28-0.202
	c-6.639-0.039-13.244,0.425-24.776,6.451c-1.425,0.733-2.486,2.023-2.934,3.561c-0.447,1.539-0.243,3.195,0.567,4.578
	c2.489,4.251,5.712,9.754,5.792,9.892c-0.088,3.902-0.145,6.426-0.258,11.392c-0.058,2.591,0.973,5.088,2.839,6.885
	c1.867,1.797,4.4,2.732,6.985,2.575c0.001,0,0.002,0,0.002,0c0.262-0.016,0.191-0.012,0.445-0.027v8.946h-20.039
	c-0.024-0.001-0.048,0.001-0.072,0.004c-0.018,0-0.037-0.002-0.055-0.002c-2.738,0-5.475,1.043-7.559,3.127
	c-0.315,0.314-0.606,0.642-0.872,0.983l-8.792,9.929V197.557c0-1.635-0.651-3.203-1.807-4.358c-1.155-1.156-2.723-1.805-4.358-1.805
	H187.034c-1.633,0-3.2,0.649-4.356,1.805c-1.157,1.155-1.805,2.724-1.805,4.358v138.886c0,1.633,0.648,3.2,1.805,4.356
	c1.156,1.157,2.723,1.805,4.356,1.805h199.284L402.228,365.553L402.228,365.553z M417.908,324.151v36.464l-1.756-3.082
	c-0.001-0.001-0.001-0.003-0.002-0.004c-0.008-0.015-0.016-0.029-0.025-0.043l-11.453-20.101L417.908,324.151z M461.879,294.279
	h-18.746v-9.007c4.508-0.274,8.486-0.516,8.486-0.516c0.266-0.011,0.479-0.233,0.479-0.499c0-0.274-0.226-0.499-0.499-0.499
	c-0.014,0-0.027,0.001-0.041,0.002c0,0-4.02,0.243-8.883,0.538c-0.017-0.002-0.033-0.002-0.049-0.002
	c-0.034,0-0.067,0.004-0.1,0.011c-0.496,0.031-0.371,0.023-0.897,0.055c-2.308,0.14-4.569-0.692-6.234-2.296
	c-1.666-1.603-2.584-3.829-2.532-6.141c0.113-5.01,0.175-7.737,0.259-11.49c0-0.002,0-0.004,0-0.006
	c0.001-0.015,0.002-0.03,0.002-0.045c0-0.004,0-0.008,0-0.012l0.158-7.014l0,0l0,0l0,0l10.499,0.956l2.891,6.662
	c-0.166,0.009-0.331,0.017-0.494,0.041c-0.245,0.035-0.428,0.247-0.428,0.494c0,0.274,0.226,0.499,0.5,0.499
	c0.024,0,0.047-0.001,0.071-0.005c0.345-0.05,0.696-0.058,1.05-0.023c0.012,0.002,0.024,0.003,0.037,0.004h0.002
	c0.352,0.038,0.704,0.118,1.052,0.246c2.278,0.838,3.441,3.357,2.602,5.635c-0.838,2.278-3.356,3.441-5.634,2.603
	c-0.055-0.02-0.113-0.031-0.172-0.031c-0.275,0-0.5,0.226-0.5,0.5c0,0.209,0.131,0.397,0.328,0.468
	c2.074,0.764,4.326,0.159,5.764-1.349l11.032,2.976L461.879,294.279L461.879,294.279z M308.002,275.487h-30.387v-8.195h30.387
	V275.487z M308.002,266.293h-30.387v-8.197h30.387V266.293z M458.664,243.202c0.671,0.003,1.352,0.137,2.01,0.417
	c0.306,0.131,0.75,0.32,1.052,0.448c0,0.001,0.001,0.002,0.002,0.002c0.034,0.019,0.07,0.034,0.107,0.045
	c2.802,1.197,5.521,2.36,9.77,4.175l-5.125,14.406l-2.107-0.991c-0.136-0.065-0.294-0.065-0.428,0l-5.626,2.706
	c-1.112,0.534-2.436,0.071-2.971-1.042c-0.534-1.112-0.07-2.436,1.042-2.971l1.633-0.786c0.172-0.084,0.282-0.259,0.282-0.449
	c0-0.193-0.112-0.37-0.286-0.452l-4.559-2.147c-1.829-0.862-2.645-3.002-1.851-4.861c0.7-1.639,1.532-3.588,2.29-5.362
	c0.001,0,0.001,0,0.002,0C454.74,244.369,456.653,243.194,458.664,243.202L458.664,243.202L458.664,243.202z M308.002,257.097
	h-30.387v-8.195h30.387V257.097z M298.019,234.53h-20.403v-17.766h20.403V234.53z M308.002,234.53h-8.985v-17.766h7.1
	c0.652,0,1.289,0.128,1.885,0.362V234.53z"></path>
<path id="color_x5F_4" fill-rule="evenodd" clip-rule="evenodd" fill="#00CEC9" d="M430.326,500.444h-19.739l3.819-59.118
	c0.014-0.056,0.018-0.115,0.012-0.173l1.916-29.654c0.014-0.058,0.018-0.118,0.011-0.178l1.873-28.994
	c0.431-0.539,0.689-1.215,0.689-1.939v-8.201h63.559v4.475c0,10.397-8.418,18.813-18.814,18.813h-11.354
	c-0.024-0.004-0.049-0.006-0.074-0.006c-0.021,0.001-0.041,0.003-0.062,0.006h-4.433c-0.245,0-0.455,0.18-0.493,0.421l-2.479,15.335
	c-0.017,0.051-0.026,0.104-0.026,0.158l-4.797,29.657c-0.02,0.057-0.03,0.117-0.029,0.178L430.326,500.444L430.326,500.444z
	 M482.465,500.444h-19.743l-5.661-59.19c0,0,0-0.001,0-0.002c0.005-0.058-0.001-0.116-0.016-0.172l-2.838-29.669
	c0.003-0.05-0.002-0.101-0.014-0.15l-1.414-14.787h10.872c8.775,0,16.213-5.72,18.814-13.629l0,0v58.286
	c-0.008,0.054-0.008,0.109,0,0.162L482.465,500.444L482.465,500.444z M126.336,440.712H68.442
	c0.264-5.933,5.143-10.665,11.14-10.665c2.83,0,5.406,1.053,7.372,2.789c0.095,0.102,0.228,0.161,0.368,0.161
	c0.236,0,0.441-0.168,0.489-0.4c3.225-6.838,10.168-11.585,18.304-11.617C117.12,420.98,126.071,429.771,126.336,440.712z
	 M519.837,440.712h-36.372l-0.001-19.679c7.568,0.483,14.009,5.12,17.052,11.66c0.082,0.176,0.259,0.289,0.452,0.289
	c0.11,0,0.217-0.037,0.305-0.104c0.001-0.001,0.002-0.002,0.004-0.004c0.008-0.006,0.015-0.012,0.023-0.019
	c1.969-1.747,4.556-2.808,7.395-2.808C514.695,430.047,519.573,434.779,519.837,440.712z"></path>
<path id="color_x5F_3" fill-rule="evenodd" clip-rule="evenodd" fill="#484848" d="M253.956,411.882
	c-0.128,0.577-4.975,22.333-10.289,46.194c-0.406,1.825,0.036,3.736,1.206,5.195c1.169,1.458,2.937,2.308,4.806,2.308h21.49
	c3.832,0,7.51,1.523,10.22,4.233c2.593,2.593,4.082,6.071,4.208,9.722h-44.996c-4.585,0-8.925-2.08-11.794-5.659
	c-2.87-3.579-3.958-8.266-2.961-12.744c2.336-10.487,2.559-11.492,4.393-19.724c0.025-0.057,0.039-0.118,0.041-0.18
	c2.718-12.201,6.487-29.13,6.535-29.345L253.956,411.882L253.956,411.882z M124.611,410.883h-7.739
	c-4.373,0-8.566-1.738-11.658-4.83c-3.092-3.092-4.829-7.285-4.829-11.658V168.951c0-4.373,1.737-8.567,4.829-11.659
	c3.073-3.073,7.235-4.808,11.658-4.828h7.734c-2.458,0.859-4.722,2.246-6.598,4.121c-3.28,3.28-5.123,7.729-5.123,12.366v225.445
	c0,4.637,1.843,9.084,5.123,12.364C119.885,408.637,122.152,410.023,124.611,410.883z M292.81,375.914
	c7.077,0,12.802,5.727,12.802,12.805c0,7.077-5.725,12.804-12.802,12.804s-12.805-5.727-12.805-12.804
	C280.004,381.641,285.732,375.914,292.81,375.914z M421.969,295.274c2.481,0,4.962,0.947,6.855,2.841
	c3.786,3.785,3.786,9.922,0,13.707l-10.715,10.716c-0.039,0.029-0.073,0.063-0.102,0.101l-14.311,14.311
	c-0.158,0.159-0.192,0.405-0.082,0.599l11.437,20.07l-11.738,7.751l-16.288-23.497c-0.02-0.038-0.045-0.073-0.074-0.105
	l-0.634-0.915c-0.005-0.006-0.009-0.012-0.014-0.018c-2.576-3.395-2.176-8.113,0.761-11.036c0.008-0.007,0.016-0.015,0.023-0.023
	l17.487-19.752c0.032-0.028,0.06-0.06,0.084-0.095l9.648-10.899c0.007-0.008,0.014-0.016,0.02-0.024
	c0.241-0.309,0.503-0.607,0.788-0.891C417.007,296.221,419.489,295.274,421.969,295.274L421.969,295.274L421.969,295.274z
	 M472.524,248.682c16.372,6.993,39.134,16.717,39.134,16.717c4.272,1.824,6.254,6.762,4.431,11.034
	c-0.388,0.906-0.915,1.708-1.545,2.393c-0.002,0.003-0.004,0.005-0.006,0.008l-27.908,31.495c-0.911,1.029-1.996,1.801-3.166,2.345
	v-17.894c0-0.274-0.225-0.499-0.499-0.499h-7.647l18.15-18.134c0.094-0.094,0.147-0.221,0.147-0.354
	c0-0.194-0.113-0.371-0.288-0.452l-20.82-9.806c-0.043-0.028-0.089-0.049-0.137-0.063l-2.851-1.343
	c-0.043-0.03-0.091-0.052-0.142-0.067l-1.99-0.936L472.524,248.682L472.524,248.682z M276.617,275.487h-10.16
	c-1.293,0-2.331-1.038-2.331-2.331v-54.059c0-1.261,0.987-2.28,2.331-2.333h10.16v18.266c0,0.274,0.226,0.499,0.499,0.499h31.386
	c0.274,0,0.499-0.226,0.499-0.499v-17.384c0.289,0.195,0.561,0.419,0.809,0.673c2.612,2.672,7.634,7.811,10.211,10.448
	c0.944,0.966,1.471,2.26,1.471,3.609v40.78c0,1.293-1.037,2.331-2.331,2.331h-10.16v-8.615c0.008-0.053,0.008-0.108,0-0.162v-9.034
	c0.008-0.053,0.008-0.108,0-0.162v-9.112c0-0.274-0.226-0.499-0.499-0.499h-31.386c-0.275,0-0.499,0.226-0.499,0.499v9.114
	c-0.009,0.054-0.009,0.109,0,0.162v9.034c-0.009,0.054-0.009,0.109,0,0.162L276.617,275.487L276.617,275.487z"></path>
<path id="color_x5F_2" fill-rule="evenodd" clip-rule="evenodd" fill="#FBC02D" d="M423.543,514.984h-22.248
	c-1.177,0-2.209-0.461-2.9-1.27c-0.692-0.81-0.997-1.915-0.826-3.096c0.155-1.06,0.847-2.084,1.84-2.682
	c3.461-2.083,10.625-6.396,10.784-6.492h19.98c-0.084,0.575-0.716,4.936-1.287,8.874c-0.178,1.224-0.843,2.417-1.852,3.296
	C426.026,514.494,424.762,514.983,423.543,514.984L423.543,514.984z M477.872,514.984h-22.25c-1.178,0-2.305-0.468-3.137-1.299
	c-0.832-0.833-1.299-1.96-1.299-3.137v-0.002c0-1.055,0.529-2.039,1.41-2.62c3.148-2.077,9.628-6.354,9.81-6.474
	c0.008-0.003,0.016-0.005,0.024-0.008l0,0h20.036v8.946c0,1.22-0.484,2.387-1.345,3.248
	C480.257,514.499,479.091,514.983,477.872,514.984L477.872,514.984z M167.497,495.172h-12.873c0.271-3.37,3.001-6.038,6.436-6.038
	C164.496,489.134,167.23,491.805,167.497,495.172z M517.731,482.837h-16.468c0.274-4.338,3.767-7.794,8.234-7.836
	C513.926,475,517.46,478.477,517.731,482.837z M148.251,482.19H122.78c0.274-6.801,5.799-12.238,12.735-12.286
	C142.406,469.903,147.983,475.364,148.251,482.19z M353.755,479.534h-67.16c-0.127-3.916-1.72-7.649-4.501-10.428
	c-1.552-1.552-3.408-2.727-5.506-3.527h62.761c3.833,0,7.511,1.523,10.221,4.233C352.161,472.403,353.628,475.883,353.755,479.534z
	 M314.507,464.58h-64.829c-1.567,0-3.046-0.711-4.026-1.934s-1.353-2.823-1.013-4.352c5.339-23.974,10.257-46.04,10.339-46.413l0,0
	h67.158c-0.101,0.455-3.635,16.323-6.49,29.141c-0.001,0-0.001,0.001-0.002,0.002c-0.021,0.052-0.033,0.108-0.035,0.164
	c-1.657,7.438-2.279,10.225-3.763,16.887c-0.407,1.825,0.038,3.736,1.208,5.195C313.47,463.789,313.963,464.226,314.507,464.58z
	 M453.152,410.883h-7.329l2.331-14.408h3.621L453.152,410.883z M236.341,410.883H130.372c-4.374,0-8.567-1.738-11.658-4.83
	c-3.092-3.092-4.83-7.285-4.83-11.658V168.951c0-4.373,1.738-8.567,4.83-11.659c3.091-3.092,7.284-4.828,11.658-4.828h324.873
	c4.372,0,8.567,1.736,11.659,4.828c3.093,3.092,4.828,7.286,4.828,11.659v78.308c-4.059-1.735-6.787-2.9-9.515-4.066
	c-1.576-1.303-3.442-2.249-5.466-2.752v-66.836c0-1.633-0.649-3.199-1.804-4.356c-1.156-1.155-2.724-1.804-4.359-1.804H135.027
	c-1.634,0-3.201,0.649-4.356,1.804c-1.157,1.157-1.805,2.723-1.805,4.356v186.787c0,1.634,0.648,3.203,1.805,4.358
	c1.155,1.156,2.722,1.803,4.356,1.803h267.885c0.265,0.405,7.443,11.383,10.305,15.589c0.768,1.128,2.185,1.624,3.491,1.223
	c0,0,0.001,0,0.002,0c0.157-0.049,0.308-0.11,0.452-0.181l-1.791,27.7h-92.453c-0.099-0.032-0.205-0.032-0.304,0h-67.958
	c-0.025-0.004-0.05-0.006-0.075-0.006s-0.05,0.002-0.076,0.006h-18.015c-0.024-0.004-0.049-0.006-0.074-0.006
	C236.392,410.877,236.366,410.879,236.341,410.883L236.341,410.883z M292.81,374.915c-7.618,0-13.804,6.186-13.804,13.804
	c0,7.617,6.186,13.803,13.804,13.803c7.617,0,13.801-6.186,13.801-13.803C306.611,381.101,300.427,374.915,292.81,374.915z
	 M385.625,341.604H187.033c-1.368,0-2.682-0.543-3.65-1.512c-0.969-0.968-1.512-2.281-1.512-3.65V197.557
	c0-1.37,0.543-2.682,1.512-3.65c0-0.001,0-0.002,0-0.002c0.969-0.969,2.281-1.512,3.65-1.512l0,0h211.548
	c1.37,0,2.684,0.543,3.652,1.512c0.969,0.968,1.514,2.281,1.514,3.652V309.45l-17.409,19.662c-3.266,3.271-3.7,8.541-0.833,12.323
	l0.002,0.002L385.625,341.604L385.625,341.604z M343.627,299.476h-31.961c-5.199,0-9.425,4.224-9.425,9.423v0.004
	c0,5.198,4.226,9.424,9.425,9.424h31.961c5.198,0,9.422-4.226,9.422-9.424v-0.004C353.049,303.7,348.825,299.476,343.627,299.476z
	 M273.954,299.476h-31.961c-5.199,0-9.425,4.225-9.425,9.423v0.004c0,5.198,4.226,9.424,9.425,9.424h31.961
	c5.198,0,9.422-4.226,9.422-9.424v-0.004C283.375,303.7,279.151,299.476,273.954,299.476z M471.732,294.279h-8.854v-17.464
	c0.084-0.114,1.629-2.211,3.639-4.943c1.47-1.999,2.484-4.225,3.07-6.609l2.145,1.011L471.732,294.279L471.732,294.279z
	 M298.436,215.766H277.19c-0.027-0.005-0.054-0.007-0.082-0.006c-0.021,0-0.042,0.002-0.062,0.006h-10.589
	c-1.833,0-3.33,1.497-3.33,3.332v54.059c0,1.833,1.497,3.329,3.33,3.33h10.579c0.054,0.008,0.108,0.008,0.162,0h31.224
	c0.053,0.008,0.108,0.008,0.162,0h10.577c1.834,0,3.33-1.497,3.33-3.33v-40.781c0-1.609-0.63-3.155-1.756-4.307
	c-2.577-2.637-7.599-7.777-10.211-10.448c-1.159-1.188-2.749-1.856-4.407-1.856h-7.52c-0.029-0.005-0.059-0.008-0.088-0.008v0.001
	C298.485,215.758,298.46,215.761,298.436,215.766L298.436,215.766z M470.098,127.81h-12.44c0.27-3.25,2.904-5.821,6.218-5.821
	C467.195,121.989,469.831,124.562,470.098,127.81L470.098,127.81z M449.312,127.81h-57.78c0.272-10.909,9.137-19.69,20.183-19.734
	c8.127,0,15.136,4.799,18.353,11.713c0.081,0.176,0.259,0.289,0.452,0.289c0.122,0,0.24-0.044,0.332-0.125
	c1.97-1.748,4.555-2.808,7.395-2.808C444.239,117.144,449.037,121.888,449.312,127.81z M205.944,97.768h-57.78
	c0.272-10.089,8.493-18.199,18.645-18.199c8.221,0,15.202,5.314,17.701,12.686c0.069,0.203,0.26,0.34,0.473,0.34
	c0.172,0,0.333-0.089,0.423-0.236c1.969-3.154,5.473-5.258,9.471-5.258C200.868,87.101,205.666,91.841,205.944,97.768
	L205.944,97.768z M138.039,97.768h-15.852c0.271-4.191,3.668-7.53,7.925-7.53C134.369,90.238,137.764,93.573,138.039,97.768z"></path>
<path id="color_1_1_" fill="#72747e" d="M166.81,78.071c-11.134,0-20.193,9.061-20.193,20.196c0,0.547,0.45,0.999,0.999,0.999h58.93
	c0.547,0,0.999-0.451,0.999-0.999c0-0.001,0-0.001,0-0.002c-0.003-6.983-5.689-12.663-12.665-12.663
	c-3.939,0-7.396,1.871-9.717,4.701C182.052,83.161,175.085,78.071,166.81,78.071z M166.81,80.069
	c8.005,0,14.796,5.173,17.229,12.346c0.138,0.405,0.519,0.678,0.946,0.678c0.345,0,0.665-0.178,0.847-0.469
	c1.88-3.012,5.226-5.023,9.048-5.023c5.54,0,9.937,4.261,10.465,9.668h-19.339h-37.291C149.243,87.688,157.099,80.069,166.81,80.069
	L166.81,80.069z M292.794,86.292c-0.547,0.008-0.991,0.464-0.983,1.012v7.355c0,0.004,0,0.009,0,0.014
	c0,0.547,0.45,0.999,0.999,0.999c0.547,0,0.999-0.451,0.999-0.999c0-0.005,0-0.01,0-0.014v-7.355c0-0.004,0-0.009,0-0.013
	c0-0.548-0.451-1-0.999-1C292.804,86.291,292.799,86.292,292.794,86.292z M130.113,88.74c-5.246,0-9.525,4.28-9.525,9.527
	c0,0.547,0.45,0.999,0.999,0.999h17.053c0.548,0,0.999-0.451,0.999-0.999c0-0.001,0-0.001,0-0.002
	C139.634,93.015,135.356,88.74,130.113,88.74z M130.113,90.738c3.809,0,6.819,2.858,7.327,6.531h-14.654
	C123.292,93.598,126.302,90.738,130.113,90.738z M280.192,91.518c-0.547,0.001-0.997,0.451-0.997,0.999
	c0,0.27,0.109,0.528,0.303,0.716l5.201,5.201c0.188,0.196,0.448,0.307,0.72,0.307c0.548,0,0.999-0.45,0.999-0.999
	c0-0.272-0.111-0.532-0.307-0.72l-5.201-5.201C280.722,91.627,280.462,91.518,280.192,91.518L280.192,91.518z M305.394,91.518
	c-0.259,0.008-0.505,0.116-0.686,0.303l-5.199,5.201c-0.197,0.188-0.308,0.448-0.308,0.72c0,0.548,0.451,0.999,0.999,0.999
	c0.273,0,0.532-0.111,0.721-0.307l5.199-5.201c0.193-0.188,0.303-0.446,0.303-0.716c0-0.548-0.451-0.999-0.999-0.999
	C305.413,91.518,305.404,91.518,305.394,91.518L305.394,91.518z M274.982,104.133c-0.005,0-0.009,0-0.014,0
	c-0.548,0-0.999,0.45-0.999,0.999c0,0.548,0.45,0.999,0.999,0.999c0.005,0,0.009,0,0.014,0h7.354c0.005,0,0.01,0,0.014,0
	c0.548,0,1-0.45,1-0.999c0-0.548-0.451-0.999-1-0.999c-0.004,0-0.009,0-0.014,0H274.982z M303.281,104.133c-0.005,0-0.009,0-0.014,0
	c-0.548,0-0.999,0.45-0.999,0.999c0,0.548,0.45,0.999,0.999,0.999c0.005,0,0.009,0,0.014,0h7.354c0.005,0,0.01,0,0.014,0
	c0.548,0,1-0.45,1-0.999c0-0.548-0.451-0.999-1-0.999c-0.004,0-0.009,0-0.014,0H303.281z M411.715,106.577
	c-11.983,0-21.731,9.748-21.731,21.732c0,0.548,0.45,0.999,0.999,0.999h58.93c0.547,0,0.999-0.45,0.999-0.999
	c0-6.978-5.686-12.663-12.665-12.663c-2.805,0-5.318,1.04-7.419,2.591C427.183,111.346,420.04,106.577,411.715,106.577
	L411.715,106.577z M411.715,108.575c7.931,0,14.764,4.682,17.9,11.424c0.164,0.352,0.518,0.577,0.906,0.577
	c0.245,0,0.48-0.09,0.663-0.252c1.882-1.67,4.349-2.681,7.063-2.681c5.543,0,9.939,4.264,10.465,9.666h-56.63
	C392.613,116.882,401.155,108.575,411.715,108.575z M285.385,111.528c-0.26,0.008-0.505,0.117-0.686,0.303l-5.201,5.199
	c-0.188,0.188-0.294,0.442-0.294,0.707c0,0.548,0.451,1,0.999,1c0.266,0,0.519-0.106,0.707-0.293l5.201-5.201
	c0.193-0.188,0.303-0.446,0.303-0.716c0-0.548-0.451-0.999-0.999-0.999C285.405,111.528,285.395,111.528,285.385,111.528z
	 M300.203,111.528c-0.547,0.001-0.997,0.451-0.997,0.999c0,0.27,0.109,0.528,0.303,0.716l5.199,5.201
	c0.188,0.196,0.448,0.308,0.72,0.308c0.548,0,0.999-0.451,0.999-1c0-0.272-0.111-0.532-0.307-0.72l-5.199-5.201
	C300.732,111.637,300.474,111.528,300.203,111.528L300.203,111.528z M292.794,114.592c-0.547,0.008-0.991,0.464-0.983,1.012v7.355
	c0,0.004,0,0.009,0,0.014c0,0.547,0.45,0.999,0.999,0.999c0.547,0,0.999-0.451,0.999-0.999c0-0.005,0-0.01,0-0.014v-7.355
	c0-0.004,0-0.009,0-0.013c0-0.548-0.451-1-0.999-1C292.804,114.591,292.799,114.592,292.794,114.592z M463.877,120.49
	c-4.302,0-7.814,3.512-7.818,7.818c0,0.548,0.45,0.999,0.999,0.999h13.641c0.548,0,0.999-0.45,0.999-0.999
	C471.697,124.004,468.183,120.49,463.877,120.49z M463.877,122.488c2.871,0,5.135,2.096,5.622,4.822h-11.242
	C458.747,124.582,461.01,122.488,463.877,122.488z M116.873,150.965c-4.77,0-9.345,1.895-12.717,5.267
	c-3.373,3.373-5.27,7.949-5.27,12.719v225.445c0,4.769,1.897,9.344,5.27,12.718c3.372,3.372,7.947,5.269,12.717,5.269h12.493
	c0.094,0.001,0.187-0.011,0.277-0.035c0.244,0.01,0.485,0.035,0.73,0.035h104.797c-0.141,0.631-3.662,16.437-6.199,27.831H127.821
	c-0.524-11.52-10.059-20.731-21.706-20.731c-8.017,0-14.932,4.429-18.688,10.911c-1.793-3.712-3.958-7.592-6.568-11.589
	c4.483-1.511,8.445-4.624,10.905-9.087c2.697-4.892,3.08-10.453,1.509-15.395c-0.136-0.426-0.541-0.711-0.989-0.694
	c-0.073,0.002-0.146,0.012-0.217,0.031c-5.017,1.311-9.512,4.604-12.209,9.496c-1.883,3.415-2.614,7.153-2.364,10.782
	c-2.273-3.114-4.828-6.285-7.687-9.49c3.521-3.354,5.826-8.002,6.075-13.234c0.267-5.58-1.839-10.741-5.424-14.486
	c-0.187-0.195-0.444-0.307-0.714-0.309c-0.242-0.002-0.476,0.084-0.659,0.242c-3.927,3.387-6.515,8.325-6.781,13.905
	c-0.117,2.448,0.223,4.814,0.944,7.017c-1.431-1.402-2.909-2.806-4.468-4.212c-0.197-0.184-0.46-0.281-0.729-0.268
	c-0.529,0.026-0.951,0.468-0.951,0.998c0,0.289,0.125,0.562,0.342,0.752c1.038,0.937,2.037,1.872,3.016,2.806
	c-1.58-0.54-3.254-0.885-4.996-1.005c-5.573-0.384-10.777,1.61-14.597,5.117c-0.391,0.357-0.432,0.966-0.096,1.373
	c3.303,3.997,8.185,6.688,13.758,7.071c5.196,0.359,10.056-1.37,13.788-4.444c2.632,2.95,5.006,5.87,7.128,8.737
	c-3.06-1.477-6.537-2.192-10.162-1.883c-5.566,0.475-10.402,3.246-13.639,7.298c-0.33,0.412-0.278,1.019,0.117,1.369
	c3.877,3.443,9.113,5.352,14.679,4.877c0.001,0,0.002,0,0.002,0c5.082-0.435,9.539-2.796,12.743-6.283
	c2.243,3.434,4.147,6.775,5.764,9.993c-1.622-0.823-3.421-1.33-5.364-1.33c-6.64,0-12.099,5.152-12.614,11.664H44.26
	c-0.005,0-0.009,0-0.014,0c-0.548,0-0.999,0.45-0.999,0.999s0.45,0.999,0.999,0.999c0.005,0,0.009,0,0.014,0H67.75
	c0.108,0.018,0.218,0.018,0.326,0h58.607c0.107,0.018,0.216,0.018,0.324,0h101.519c-1.77,7.947-1.941,8.708-4.143,18.594
	c-1.096,4.921,0.103,10.075,3.256,14.007c3.152,3.932,7.922,6.22,12.962,6.22h45.353c0.11,0.019,0.223,0.019,0.332,0h68.019
	c0.548,0,0.999-0.45,0.999-0.999v-0.002c0-4.231-1.682-8.288-4.674-11.279c-2.99-2.99-7.049-4.671-11.279-4.671h-12.565h-8.922
	c-1.416,0-2.753-0.644-3.639-1.748c-0.885-1.105-1.22-2.549-0.913-3.931c1.423-6.388,2.011-9.022,3.607-16.191h95.93l-3.756,58.148
	c-0.566,0.341-7.099,4.273-10.454,6.293c-1.37,0.824-2.325,2.202-2.55,3.749c0,0,0,0.001,0,0.002
	c-0.005,0.034-0.009,0.07-0.01,0.105c-0.194,1.53,0.211,3.046,1.179,4.179c0.99,1.157,2.466,1.794,4.04,1.794h22.248
	c1.615,0,3.209-0.632,4.475-1.738l0.002-0.002c1.266-1.106,2.113-2.604,2.347-4.21c0.607-4.183,1.367-9.411,1.369-9.428
	l9.525-58.893h14.388l5.569,58.232c-0.622,0.41-6.416,4.232-9.448,6.232c-1.3,0.858-2.083,2.313-2.083,3.87v0.002
	c0,1.573,0.625,3.083,1.738,4.196c1.113,1.112,2.622,1.738,4.196,1.738h22.251c1.615,0,3.164-0.641,4.307-1.785
	c1.142-1.142,1.785-2.692,1.785-4.307v-9.445V442.21h36.232c0.107,0.018,0.216,0.018,0.324,0h20.838c0.005,0,0.01,0,0.014,0
	c0.548,0,0.999-0.45,0.999-0.999s-0.45-0.999-0.999-0.999c-0.004,0-0.009,0-0.014,0h-20.048
	c-0.513-6.512-5.973-11.664-12.614-11.664c-2.303,0-4.406,0.71-6.248,1.821c0.623-2.744,1.464-5.725,2.579-8.905
	c3.717,2.868,8.464,4.436,13.504,4.036c5.569-0.441,10.422-3.183,13.684-7.214c0.333-0.411,0.284-1.018-0.11-1.371
	c-3.856-3.468-9.079-5.41-14.648-4.969c-3.855,0.306-7.354,1.734-10.234,3.909c2.036-4.744,4.694-9.818,8.156-15.12
	c3.203,3.483,7.658,5.841,12.735,6.275c5.567,0.475,10.804-1.435,14.682-4.879c0.395-0.351,0.445-0.957,0.117-1.369
	c-3.237-4.051-8.074-6.823-13.64-7.298c-3.624-0.31-7.1,0.406-10.161,1.883c2.122-2.869,4.49-5.787,7.123-8.739
	c3.732,3.076,8.595,4.805,13.792,4.446c5.573-0.384,10.455-3.073,13.758-7.071c0.337-0.408,0.294-1.014-0.095-1.371
	c-3.821-3.506-9.024-5.502-14.597-5.119c-1.742,0.12-3.417,0.465-4.996,1.005c0.979-0.934,1.977-1.869,3.013-2.805
	c0.217-0.19,0.341-0.464,0.341-0.752c0-0.539-0.437-0.986-0.977-0.998c-0.26-0.006-0.511,0.09-0.702,0.267
	c-1.55,1.4-3.036,2.798-4.461,4.192c0.715-2.196,1.054-4.557,0.938-6.997c-0.266-5.581-2.853-10.517-6.779-13.903
	c-0.178-0.155-0.405-0.241-0.64-0.244c-0.276-0.004-0.542,0.108-0.733,0.308c-3.587,3.745-5.693,8.906-5.427,14.486
	c0.251,5.231,2.555,9.879,6.075,13.232c-2.856,3.204-5.412,6.372-7.684,9.484c0.248-3.626-0.483-7.36-2.364-10.772
	c-2.697-4.892-7.194-8.186-12.212-9.498c-0.096-0.025-0.197-0.035-0.297-0.031c-0.417,0.019-0.78,0.298-0.907,0.696
	c-1.569,4.943-1.187,10.503,1.51,15.395c2.462,4.468,6.43,7.582,10.919,9.091c-3.084,4.724-5.567,9.291-7.528,13.604
	c-0.215-2.924-1.065-5.844-2.658-8.533c-2.846-4.807-7.444-7.96-12.5-9.116c-0.065-0.015-0.131-0.023-0.198-0.025
	c-0.453-0.011-0.861,0.289-0.985,0.725c-1.417,4.988-0.862,10.536,1.984,15.343c2.645,4.465,6.807,7.479,11.436,8.815
	c-1.19,3.342-2.078,6.475-2.739,9.36c-3.526-5.692-9.535-9.67-16.559-10.256v-47.879v-57.602c1.403-0.631,2.706-1.544,3.788-2.767
	l27.894-31.481l0.002-0.002c0.743-0.808,1.364-1.753,1.818-2.817c2.143-5.018-0.2-10.859-5.218-13.002
	c0,0-22.657-9.676-39.018-16.664V168.95c0-4.769-1.894-9.346-5.267-12.719c-3.373-3.372-7.95-5.267-12.719-5.267H130.372
	c-0.245,0-0.486,0.025-0.73,0.035c-0.09-0.025-0.183-0.037-0.277-0.035L116.873,150.965L116.873,150.965z M116.873,152.963h5.287
	c-1.646,0.845-3.171,1.937-4.505,3.269c-3.373,3.373-5.269,7.949-5.269,12.719v225.445c0,4.769,1.896,9.344,5.269,12.718
	c1.333,1.332,2.859,2.425,4.505,3.271h-5.287c-4.241,0-8.306-1.685-11.304-4.684c-2.999-2.998-4.684-7.064-4.684-11.304V168.951
	c0-4.241,1.685-8.307,4.684-11.306C108.567,154.646,112.632,152.963,116.873,152.963L116.873,152.963z M130.372,152.963h324.872
	c4.241,0,8.308,1.683,11.307,4.681c2.998,2.999,4.681,7.065,4.681,11.306v77.553c-3.556-1.519-6.248-2.669-8.758-3.741
	c-1.522-1.244-3.297-2.178-5.225-2.714v-66.442c0-1.766-0.702-3.46-1.951-4.709c-1.248-1.249-2.944-1.951-4.711-1.951H135.027
	c-1.766,0-3.46,0.701-4.709,1.951c-1.249,1.249-1.951,2.943-1.951,4.709v186.786c0,1.767,0.703,3.463,1.953,4.711
	c1.248,1.249,2.942,1.949,4.707,1.949h267.616c0.505,0.773,7.341,11.227,10.162,15.37c0.843,1.24,2.368,1.811,3.812,1.472
	l-1.711,26.49h-91.871c-0.175-0.049-0.36-0.049-0.534,0h-67.767c-0.049-0.008-0.098-0.013-0.147-0.014
	c-0.054,0-0.108,0.005-0.162,0.014h-17.857c-0.048-0.008-0.097-0.013-0.146-0.014c-0.055,0-0.109,0.005-0.162,0.014H130.372
	c-4.241,0-8.307-1.685-11.304-4.684c-2.999-2.998-4.684-7.064-4.684-11.304V168.951c0-4.241,1.685-8.307,4.684-11.306
	C122.066,154.646,126.132,152.963,130.372,152.963L130.372,152.963z M135.027,168.944h315.561c1.238,0,2.424,0.49,3.299,1.365
	c0.875,0.876,1.365,2.059,1.365,3.297v66.05c-0.584-0.075-1.176-0.127-1.777-0.129h-0.004c-6.662-0.039-13.42,0.452-25.009,6.508
	l0.008-0.002c-1.548,0.796-2.703,2.193-3.189,3.864c-0.486,1.671-0.264,3.47,0.616,4.971c2.458,4.199,5.565,9.504,5.721,9.771
	c-0.088,3.901-0.144,6.345-0.256,11.25c0,0,0,0.001,0,0.002c-0.061,2.73,1.026,5.361,2.993,7.254
	c1.946,1.874,4.581,2.852,7.278,2.712v7.922h-19.539c-0.039,0-0.078,0.002-0.117,0.006h-0.01c-2.866,0-5.733,1.089-7.912,3.267
	c-0.33,0.329-0.634,0.674-0.913,1.031l-7.898,8.922V197.557c0-1.767-0.704-3.463-1.953-4.711c-1.249-1.248-2.944-1.951-4.711-1.951
	H187.034c-1.766,0-3.46,0.702-4.708,1.951c-1.25,1.249-1.952,2.944-1.952,4.711v138.886c0,1.765,0.701,3.46,1.952,4.709
	c1.248,1.249,2.943,1.951,4.708,1.951h199.022l15.22,21.951H135.027c-1.237,0-2.422-0.488-3.297-1.363c0-0.001,0-0.001,0-0.002
	c-0.875-0.875-1.365-2.059-1.365-3.297V173.606c0-1.237,0.489-2.421,1.365-3.297C132.605,169.434,133.79,168.944,135.027,168.944
	L135.027,168.944z M187.034,192.892h211.548c1.238,0,2.424,0.49,3.299,1.365c0.875,0.875,1.367,2.061,1.367,3.299v111.706
	l-17.239,19.472c-3.282,3.265-3.863,8.443-1.336,12.37H187.033c-1.236,0-2.422-0.49-3.296-1.366
	c-0.876-0.874-1.366-2.06-1.366-3.296V197.557c0-1.237,0.49-2.422,1.366-3.297c0,0,0-0.001,0-0.002
	C184.611,193.383,185.798,192.892,187.034,192.892L187.034,192.892L187.034,192.892z M509.677,200.148
	c-0.548,0.007-0.993,0.464-0.986,1.012v7.355c0,0.004,0,0.009,0,0.014c0,0.547,0.451,0.999,0.999,0.999
	c0.548,0,0.999-0.451,0.999-0.999c0-0.005,0-0.01,0-0.014v-7.355c0-0.004,0-0.009,0-0.013c0-0.548-0.45-0.999-0.999-0.999
	C509.686,200.148,509.681,200.148,509.677,200.148z M497.076,205.371h-0.001c-0.548,0-1,0.451-1,0.999
	c0,0.271,0.11,0.53,0.305,0.718l5.199,5.199c0.189,0.196,0.448,0.308,0.721,0.308c0.547,0,0.999-0.451,0.999-1
	c0-0.272-0.111-0.532-0.308-0.72l-5.199-5.199C497.605,205.482,497.346,205.372,497.076,205.371L497.076,205.371z M522.277,205.373
	c-0.26,0.008-0.506,0.117-0.687,0.303l-5.201,5.199c-0.196,0.189-0.307,0.448-0.307,0.72c0,0.548,0.45,0.999,0.999,0.999
	c0.272,0,0.532-0.111,0.72-0.307l5.201-5.199c0.194-0.188,0.303-0.446,0.303-0.716c0-0.548-0.45-0.999-0.999-0.999
	C522.296,205.373,522.287,205.373,522.277,205.373L522.277,205.373z M277.1,215.252c-0.048,0.001-0.097,0.005-0.144,0.014h-10.499
	c-2.103,0-3.829,1.727-3.829,3.83v54.059c0,2.103,1.726,3.829,3.829,3.829h10.491c0.108,0.018,0.218,0.018,0.326,0h31.062
	c0.107,0.018,0.216,0.018,0.324,0h10.5c2.104,0,3.829-1.726,3.829-3.829v-40.78c0-1.739-0.679-3.411-1.896-4.656
	c-2.577-2.637-7.6-7.774-10.213-10.446c-1.252-1.283-2.97-2.008-4.763-2.008h-7.434c-0.108-0.017-0.217-0.017-0.325,0H277.27
	C277.214,215.256,277.157,215.251,277.1,215.252L277.1,215.252L277.1,215.252z M266.457,217.264h9.66v17.765
	c0,0.547,0.45,0.999,0.999,0.999h31.386c0.547,0,0.999-0.451,0.999-0.999v-16.312c2.621,2.682,7.598,7.775,10.163,10.399
	c0.853,0.872,1.328,2.041,1.328,3.259v40.78c0,1.024-0.807,1.832-1.832,1.832h-9.659v-8.027c0.017-0.108,0.017-0.218,0-0.326v-8.87
	c0.017-0.108,0.017-0.218,0-0.326v-9.036c0-0.547-0.451-0.999-0.999-0.999h-31.386c-0.548,0-0.999,0.451-0.999,0.999v9.026
	c-0.018,0.108-0.018,0.219,0,0.327v8.869c-0.018,0.108-0.018,0.219,0,0.327v8.036h-9.66c-1.024,0-1.832-0.809-1.832-1.832v-54.059
	C264.625,218.073,265.433,217.264,266.457,217.264L266.457,217.264z M278.115,217.264h19.404v16.767h-19.404V217.264z
	 M299.517,217.264h6.601c0.477,0,0.938,0.094,1.385,0.234v16.533h-7.986V217.264L299.517,217.264z M491.865,217.989
	c-0.005,0-0.01,0-0.015,0c-0.547,0-0.999,0.45-0.999,0.999c0,0.548,0.451,0.999,0.999,0.999c0.005,0,0.01,0,0.015,0h7.354
	c0.005,0,0.009,0,0.014,0c0.548,0,0.999-0.45,0.999-0.999c0-0.548-0.45-0.999-0.999-0.999c-0.005,0-0.009,0-0.014,0H491.865z
	 M520.164,217.989c-0.005,0-0.01,0-0.015,0c-0.547,0-0.999,0.45-0.999,0.999c0,0.548,0.451,0.999,0.999,0.999
	c0.005,0,0.01,0,0.015,0h7.354c0.005,0,0.009,0,0.014,0c0.548,0,0.999-0.45,0.999-0.999c0-0.548-0.45-0.999-0.999-0.999
	c-0.005,0-0.009,0-0.014,0H520.164z M517.086,225.382c-0.001,0-0.002,0-0.002,0c-0.548,0-0.999,0.451-0.999,1
	c0,0.27,0.11,0.529,0.304,0.717l5.201,5.199c0.189,0.197,0.449,0.308,0.721,0.308c0.547,0,0.999-0.451,0.999-0.999
	c0-0.273-0.111-0.532-0.308-0.721l-5.201-5.201C517.614,225.492,517.355,225.382,517.086,225.382L517.086,225.382z M502.266,225.384
	c-0.26,0.008-0.506,0.116-0.687,0.301l-5.199,5.201c-0.196,0.189-0.307,0.448-0.307,0.721c0,0.547,0.45,0.999,0.999,0.999
	c0.272,0,0.532-0.111,0.72-0.308l5.199-5.199c0.194-0.188,0.303-0.446,0.303-0.716c0-0.548-0.45-0.999-0.999-0.999
	C502.285,225.384,502.275,225.384,502.266,225.384L502.266,225.384z M509.677,228.447c-0.548,0.007-0.993,0.464-0.986,1.012v7.355
	c0,0.004,0,0.009,0,0.014c0,0.548,0.451,0.999,0.999,0.999c0.548,0,0.999-0.45,0.999-0.999c0-0.005,0-0.01,0-0.014v-7.355
	c0-0.004,0-0.009,0-0.013c0-0.548-0.45-0.999-0.999-0.999C509.686,228.447,509.681,228.447,509.677,228.447z M453.464,241.525
	c0.001,0,0.002,0,0.002,0c0.849,0.002,1.678,0.1,2.484,0.269c0.05,0.016,0.102,0.028,0.154,0.035
	c0.22,0.049,0.441,0.096,0.657,0.157c-1.839,0.545-3.433,1.873-4.241,3.766c-0.758,1.775-1.59,3.721-2.29,5.36
	c-1.105,2.587,0.047,5.608,2.591,6.807l2.719,1.281c-1.677,0.956-2.39,3.054-1.542,4.818c0.886,1.844,3.127,2.629,4.97,1.742
	l5.199-2.499l2.175,1.025l1.726,0.813c-0.527,2.078-1.432,4.083-2.758,5.886c-1.84,2.5-3.021,4.103-3.33,4.523l-9.725-2.622
	c0.078-0.164,0.151-0.331,0.215-0.503c1.119-3.039-0.452-6.44-3.492-7.559c-0.276-0.102-0.556-0.174-0.837-0.233l-3.103-7.147
	c-0.145-0.335-0.462-0.563-0.825-0.597l-11.326-1.032c-0.033-0.003-0.067-0.004-0.1-0.004c-0.535,0.005-0.976,0.44-0.989,0.976
	c0,0-0.073,3.204-0.092,4.046c-1.147-1.959-2.328-3.977-4.083-6.975c-0.601-1.027-0.755-2.258-0.423-3.402v-0.002
	c0.335-1.145,1.126-2.1,2.185-2.646c0.002-0.001,0.004-0.002,0.006-0.004c11.354-5.933,17.508-6.319,24.074-6.281L453.464,241.525
	L453.464,241.525z M458.658,243.7c0.606,0.003,1.224,0.125,1.819,0.379c0.316,0.135,0.775,0.332,1.087,0.464
	c0.009,0.005,0.019,0.009,0.029,0.014c2.691,1.15,5.429,2.319,9.383,4.008l-4.783,13.445l-1.607-0.756
	c-0.272-0.128-0.586-0.126-0.856,0.004l-5.628,2.704c-0.868,0.418-1.886,0.06-2.304-0.808c-0.416-0.868-0.06-1.886,0.808-2.304
	l1.633-0.786c0.344-0.166,0.563-0.516,0.563-0.899c0-0.385-0.223-0.738-0.571-0.903l-4.559-2.148
	c-1.591-0.749-2.294-2.599-1.603-4.216c0.7-1.639,1.532-3.586,2.29-5.36C455.118,244.752,456.84,243.691,458.658,243.7
	L458.658,243.7L458.658,243.7z M472.815,249.352c16.318,6.969,38.649,16.505,38.649,16.505c4.023,1.718,5.883,6.354,4.165,10.378
	c-0.365,0.853-0.861,1.608-1.454,2.252c-0.003,0.005-0.007,0.009-0.011,0.014l-27.908,31.495c-0.676,0.764-1.456,1.373-2.292,1.856
	v-17.073c0-0.548-0.45-0.999-0.999-0.999h-6.439l17.296-17.282c0.188-0.187,0.293-0.441,0.293-0.707c0-0.387-0.224-0.74-0.574-0.904
	l-20.746-9.769c-0.086-0.059-0.18-0.104-0.279-0.133l-2.699-1.27c-0.092-0.064-0.194-0.112-0.302-0.142l-1.504-0.708
	L472.815,249.352L472.815,249.352z M278.115,249.402h29.388v7.196h-29.388V249.402z M433.769,257.903l9.669,0.88l2.505,5.772
	c-0.423,0.126-0.715,0.516-0.715,0.958c0,0.548,0.45,0.999,0.999,0.999c0.055,0,0.111-0.004,0.165-0.013
	c0.619-0.09,1.263-0.032,1.895,0.201c2.025,0.745,3.052,2.969,2.307,4.994c-0.167,0.452-0.415,0.845-0.712,1.19
	c-0.003,0.005-0.006,0.009-0.01,0.014c-1.028,1.187-2.706,1.68-4.272,1.104c-0.111-0.041-0.228-0.061-0.346-0.061
	c-0.547,0-0.999,0.45-0.999,0.999c0,0.417,0.262,0.793,0.654,0.937c2.162,0.796,4.504,0.226,6.08-1.261l10.39,2.803v16.363h-17.748
	v-8.039c4.097-0.249,8.018-0.485,8.018-0.485c0.532-0.021,0.959-0.465,0.959-0.999c0-0.547-0.45-0.999-0.999-0.999
	c-0.027,0-0.054,0.002-0.081,0.004c0,0-4.012,0.242-8.79,0.532c-0.04-0.005-0.081-0.007-0.121-0.006
	c-0.072,0.001-0.143,0.011-0.213,0.027c-0.449,0.028-0.334,0.02-0.808,0.049c-2.168,0.131-4.291-0.651-5.856-2.157
	c-1.565-1.506-2.428-3.599-2.38-5.77v-0.002c0.113-4.985,0.176-7.815,0.258-11.432c0.007-0.057,0.009-0.116,0.006-0.174
	c0.045-2.001,0.136-6.034,0.144-6.425L433.769,257.903L433.769,257.903z M69.618,258.112c-0.548,0.008-0.993,0.464-0.986,1.013
	v7.354c0,0.005,0,0.009,0,0.014c0,0.548,0.451,0.999,0.999,0.999c0.548,0,1-0.45,1-0.999c0-0.005,0-0.009-0.001-0.014v-7.354
	c0.001-0.005,0.001-0.009,0.001-0.014c0-0.548-0.451-0.999-1-0.999C69.627,258.112,69.622,258.112,69.618,258.112z M278.115,258.595
	h29.388v7.198h-29.388V258.595z M57.017,263.336c-0.001,0-0.002,0-0.002,0c-0.548,0-0.999,0.451-0.999,1
	c0,0.27,0.11,0.529,0.304,0.717l5.201,5.199c0.189,0.197,0.449,0.308,0.721,0.308c0.547,0,0.999-0.451,0.999-0.999
	c0-0.273-0.111-0.532-0.308-0.721l-5.201-5.201C57.544,263.446,57.285,263.336,57.017,263.336z M82.218,263.338
	c-0.259,0.008-0.505,0.116-0.686,0.301l-5.202,5.201c-0.196,0.189-0.307,0.449-0.307,0.721c0,0.547,0.45,0.999,0.999,0.999
	c0.272,0,0.532-0.111,0.721-0.308l5.201-5.199c0.193-0.188,0.303-0.446,0.303-0.716c0-0.547-0.451-0.999-0.999-0.999
	C82.238,263.338,82.228,263.338,82.218,263.338L82.218,263.338z M469.922,265.972l1.31,0.618v27.19h-7.855v-16.802
	c0.163-0.221,1.585-2.15,3.541-4.809C468.318,270.265,469.318,268.16,469.922,265.972L469.922,265.972z M473.23,267.531
	l18.172,8.558l-17.705,17.691h-0.466V267.531z M278.115,267.791h29.388v7.197h-29.388V267.791z M51.806,275.951
	c-0.005,0-0.01,0-0.014,0c-0.548,0-0.999,0.451-0.999,0.999c0,0.548,0.45,0.999,0.999,0.999c0.004,0,0.009,0,0.014,0h7.352
	c0.005,0,0.01,0,0.014,0c0.548,0,0.999-0.45,0.999-0.999c0-0.547-0.45-0.999-0.999-0.999c-0.004,0-0.009,0-0.014,0H51.806z
	 M80.106,275.951c-0.005,0-0.01,0-0.014,0c-0.548,0-0.999,0.451-0.999,0.999c0,0.548,0.45,0.999,0.999,0.999
	c0.004,0,0.009,0,0.014,0h7.352c0.005,0,0.01,0,0.014,0c0.548,0,0.999-0.45,0.999-0.999c0-0.547-0.45-0.999-0.999-0.999
	c-0.004,0-0.009,0-0.014,0H80.106z M62.207,283.347c-0.26,0.007-0.506,0.116-0.687,0.302l-5.201,5.201
	c-0.196,0.189-0.307,0.449-0.307,0.721c0,0.548,0.45,0.999,0.999,0.999c0.272,0,0.532-0.111,0.72-0.307l5.201-5.202
	c0.194-0.188,0.303-0.446,0.303-0.716c0-0.547-0.45-0.999-0.999-0.999C62.227,283.346,62.217,283.346,62.207,283.347L62.207,283.347
	z M77.027,283.347c-0.548,0-0.999,0.45-0.999,0.999c0,0.27,0.109,0.527,0.302,0.715l5.202,5.202c0.188,0.196,0.448,0.307,0.72,0.307
	c0.548,0,0.999-0.45,0.999-0.999c0-0.272-0.111-0.532-0.307-0.721l-5.201-5.201C77.555,283.456,77.297,283.347,77.027,283.347
	L77.027,283.347z M69.618,286.412c-0.548,0.008-0.993,0.464-0.986,1.013v7.354c0,0.005,0,0.009,0,0.014
	c0,0.548,0.451,0.999,0.999,0.999c0.548,0,1-0.45,1-0.999c0-0.005,0-0.009-0.001-0.014v-7.354c0.001-0.005,0.001-0.009,0.001-0.014
	c0-0.548-0.451-0.999-1-0.999C69.627,286.412,69.622,286.412,69.618,286.412z M421.969,295.771c0.011,0,0.022,0.002,0.033,0.002
	c0.031,0.003,0.063,0.004,0.094,0.004c2.309,0.032,4.609,0.925,6.375,2.691c3.595,3.595,3.595,9.407,0,13.001L417.81,322.13
	c-0.077,0.057-0.146,0.126-0.203,0.203l-14.264,14.264c-0.318,0.318-0.384,0.81-0.163,1.2l11.205,19.662l-10.938,7.223
	l-15.967-23.026c-0.042-0.085-0.096-0.163-0.16-0.233l-0.595-0.856c-0.008-0.012-0.017-0.024-0.026-0.035
	c-2.425-3.198-2.047-7.632,0.716-10.38c0.015-0.014,0.029-0.029,0.043-0.045l17.434-19.693c0.069-0.059,0.13-0.127,0.18-0.203
	l9.605-10.85c0.014-0.015,0.027-0.031,0.039-0.047c0.23-0.293,0.479-0.575,0.749-0.845c0,0,0-0.001,0-0.002
	C417.264,296.669,419.618,295.771,421.969,295.771L421.969,295.771L421.969,295.771z M428.336,295.777h14.13
	c0.108,0.018,0.218,0.018,0.326,0h19.419c0.108,0.018,0.218,0.018,0.326,0h9.529c0.108,0.018,0.217,0.018,0.325,0h9.575v17.419
	c-0.045,0.17-0.045,0.349,0,0.518v56.976h-62.424c0.402-0.292,1.409-1.027,2.726-1.986c0.862-0.629,1.351-1.657,1.295-2.724
	c-0.056-1.069-0.651-2.036-1.576-2.571c-0.614-0.355-1.232-0.713-1.754-1.015c-0.302-0.174-0.574-0.388-0.827-0.622v-38.414
	l10.477-10.477c4.36-4.36,4.36-11.467,0-15.827C429.401,296.572,428.878,296.153,428.336,295.777L428.336,295.777z M241.993,298.976
	c-5.469,0-9.924,4.455-9.924,9.922v0.004c0,5.467,4.455,9.923,9.924,9.923h31.961c5.467,0,9.921-4.456,9.921-9.923v-0.004
	c0-5.468-4.454-9.922-9.921-9.922H241.993z M311.666,298.976c-5.468,0-9.924,4.454-9.924,9.922v0.004
	c0,5.467,4.456,9.923,9.924,9.923h31.961c5.467,0,9.921-4.456,9.921-9.923v-0.004c0-5.468-4.454-9.922-9.921-9.922H311.666z
	 M241.993,300.974h31.961c4.388,0,7.923,3.536,7.923,7.924v0.004c0,4.388-3.536,7.925-7.923,7.925h-31.961
	c-4.39,0-7.926-3.537-7.926-7.925v-0.004C234.066,304.51,237.603,300.974,241.993,300.974z M311.666,300.974h31.961
	c4.388,0,7.923,3.536,7.923,7.924v0.004c0,4.388-3.536,7.925-7.923,7.925h-31.961c-4.389,0-7.926-3.538-7.926-7.925v-0.004
	C303.74,304.51,307.277,300.974,311.666,300.974z M417.408,325.354v33.371l-0.822-1.441c0-0.001-0.001-0.001-0.002-0.002
	l-11.29-19.814L417.408,325.354L417.408,325.354z M415.377,359.198l1.401,2.458c0.215,0.377,0.477,0.72,0.759,1.046
	c0.067,0.12,0.158,0.225,0.267,0.308c0.423,0.433,0.902,0.811,1.43,1.116c0.52,0.301,1.139,0.66,1.754,1.015
	c0.341,0.197,0.558,0.55,0.579,0.944c0,0.001,0,0.002,0,0.002c0.021,0.395-0.158,0.77-0.476,1.003
	c-1.581,1.153-3.273,2.388-3.273,2.388c-0.257,0.188-0.41,0.487-0.41,0.806v1.238c-0.018,0.108-0.018,0.218,0,0.326v8.543
	c0,0.713-0.458,1.334-1.142,1.545v-0.002c-0.683,0.21-1.409-0.045-1.81-0.634c-0.001,0-0.002,0-0.002,0
	c-2.698-3.961-9.009-13.61-9.891-14.959L415.377,359.198L415.377,359.198z M524.889,359.773c3.091,3.002,5.145,7.081,5.366,11.726
	c0.222,4.644-1.434,8.899-4.225,12.183c-3.091-3.002-5.143-7.08-5.365-11.725C520.444,367.315,522.098,363.056,524.889,359.773
	L524.889,359.773z M419.406,372.688h62.56v3.975c0,10.128-8.189,18.314-18.315,18.314h-11.262c-0.057-0.009-0.114-0.014-0.172-0.014
	c-0.05,0.001-0.1,0.006-0.15,0.014h-4.339c-0.488,0.001-0.908,0.359-0.985,0.841l-2.466,15.247c-0.035,0.103-0.053,0.211-0.053,0.32
	l-4.771,29.503c-0.038,0.109-0.056,0.224-0.055,0.34l-9.497,58.718h-18.782l3.78-58.499c0.028-0.115,0.035-0.233,0.021-0.35
	l1.907-29.484c0.026-0.11,0.033-0.223,0.021-0.336l1.859-28.757c0.442-0.605,0.699-1.345,0.699-2.13L419.406,372.688
	L419.406,372.688z M292.81,374.416c-7.887,0-14.304,6.416-14.304,14.304c0,7.886,6.416,14.303,14.304,14.303
	c7.887,0,14.301-6.416,14.301-14.303C307.11,380.832,300.697,374.416,292.81,374.416z M292.81,376.413
	c6.808,0,12.303,5.498,12.303,12.306c0,6.808-5.495,12.305-12.303,12.305c-6.808,0-12.306-5.497-12.306-12.305
	C280.504,381.912,286.002,376.413,292.81,376.413z M502.966,376.796c4.097,1.335,7.736,4.093,9.98,8.164
	c2.244,4.072,2.634,8.622,1.574,12.798c-4.097-1.333-7.736-4.094-9.98-8.165C502.296,385.522,501.907,380.973,502.966,376.796
	L502.966,376.796z M69.665,378.934c2.79,3.283,4.443,7.539,4.221,12.182c-0.221,4.643-2.272,8.723-5.362,11.726
	c-2.792-3.283-4.447-7.539-4.225-12.182C64.52,386.016,66.573,381.936,69.665,378.934z M540.951,379.453
	c3.974,0.123,7.624,1.617,10.548,3.997c-2.937,3.154-6.973,5.293-11.611,5.612c-4.638,0.321-8.927-1.246-12.269-3.965
	c2.937-3.153,6.971-5.292,11.609-5.611C539.808,379.446,540.384,379.436,540.951,379.453L540.951,379.453L540.951,379.453z
	 M481.966,385.392v34.989c-0.007,0.07-0.007,0.142,0,0.213v20.451c-0.017,0.108-0.017,0.217,0,0.324v58.576h-18.789l-5.61-58.679
	c0.005-0.101-0.005-0.201-0.03-0.299l-2.825-29.536c0.005-0.097-0.004-0.193-0.027-0.287l-1.355-14.171h10.321
	C471.728,396.974,478.695,392.232,481.966,385.392L481.966,385.392L481.966,385.392z M527.38,395.394
	c0.568-0.008,1.142,0.011,1.721,0.061c0,0,0.001,0,0.002,0c4.631,0.396,8.63,2.6,11.515,5.801
	c-3.386,2.666-7.702,4.159-12.335,3.763c-4.631-0.397-8.63-2.6-11.515-5.802C519.73,396.885,523.404,395.451,527.38,395.394
	L527.38,395.394L527.38,395.394z M91.588,395.956c1.06,4.176,0.669,8.726-1.574,12.796c-2.244,4.072-5.883,6.83-9.98,8.164
	c-1.06-4.177-0.67-8.725,1.574-12.797C83.852,400.049,87.49,397.291,91.588,395.956L91.588,395.956z M448.579,396.974h2.741
	l1.283,13.41h-6.193L448.579,396.974z M491.577,397.885c4.137,1.208,7.858,3.854,10.227,7.854c2.369,3.999,2.899,8.535,1.97,12.741
	c-4.137-1.207-7.859-3.85-10.23-7.851C491.176,406.629,490.647,402.093,491.577,397.885z M53.603,398.611
	c0.567-0.018,1.143-0.007,1.722,0.033c4.638,0.32,8.674,2.457,11.611,5.61c-3.342,2.722-7.633,4.287-12.272,3.966
	c-4.637-0.32-8.672-2.457-11.609-5.61C45.979,400.229,49.629,398.734,53.603,398.611L53.603,398.611z M237.215,412.381h16.116
	c-0.252,1.131-4.909,22.039-10.154,45.588c-0.438,1.972,0.039,4.037,1.303,5.614c1.263,1.576,3.176,2.495,5.197,2.495h21.49
	c3.701,0,7.25,1.47,9.867,4.086c2.381,2.381,3.798,5.534,4.038,8.87h-44.474c-4.435,0-8.63-2.013-11.404-5.473
	c-2.774-3.461-3.827-7.99-2.864-12.321c2.327-10.445,2.546-11.433,4.376-19.648c0.043-0.103,0.068-0.213,0.074-0.324
	C233.452,429.276,237.121,412.805,237.215,412.381L237.215,412.381L237.215,412.381z M255.38,412.381h66.135
	c-0.196,0.879-3.552,15.943-6.336,28.445c-0.043,0.106-0.068,0.218-0.074,0.332c-1.65,7.409-2.266,10.178-3.743,16.811
	c-0.439,1.972,0.039,4.037,1.303,5.614c0.14,0.175,0.291,0.339,0.446,0.497h-41.943h-21.49c-1.415,0-2.753-0.643-3.638-1.748
	c-0.886-1.105-1.222-2.549-0.914-3.931C250.421,434.63,255.216,413.12,255.38,412.381L255.38,412.381z M323.561,412.381h91.213
	l-1.799,27.831h-95.614C320.06,428.101,323.438,412.938,323.561,412.381z M446.086,412.381h6.708l2.663,27.831h-13.873
	L446.086,412.381L446.086,412.381z M519.334,413.888c3.975,0.082,7.641,1.54,10.589,3.891c-2.904,3.184-6.918,5.362-11.552,5.73
	c-4.634,0.367-8.94-1.154-12.31-3.839c2.904-3.183,6.919-5.364,11.553-5.731C518.194,413.893,518.767,413.876,519.334,413.888
	L519.334,413.888z M67.172,414.553c3.976,0.057,7.651,1.492,10.614,3.825c-2.884,3.201-6.886,5.405-11.518,5.801
	c-4.631,0.396-8.946-1.097-12.332-3.762c2.884-3.202,6.883-5.406,11.515-5.802C66.031,414.566,66.604,414.545,67.172,414.553z
	 M106.115,421.479c10.566,0,19.189,8.296,19.708,18.733H68.966c0.503-5.426,5.057-9.666,10.616-9.666
	c2.69,0,5.133,0.997,7.007,2.638c0.189,0.207,0.457,0.326,0.737,0.326c0.463,0,0.869-0.323,0.974-0.774
	C91.472,426.086,98.251,421.479,106.115,421.479z M483.963,421.569c7.152,0.649,13.204,5.11,16.1,11.334
	c0.163,0.352,0.517,0.577,0.905,0.577c0.217,0,0.427-0.071,0.6-0.201c0.006-0.004,0.011-0.008,0.016-0.012
	c0.016-0.013,0.032-0.026,0.047-0.039c1.881-1.669,4.349-2.683,7.063-2.683c5.56,0,10.114,4.24,10.616,9.666h-35.348V421.569z
	 M278.879,466.078h60.469c3.7,0,7.251,1.47,9.867,4.086c2.379,2.379,3.748,5.537,3.989,8.87h-66.134
	c-0.243-3.865-1.869-7.527-4.623-10.283C281.381,467.686,280.176,466.794,278.879,466.078z M135.514,468.405
	c-7.867,0-14.276,6.403-14.283,14.282v0.001c0,0.548,0.45,0.999,0.999,0.999h26.571c0.548,0,0.999-0.45,0.999-0.999
	C149.8,474.815,143.388,468.405,135.514,468.405L135.514,468.405z M135.514,470.403c6.451,0,11.671,4.972,12.187,11.286H123.33
	C123.851,475.369,129.069,470.403,135.514,470.403z M509.497,473.502c-5.412,0-9.828,4.413-9.834,9.832c0,0.001,0,0.001,0,0.002
	c0,0.547,0.451,0.999,0.999,0.999h17.671c0.547,0,0.999-0.451,0.999-0.999C519.331,477.92,514.914,473.502,509.497,473.502z
	 M509.497,475.5c3.981,0,7.126,2.998,7.635,6.838h-15.27C502.374,478.495,505.519,475.5,509.497,475.5L509.497,475.5z
	 M161.06,487.636c-4.423,0-8.031,3.607-8.035,8.033v0.001c0,0.548,0.45,0.999,0.999,1h14.074c0.548-0.001,0.999-0.451,0.999-0.999
	C169.096,491.246,165.485,487.636,161.06,487.636z M161.06,489.633c2.988,0,5.347,2.193,5.838,5.039h-11.675
	C155.716,491.825,158.073,489.633,161.06,489.633z M410.333,501.942h19.264c-0.151,1.036-0.673,4.618-1.208,8.302
	c-0.16,1.096-0.762,2.188-1.684,2.992c-0.921,0.805-2.074,1.246-3.162,1.246h-22.248c-1.044,0-1.931-0.404-2.523-1.096
	c-0.592-0.694-0.86-1.645-0.708-2.698c0.131-0.899,0.735-1.804,1.602-2.325C403.089,506.303,410.024,502.128,410.333,501.942
	L410.333,501.942z M462.568,501.942h19.397v8.447c0,1.087-0.431,2.127-1.2,2.895c-0.769,0.769-1.808,1.2-2.895,1.2h-22.251
	c-1.045,0-2.044-0.414-2.784-1.153c-0.738-0.738-1.153-1.738-1.153-2.784v-0.002c0-0.888,0.444-1.716,1.187-2.204
	C455.982,506.287,462.242,502.157,462.568,501.942L462.568,501.942z"></path>
</svg>